G04*
G04 #@! TF.GenerationSoftware,Altium Limited,Altium Designer,19.0.9 (268)*
G04*
G04 Layer_Color=8388736*
%FSLAX25Y25*%
%MOIN*%
G70*
G01*
G75*
%ADD10R,0.07493X0.04540*%
%ADD11O,0.03556X0.11036*%
%ADD12O,0.10642X0.03556*%
%ADD13O,0.06115X0.02965*%
%ADD14O,0.02965X0.06115*%
%ADD15R,0.06902X0.10052*%
%ADD16R,0.07099X0.13202*%
%ADD17R,0.04540X0.07493*%
%ADD18R,0.06706X0.06706*%
%ADD19R,0.14580X0.10642*%
%ADD20R,0.22847X0.09068*%
%ADD21R,0.10052X0.09265*%
%ADD22R,0.07965X0.06272*%
%ADD23C,0.07887*%
%ADD24R,0.07887X0.07887*%
%ADD25C,0.06706*%
%ADD26R,0.06706X0.06706*%
%ADD27R,0.07887X0.07887*%
%ADD28C,0.16548*%
%ADD29C,0.09461*%
%ADD30C,0.06800*%
%ADD31C,0.05800*%
G36*
X65013Y-176571D02*
X65064Y-176581D01*
X65114Y-176598D01*
X65161Y-176621D01*
X65205Y-176651D01*
X65244Y-176685D01*
X65279Y-176725D01*
X65308Y-176768D01*
X65331Y-176815D01*
X65348Y-176865D01*
X65358Y-176916D01*
X65361Y-176969D01*
X65361Y-184843D01*
X65361Y-184844D01*
X65361Y-184846D01*
X65360Y-184870D01*
X65358Y-184895D01*
X65358Y-184897D01*
X65358Y-184898D01*
X65353Y-184922D01*
X65348Y-184946D01*
X65347Y-184948D01*
X65347Y-184949D01*
X65339Y-184972D01*
X65331Y-184996D01*
X65330Y-184997D01*
X65330Y-184999D01*
X65319Y-185021D01*
X65308Y-185043D01*
X65307Y-185044D01*
X65306Y-185046D01*
X61369Y-191739D01*
X61355Y-191759D01*
X61342Y-191779D01*
X61341Y-191781D01*
X61340Y-191782D01*
X61323Y-191801D01*
X61307Y-191819D01*
X61306Y-191820D01*
X61305Y-191821D01*
X61286Y-191838D01*
X61268Y-191853D01*
X61266Y-191854D01*
X61265Y-191855D01*
X61244Y-191869D01*
X61224Y-191883D01*
X61223Y-191883D01*
X61221Y-191884D01*
X61199Y-191895D01*
X61177Y-191906D01*
X61175Y-191906D01*
X61174Y-191907D01*
X61151Y-191915D01*
X61127Y-191923D01*
X61126Y-191923D01*
X61124Y-191923D01*
X61100Y-191928D01*
X61076Y-191933D01*
X61074Y-191933D01*
X61073Y-191933D01*
X61048Y-191935D01*
X61024Y-191936D01*
X29528D01*
X29503Y-191935D01*
X29478Y-191933D01*
X29477Y-191933D01*
X29475Y-191933D01*
X29451Y-191928D01*
X29427Y-191923D01*
X29425Y-191923D01*
X29424Y-191923D01*
X29400Y-191915D01*
X29377Y-191907D01*
X29376Y-191906D01*
X29374Y-191906D01*
X29352Y-191895D01*
X29330Y-191884D01*
X29329Y-191883D01*
X29327Y-191883D01*
X29307Y-191869D01*
X29286Y-191855D01*
X29285Y-191854D01*
X29283Y-191853D01*
X29265Y-191838D01*
X29246Y-191821D01*
X29245Y-191820D01*
X29244Y-191819D01*
X29228Y-191800D01*
X29212Y-191782D01*
X29211Y-191781D01*
X29210Y-191779D01*
X29196Y-191759D01*
X29182Y-191739D01*
X25245Y-185046D01*
X25244Y-185044D01*
X25243Y-185043D01*
X25233Y-185021D01*
X25221Y-184999D01*
X25221Y-184997D01*
X25220Y-184996D01*
X25212Y-184972D01*
X25204Y-184949D01*
X25204Y-184948D01*
X25203Y-184946D01*
X25199Y-184922D01*
X25194Y-184898D01*
X25193Y-184897D01*
X25193Y-184895D01*
X25192Y-184870D01*
X25190Y-184846D01*
X25190Y-184844D01*
X25190Y-184843D01*
Y-176969D01*
X25193Y-176916D01*
X25203Y-176865D01*
X25220Y-176815D01*
X25243Y-176768D01*
X25273Y-176725D01*
X25307Y-176685D01*
X25346Y-176651D01*
X25390Y-176621D01*
X25437Y-176598D01*
X25487Y-176581D01*
X25538Y-176571D01*
X25591Y-176568D01*
X64961D01*
X65013Y-176571D01*
D02*
G37*
G36*
X61049Y-149010D02*
X61073Y-149012D01*
X61074Y-149012D01*
X61076Y-149012D01*
X61100Y-149017D01*
X61124Y-149021D01*
X61126Y-149022D01*
X61127Y-149022D01*
X61151Y-149030D01*
X61174Y-149038D01*
X61175Y-149039D01*
X61177Y-149039D01*
X61199Y-149050D01*
X61221Y-149061D01*
X61223Y-149062D01*
X61224Y-149062D01*
X61244Y-149076D01*
X61265Y-149090D01*
X61266Y-149091D01*
X61268Y-149091D01*
X61286Y-149107D01*
X61305Y-149124D01*
X61306Y-149125D01*
X61307Y-149126D01*
X61323Y-149145D01*
X61340Y-149163D01*
X61341Y-149164D01*
X61342Y-149165D01*
X61355Y-149186D01*
X61369Y-149206D01*
X65306Y-155899D01*
X65307Y-155901D01*
X65308Y-155902D01*
X65319Y-155924D01*
X65330Y-155946D01*
X65330Y-155947D01*
X65331Y-155949D01*
X65339Y-155973D01*
X65347Y-155996D01*
X65347Y-155997D01*
X65348Y-155999D01*
X65353Y-156023D01*
X65358Y-156047D01*
X65358Y-156048D01*
X65358Y-156050D01*
X65360Y-156075D01*
X65361Y-156099D01*
X65361Y-156101D01*
X65361Y-156102D01*
Y-163976D01*
X65358Y-164029D01*
X65348Y-164080D01*
X65331Y-164130D01*
X65308Y-164177D01*
X65279Y-164220D01*
X65244Y-164260D01*
X65205Y-164294D01*
X65161Y-164323D01*
X65114Y-164347D01*
X65064Y-164364D01*
X65013Y-164374D01*
X64961Y-164377D01*
X25591D01*
X25538Y-164374D01*
X25487Y-164364D01*
X25437Y-164347D01*
X25390Y-164323D01*
X25346Y-164294D01*
X25307Y-164260D01*
X25273Y-164220D01*
X25243Y-164177D01*
X25220Y-164130D01*
X25203Y-164080D01*
X25193Y-164029D01*
X25190Y-163976D01*
X25190Y-156102D01*
X25190Y-156101D01*
X25190Y-156099D01*
X25192Y-156075D01*
X25193Y-156050D01*
X25193Y-156048D01*
X25194Y-156047D01*
X25199Y-156023D01*
X25203Y-155999D01*
X25204Y-155997D01*
X25204Y-155996D01*
X25212Y-155973D01*
X25220Y-155949D01*
X25221Y-155947D01*
X25221Y-155946D01*
X25232Y-155924D01*
X25243Y-155902D01*
X25244Y-155901D01*
X25245Y-155899D01*
X29182Y-149206D01*
X29196Y-149186D01*
X29210Y-149165D01*
X29211Y-149164D01*
X29212Y-149163D01*
X29228Y-149144D01*
X29244Y-149126D01*
X29245Y-149125D01*
X29246Y-149124D01*
X29266Y-149107D01*
X29283Y-149091D01*
X29285Y-149091D01*
X29286Y-149090D01*
X29307Y-149076D01*
X29327Y-149062D01*
X29329Y-149062D01*
X29330Y-149061D01*
X29352Y-149050D01*
X29374Y-149039D01*
X29376Y-149039D01*
X29377Y-149038D01*
X29400Y-149030D01*
X29424Y-149022D01*
X29425Y-149022D01*
X29427Y-149021D01*
X29451Y-149017D01*
X29475Y-149012D01*
X29477Y-149012D01*
X29478Y-149012D01*
X29503Y-149010D01*
X29528Y-149009D01*
X61024D01*
X61049Y-149010D01*
D02*
G37*
D10*
X204724Y-331299D02*
D03*
Y-320669D02*
D03*
X63496Y-97087D02*
D03*
Y-86457D02*
D03*
X54736Y-96988D02*
D03*
Y-86358D02*
D03*
X45878Y-97087D02*
D03*
Y-86457D02*
D03*
X75197Y-174606D02*
D03*
Y-185236D02*
D03*
Y-163189D02*
D03*
Y-152559D02*
D03*
X72835Y-211417D02*
D03*
Y-222441D02*
D03*
X22047Y-127165D02*
D03*
Y-138189D02*
D03*
X214173Y-297047D02*
D03*
Y-307677D02*
D03*
X223228Y-297047D02*
D03*
Y-307677D02*
D03*
X91299Y-59252D02*
D03*
Y-48622D02*
D03*
X101299Y-59252D02*
D03*
Y-48622D02*
D03*
X111299Y-59252D02*
D03*
Y-48622D02*
D03*
X121299Y-59252D02*
D03*
Y-48622D02*
D03*
X131299Y-59252D02*
D03*
Y-48622D02*
D03*
X141299Y-59252D02*
D03*
Y-48622D02*
D03*
X200000Y-146063D02*
D03*
Y-135039D02*
D03*
X131299Y-142126D02*
D03*
Y-131102D02*
D03*
X151299Y-59252D02*
D03*
Y-48622D02*
D03*
X161299Y-59252D02*
D03*
Y-48622D02*
D03*
X171299Y-59252D02*
D03*
Y-48622D02*
D03*
X181299Y-59252D02*
D03*
Y-48622D02*
D03*
X191299Y-59252D02*
D03*
Y-48622D02*
D03*
X201299Y-59252D02*
D03*
Y-48622D02*
D03*
X211299Y-59252D02*
D03*
Y-48622D02*
D03*
X221299Y-59252D02*
D03*
Y-48622D02*
D03*
X227756Y-226772D02*
D03*
Y-215748D02*
D03*
X231299Y-59252D02*
D03*
Y-48622D02*
D03*
X241299Y-59252D02*
D03*
Y-48622D02*
D03*
X91339Y-137205D02*
D03*
Y-126575D02*
D03*
Y-226575D02*
D03*
Y-237205D02*
D03*
X113386Y-237795D02*
D03*
Y-226772D02*
D03*
X102756Y-226575D02*
D03*
Y-237205D02*
D03*
X169291Y-199409D02*
D03*
Y-210039D02*
D03*
X91339Y-261220D02*
D03*
Y-250591D02*
D03*
X113386Y-250394D02*
D03*
Y-261417D02*
D03*
X188189Y-202953D02*
D03*
Y-213583D02*
D03*
X102756Y-261220D02*
D03*
Y-250591D02*
D03*
X184646Y-307480D02*
D03*
Y-296457D02*
D03*
X99213Y-303346D02*
D03*
Y-292717D02*
D03*
X115748Y-303740D02*
D03*
Y-293110D02*
D03*
X124016Y-237598D02*
D03*
Y-226968D02*
D03*
X194685Y-307480D02*
D03*
Y-296457D02*
D03*
X159843Y-199409D02*
D03*
Y-210039D02*
D03*
X134449Y-271260D02*
D03*
Y-282283D02*
D03*
D11*
X145000Y-262862D02*
D03*
X150000D02*
D03*
X155000D02*
D03*
X160000D02*
D03*
X165000D02*
D03*
X170000D02*
D03*
X175000D02*
D03*
X180000D02*
D03*
X185000D02*
D03*
X190000D02*
D03*
X195000D02*
D03*
X200000D02*
D03*
X205000D02*
D03*
X210000D02*
D03*
X145000Y-226642D02*
D03*
X150000D02*
D03*
X155000D02*
D03*
X160000D02*
D03*
X165000D02*
D03*
X170000D02*
D03*
X175000D02*
D03*
X180000D02*
D03*
X185000D02*
D03*
X190000D02*
D03*
X195000D02*
D03*
X200000D02*
D03*
X205000D02*
D03*
X210000D02*
D03*
D12*
X60906Y-138406D02*
D03*
Y-133406D02*
D03*
Y-128406D02*
D03*
Y-123406D02*
D03*
X41614Y-138406D02*
D03*
Y-133406D02*
D03*
Y-128406D02*
D03*
Y-123406D02*
D03*
D13*
X150394Y-125394D02*
D03*
Y-128543D02*
D03*
Y-131693D02*
D03*
Y-134843D02*
D03*
Y-137992D02*
D03*
Y-141142D02*
D03*
Y-144291D02*
D03*
Y-147441D02*
D03*
X183071D02*
D03*
Y-144291D02*
D03*
Y-141142D02*
D03*
Y-137992D02*
D03*
Y-134843D02*
D03*
Y-131693D02*
D03*
Y-128543D02*
D03*
Y-125394D02*
D03*
D14*
X155709Y-152756D02*
D03*
X158858D02*
D03*
X162008D02*
D03*
X165157D02*
D03*
X168307D02*
D03*
X171457D02*
D03*
X174606D02*
D03*
X177756D02*
D03*
Y-120079D02*
D03*
X174606D02*
D03*
X171457D02*
D03*
X168307D02*
D03*
X165157D02*
D03*
X162008D02*
D03*
X158858D02*
D03*
X155709D02*
D03*
D15*
X54843Y-63642D02*
D03*
Y-48091D02*
D03*
X21654Y-88287D02*
D03*
Y-103839D02*
D03*
D16*
X30079Y-73189D02*
D03*
Y-50354D02*
D03*
D17*
X60157Y-75118D02*
D03*
X49134D02*
D03*
D18*
X45276Y-160827D02*
D03*
Y-180118D02*
D03*
D19*
X58071Y-211024D02*
D03*
X32480D02*
D03*
D20*
X170079Y-283858D02*
D03*
X207480D02*
D03*
D21*
X225197Y-204075D02*
D03*
Y-191673D02*
D03*
D22*
X124409Y-250447D02*
D03*
Y-261117D02*
D03*
D23*
X72244Y-311732D02*
D03*
X25000Y-25000D02*
D03*
X152480Y-320866D02*
D03*
X142480Y-320866D02*
D03*
X191850Y-320669D02*
D03*
X181850Y-320670D02*
D03*
X216890Y-330630D02*
D03*
X226890D02*
D03*
X236890D02*
D03*
X216890Y-320630D02*
D03*
X226890Y-320630D02*
D03*
X91299Y-100551D02*
D03*
X91299Y-110551D02*
D03*
X62244Y-311732D02*
D03*
X20079D02*
D03*
X30079D02*
D03*
D24*
X45000Y-25000D02*
D03*
X132480Y-320866D02*
D03*
X171850Y-320670D02*
D03*
X236890Y-320630D02*
D03*
D25*
X241299Y-21299D02*
D03*
Y-31299D02*
D03*
X231299Y-21299D02*
D03*
Y-31299D02*
D03*
X221299Y-21299D02*
D03*
Y-31299D02*
D03*
X211299Y-21299D02*
D03*
Y-31299D02*
D03*
X201299Y-21299D02*
D03*
Y-31299D02*
D03*
X191299Y-21299D02*
D03*
Y-31299D02*
D03*
X181299Y-21299D02*
D03*
Y-31299D02*
D03*
X171299Y-21299D02*
D03*
Y-31299D02*
D03*
X161299Y-21299D02*
D03*
Y-31299D02*
D03*
X151299Y-21299D02*
D03*
Y-31299D02*
D03*
X141299Y-21299D02*
D03*
Y-31299D02*
D03*
X131299Y-21299D02*
D03*
Y-31299D02*
D03*
X121299Y-21299D02*
D03*
Y-31299D02*
D03*
X111299Y-21299D02*
D03*
Y-31299D02*
D03*
X101299Y-21299D02*
D03*
Y-31299D02*
D03*
X91299Y-21299D02*
D03*
Y-31299D02*
D03*
X81299Y-21299D02*
D03*
D26*
Y-31299D02*
D03*
D27*
X91299Y-90551D02*
D03*
D28*
X68662Y-292441D02*
D03*
X23662D02*
D03*
D29*
X76772Y-280433D02*
D03*
X15669D02*
D03*
D30*
X43642Y-257441D02*
D03*
X33642D02*
D03*
X53642D02*
D03*
X63642D02*
D03*
X58642Y-267441D02*
D03*
X48642D02*
D03*
X28642D02*
D03*
X38642D02*
D03*
D31*
X260630Y-174409D02*
D03*
X255905Y-187795D02*
D03*
X250787Y-177953D02*
D03*
X137402Y-249213D02*
D03*
X45000Y-242520D02*
D03*
X90945Y-242913D02*
D03*
X155000Y-219291D02*
D03*
X149849Y-212205D02*
D03*
X103150Y-213386D02*
D03*
X159843Y-237402D02*
D03*
X75197Y-147638D02*
D03*
X91732Y-219685D02*
D03*
X53543Y-234252D02*
D03*
X26772Y-242126D02*
D03*
X91299Y-268504D02*
D03*
X145669Y-272441D02*
D03*
X102756Y-274016D02*
D03*
X155000Y-275197D02*
D03*
X163779Y-273228D02*
D03*
X134449Y-293701D02*
D03*
X177756Y-271260D02*
D03*
X175984Y-307087D02*
D03*
X227756Y-233858D02*
D03*
X229921Y-270472D02*
D03*
X99213Y-286221D02*
D03*
X220866Y-269685D02*
D03*
X115748Y-279921D02*
D03*
X195286Y-125197D02*
D03*
X184868Y-119685D02*
D03*
X201181D02*
D03*
X185433Y-103150D02*
D03*
X211299Y-102756D02*
D03*
X186614Y-80709D02*
D03*
X221260Y-80315D02*
D03*
X175984Y-73189D02*
D03*
X231299Y-72441D02*
D03*
X166929Y-66142D02*
D03*
X241299D02*
D03*
X116142Y-165748D02*
D03*
X153543D02*
D03*
X116535Y-78740D02*
D03*
X171260Y-79528D02*
D03*
X107087Y-87008D02*
D03*
X181890Y-86614D02*
D03*
X150356Y-157087D02*
D03*
X207874Y-114173D02*
D03*
X151181D02*
D03*
X214961Y-151969D02*
D03*
X137795D02*
D03*
X120079Y-156693D02*
D03*
X124803Y-142058D02*
D03*
X126378Y-73622D02*
D03*
X161417D02*
D03*
X121260Y-101181D02*
D03*
X154724Y-101181D02*
D03*
Y-108661D02*
D03*
X131496Y-108268D02*
D03*
X136221Y-66535D02*
D03*
X151181D02*
D03*
X190551Y-142638D02*
D03*
X236890Y-141339D02*
D03*
X197638Y-132677D02*
D03*
X240551Y-125197D02*
D03*
X245669Y-91732D02*
D03*
X93307Y-160827D02*
D03*
X131299Y-126575D02*
D03*
X181850Y-177953D02*
D03*
X187008Y-173622D02*
D03*
X193307Y-187402D02*
D03*
X199606Y-178346D02*
D03*
X170669Y-187008D02*
D03*
X111299D02*
D03*
X105906Y-172441D02*
D03*
X160236D02*
D03*
X165354Y-176772D02*
D03*
X101299Y-180315D02*
D03*
X80256Y-249213D02*
D03*
X165150Y-91732D02*
D03*
X7598Y-154331D02*
D03*
Y-123622D02*
D03*
Y-101181D02*
D03*
Y-70472D02*
D03*
Y-50354D02*
D03*
M02*
