G04*
G04 #@! TF.GenerationSoftware,Altium Limited,Altium Designer,19.0.9 (268)*
G04*
G04 Layer_Physical_Order=2*
G04 Layer_Color=16711680*
%FSLAX25Y25*%
%MOIN*%
G70*
G01*
G75*
%ADD45C,0.01968*%
%ADD46C,0.03150*%
%ADD47C,0.07087*%
%ADD48R,0.07087X0.07087*%
%ADD49C,0.05906*%
%ADD50R,0.05906X0.05906*%
%ADD51R,0.07087X0.07087*%
%ADD52C,0.15748*%
%ADD53C,0.08661*%
%ADD54C,0.06000*%
%ADD55C,0.05000*%
G36*
X266299Y-340551D02*
X1575D01*
X1220Y-187584D01*
Y-1220D01*
X266299D01*
Y-340551D01*
D02*
G37*
%LPC*%
G36*
X241799Y-17378D02*
Y-20799D01*
X245220D01*
X245150Y-20267D01*
X244752Y-19306D01*
X244118Y-18480D01*
X243293Y-17846D01*
X242331Y-17448D01*
X241799Y-17378D01*
D02*
G37*
G36*
X240799D02*
X240267Y-17448D01*
X239306Y-17846D01*
X238480Y-18480D01*
X237846Y-19306D01*
X237448Y-20267D01*
X237378Y-20799D01*
X240799D01*
Y-17378D01*
D02*
G37*
G36*
X231799D02*
Y-20799D01*
X235220D01*
X235150Y-20267D01*
X234752Y-19306D01*
X234118Y-18480D01*
X233293Y-17846D01*
X232331Y-17448D01*
X231799Y-17378D01*
D02*
G37*
G36*
X230799D02*
X230267Y-17448D01*
X229306Y-17846D01*
X228480Y-18480D01*
X227847Y-19306D01*
X227448Y-20267D01*
X227378Y-20799D01*
X230799D01*
Y-17378D01*
D02*
G37*
G36*
X221799D02*
Y-20799D01*
X225220D01*
X225150Y-20267D01*
X224752Y-19306D01*
X224118Y-18480D01*
X223293Y-17846D01*
X222331Y-17448D01*
X221799Y-17378D01*
D02*
G37*
G36*
X220799D02*
X220267Y-17448D01*
X219306Y-17846D01*
X218480Y-18480D01*
X217846Y-19306D01*
X217448Y-20267D01*
X217378Y-20799D01*
X220799D01*
Y-17378D01*
D02*
G37*
G36*
X211799D02*
Y-20799D01*
X215220D01*
X215150Y-20267D01*
X214752Y-19306D01*
X214118Y-18480D01*
X213293Y-17846D01*
X212331Y-17448D01*
X211799Y-17378D01*
D02*
G37*
G36*
X210799D02*
X210267Y-17448D01*
X209306Y-17846D01*
X208480Y-18480D01*
X207846Y-19306D01*
X207448Y-20267D01*
X207378Y-20799D01*
X210799D01*
Y-17378D01*
D02*
G37*
G36*
X201799D02*
Y-20799D01*
X205220D01*
X205150Y-20267D01*
X204752Y-19306D01*
X204118Y-18480D01*
X203293Y-17846D01*
X202331Y-17448D01*
X201799Y-17378D01*
D02*
G37*
G36*
X200799D02*
X200267Y-17448D01*
X199306Y-17846D01*
X198480Y-18480D01*
X197846Y-19306D01*
X197448Y-20267D01*
X197378Y-20799D01*
X200799D01*
Y-17378D01*
D02*
G37*
G36*
X191799D02*
Y-20799D01*
X195220D01*
X195150Y-20267D01*
X194752Y-19306D01*
X194118Y-18480D01*
X193293Y-17846D01*
X192331Y-17448D01*
X191799Y-17378D01*
D02*
G37*
G36*
X190799D02*
X190267Y-17448D01*
X189306Y-17846D01*
X188480Y-18480D01*
X187847Y-19306D01*
X187448Y-20267D01*
X187378Y-20799D01*
X190799D01*
Y-17378D01*
D02*
G37*
G36*
X181799D02*
Y-20799D01*
X185220D01*
X185150Y-20267D01*
X184752Y-19306D01*
X184118Y-18480D01*
X183293Y-17846D01*
X182331Y-17448D01*
X181799Y-17378D01*
D02*
G37*
G36*
X180799D02*
X180267Y-17448D01*
X179306Y-17846D01*
X178480Y-18480D01*
X177847Y-19306D01*
X177448Y-20267D01*
X177378Y-20799D01*
X180799D01*
Y-17378D01*
D02*
G37*
G36*
X171799D02*
Y-20799D01*
X175220D01*
X175150Y-20267D01*
X174752Y-19306D01*
X174118Y-18480D01*
X173293Y-17846D01*
X172331Y-17448D01*
X171799Y-17378D01*
D02*
G37*
G36*
X170799D02*
X170267Y-17448D01*
X169306Y-17846D01*
X168480Y-18480D01*
X167847Y-19306D01*
X167448Y-20267D01*
X167378Y-20799D01*
X170799D01*
Y-17378D01*
D02*
G37*
G36*
X161799D02*
Y-20799D01*
X165220D01*
X165150Y-20267D01*
X164752Y-19306D01*
X164118Y-18480D01*
X163293Y-17846D01*
X162331Y-17448D01*
X161799Y-17378D01*
D02*
G37*
G36*
X160799D02*
X160267Y-17448D01*
X159306Y-17846D01*
X158480Y-18480D01*
X157846Y-19306D01*
X157448Y-20267D01*
X157378Y-20799D01*
X160799D01*
Y-17378D01*
D02*
G37*
G36*
X151799D02*
Y-20799D01*
X155220D01*
X155150Y-20267D01*
X154752Y-19306D01*
X154118Y-18480D01*
X153293Y-17846D01*
X152331Y-17448D01*
X151799Y-17378D01*
D02*
G37*
G36*
X150799D02*
X150267Y-17448D01*
X149306Y-17846D01*
X148480Y-18480D01*
X147846Y-19306D01*
X147448Y-20267D01*
X147378Y-20799D01*
X150799D01*
Y-17378D01*
D02*
G37*
G36*
X141799D02*
Y-20799D01*
X145220D01*
X145150Y-20267D01*
X144752Y-19306D01*
X144118Y-18480D01*
X143293Y-17846D01*
X142331Y-17448D01*
X141799Y-17378D01*
D02*
G37*
G36*
X140799D02*
X140267Y-17448D01*
X139306Y-17846D01*
X138480Y-18480D01*
X137847Y-19306D01*
X137448Y-20267D01*
X137378Y-20799D01*
X140799D01*
Y-17378D01*
D02*
G37*
G36*
X131799D02*
Y-20799D01*
X135220D01*
X135150Y-20267D01*
X134752Y-19306D01*
X134118Y-18480D01*
X133293Y-17846D01*
X132331Y-17448D01*
X131799Y-17378D01*
D02*
G37*
G36*
X130799D02*
X130267Y-17448D01*
X129306Y-17846D01*
X128480Y-18480D01*
X127847Y-19306D01*
X127448Y-20267D01*
X127378Y-20799D01*
X130799D01*
Y-17378D01*
D02*
G37*
G36*
X121799D02*
Y-20799D01*
X125220D01*
X125150Y-20267D01*
X124752Y-19306D01*
X124118Y-18480D01*
X123293Y-17846D01*
X122331Y-17448D01*
X121799Y-17378D01*
D02*
G37*
G36*
X120799D02*
X120267Y-17448D01*
X119306Y-17846D01*
X118480Y-18480D01*
X117847Y-19306D01*
X117448Y-20267D01*
X117378Y-20799D01*
X120799D01*
Y-17378D01*
D02*
G37*
G36*
X111799D02*
Y-20799D01*
X115220D01*
X115150Y-20267D01*
X114752Y-19306D01*
X114118Y-18480D01*
X113293Y-17846D01*
X112331Y-17448D01*
X111799Y-17378D01*
D02*
G37*
G36*
X110799D02*
X110267Y-17448D01*
X109306Y-17846D01*
X108480Y-18480D01*
X107846Y-19306D01*
X107448Y-20267D01*
X107378Y-20799D01*
X110799D01*
Y-17378D01*
D02*
G37*
G36*
X101799D02*
Y-20799D01*
X105220D01*
X105150Y-20267D01*
X104752Y-19306D01*
X104118Y-18480D01*
X103293Y-17846D01*
X102331Y-17448D01*
X101799Y-17378D01*
D02*
G37*
G36*
X100799D02*
X100267Y-17448D01*
X99306Y-17846D01*
X98480Y-18480D01*
X97847Y-19306D01*
X97448Y-20267D01*
X97378Y-20799D01*
X100799D01*
Y-17378D01*
D02*
G37*
G36*
X25500Y-20483D02*
Y-24500D01*
X29517D01*
X29426Y-23814D01*
X28969Y-22709D01*
X28240Y-21760D01*
X27291Y-21031D01*
X26186Y-20574D01*
X25500Y-20483D01*
D02*
G37*
G36*
X24500D02*
X23814Y-20574D01*
X22709Y-21031D01*
X21760Y-21760D01*
X21031Y-22709D01*
X20574Y-23814D01*
X20483Y-24500D01*
X24500D01*
Y-20483D01*
D02*
G37*
G36*
X245220Y-21799D02*
X241799D01*
Y-25220D01*
X242331Y-25150D01*
X243293Y-24752D01*
X244118Y-24118D01*
X244752Y-23293D01*
X245150Y-22331D01*
X245220Y-21799D01*
D02*
G37*
G36*
X240799D02*
X237378D01*
X237448Y-22331D01*
X237846Y-23293D01*
X238480Y-24118D01*
X239306Y-24752D01*
X240267Y-25150D01*
X240799Y-25220D01*
Y-21799D01*
D02*
G37*
G36*
X235220D02*
X231799D01*
Y-25220D01*
X232331Y-25150D01*
X233293Y-24752D01*
X234118Y-24118D01*
X234752Y-23293D01*
X235150Y-22331D01*
X235220Y-21799D01*
D02*
G37*
G36*
X230799D02*
X227378D01*
X227448Y-22331D01*
X227847Y-23293D01*
X228480Y-24118D01*
X229306Y-24752D01*
X230267Y-25150D01*
X230799Y-25220D01*
Y-21799D01*
D02*
G37*
G36*
X225220D02*
X221799D01*
Y-25220D01*
X222331Y-25150D01*
X223293Y-24752D01*
X224118Y-24118D01*
X224752Y-23293D01*
X225150Y-22331D01*
X225220Y-21799D01*
D02*
G37*
G36*
X220799D02*
X217378D01*
X217448Y-22331D01*
X217846Y-23293D01*
X218480Y-24118D01*
X219306Y-24752D01*
X220267Y-25150D01*
X220799Y-25220D01*
Y-21799D01*
D02*
G37*
G36*
X215220D02*
X211799D01*
Y-25220D01*
X212331Y-25150D01*
X213293Y-24752D01*
X214118Y-24118D01*
X214752Y-23293D01*
X215150Y-22331D01*
X215220Y-21799D01*
D02*
G37*
G36*
X210799D02*
X207378D01*
X207448Y-22331D01*
X207846Y-23293D01*
X208480Y-24118D01*
X209306Y-24752D01*
X210267Y-25150D01*
X210799Y-25220D01*
Y-21799D01*
D02*
G37*
G36*
X205220D02*
X201799D01*
Y-25220D01*
X202331Y-25150D01*
X203293Y-24752D01*
X204118Y-24118D01*
X204752Y-23293D01*
X205150Y-22331D01*
X205220Y-21799D01*
D02*
G37*
G36*
X200799D02*
X197378D01*
X197448Y-22331D01*
X197846Y-23293D01*
X198480Y-24118D01*
X199306Y-24752D01*
X200267Y-25150D01*
X200799Y-25220D01*
Y-21799D01*
D02*
G37*
G36*
X195220D02*
X191799D01*
Y-25220D01*
X192331Y-25150D01*
X193293Y-24752D01*
X194118Y-24118D01*
X194752Y-23293D01*
X195150Y-22331D01*
X195220Y-21799D01*
D02*
G37*
G36*
X190799D02*
X187378D01*
X187448Y-22331D01*
X187847Y-23293D01*
X188480Y-24118D01*
X189306Y-24752D01*
X190267Y-25150D01*
X190799Y-25220D01*
Y-21799D01*
D02*
G37*
G36*
X185220D02*
X181799D01*
Y-25220D01*
X182331Y-25150D01*
X183293Y-24752D01*
X184118Y-24118D01*
X184752Y-23293D01*
X185150Y-22331D01*
X185220Y-21799D01*
D02*
G37*
G36*
X180799D02*
X177378D01*
X177448Y-22331D01*
X177847Y-23293D01*
X178480Y-24118D01*
X179306Y-24752D01*
X180267Y-25150D01*
X180799Y-25220D01*
Y-21799D01*
D02*
G37*
G36*
X175220D02*
X171799D01*
Y-25220D01*
X172331Y-25150D01*
X173293Y-24752D01*
X174118Y-24118D01*
X174752Y-23293D01*
X175150Y-22331D01*
X175220Y-21799D01*
D02*
G37*
G36*
X170799D02*
X167378D01*
X167448Y-22331D01*
X167847Y-23293D01*
X168480Y-24118D01*
X169306Y-24752D01*
X170267Y-25150D01*
X170799Y-25220D01*
Y-21799D01*
D02*
G37*
G36*
X165220D02*
X161799D01*
Y-25220D01*
X162331Y-25150D01*
X163293Y-24752D01*
X164118Y-24118D01*
X164752Y-23293D01*
X165150Y-22331D01*
X165220Y-21799D01*
D02*
G37*
G36*
X160799D02*
X157378D01*
X157448Y-22331D01*
X157846Y-23293D01*
X158480Y-24118D01*
X159306Y-24752D01*
X160267Y-25150D01*
X160799Y-25220D01*
Y-21799D01*
D02*
G37*
G36*
X155220D02*
X151799D01*
Y-25220D01*
X152331Y-25150D01*
X153293Y-24752D01*
X154118Y-24118D01*
X154752Y-23293D01*
X155150Y-22331D01*
X155220Y-21799D01*
D02*
G37*
G36*
X150799D02*
X147378D01*
X147448Y-22331D01*
X147846Y-23293D01*
X148480Y-24118D01*
X149306Y-24752D01*
X150267Y-25150D01*
X150799Y-25220D01*
Y-21799D01*
D02*
G37*
G36*
X145220D02*
X141799D01*
Y-25220D01*
X142331Y-25150D01*
X143293Y-24752D01*
X144118Y-24118D01*
X144752Y-23293D01*
X145150Y-22331D01*
X145220Y-21799D01*
D02*
G37*
G36*
X140799D02*
X137378D01*
X137448Y-22331D01*
X137847Y-23293D01*
X138480Y-24118D01*
X139306Y-24752D01*
X140267Y-25150D01*
X140799Y-25220D01*
Y-21799D01*
D02*
G37*
G36*
X135220D02*
X131799D01*
Y-25220D01*
X132331Y-25150D01*
X133293Y-24752D01*
X134118Y-24118D01*
X134752Y-23293D01*
X135150Y-22331D01*
X135220Y-21799D01*
D02*
G37*
G36*
X130799D02*
X127378D01*
X127448Y-22331D01*
X127847Y-23293D01*
X128480Y-24118D01*
X129306Y-24752D01*
X130267Y-25150D01*
X130799Y-25220D01*
Y-21799D01*
D02*
G37*
G36*
X125220D02*
X121799D01*
Y-25220D01*
X122331Y-25150D01*
X123293Y-24752D01*
X124118Y-24118D01*
X124752Y-23293D01*
X125150Y-22331D01*
X125220Y-21799D01*
D02*
G37*
G36*
X120799D02*
X117378D01*
X117448Y-22331D01*
X117847Y-23293D01*
X118480Y-24118D01*
X119306Y-24752D01*
X120267Y-25150D01*
X120799Y-25220D01*
Y-21799D01*
D02*
G37*
G36*
X115220D02*
X111799D01*
Y-25220D01*
X112331Y-25150D01*
X113293Y-24752D01*
X114118Y-24118D01*
X114752Y-23293D01*
X115150Y-22331D01*
X115220Y-21799D01*
D02*
G37*
G36*
X110799D02*
X107378D01*
X107448Y-22331D01*
X107846Y-23293D01*
X108480Y-24118D01*
X109306Y-24752D01*
X110267Y-25150D01*
X110799Y-25220D01*
Y-21799D01*
D02*
G37*
G36*
X105220D02*
X101799D01*
Y-25220D01*
X102331Y-25150D01*
X103293Y-24752D01*
X104118Y-24118D01*
X104752Y-23293D01*
X105150Y-22331D01*
X105220Y-21799D01*
D02*
G37*
G36*
X100799D02*
X97378D01*
X97448Y-22331D01*
X97847Y-23293D01*
X98480Y-24118D01*
X99306Y-24752D01*
X100267Y-25150D01*
X100799Y-25220D01*
Y-21799D01*
D02*
G37*
G36*
X91299Y-17312D02*
X90267Y-17448D01*
X89306Y-17846D01*
X88480Y-18480D01*
X87846Y-19306D01*
X87448Y-20267D01*
X87312Y-21299D01*
X87448Y-22331D01*
X87846Y-23293D01*
X88480Y-24118D01*
X89306Y-24752D01*
X90267Y-25150D01*
X91299Y-25286D01*
X92331Y-25150D01*
X93293Y-24752D01*
X94118Y-24118D01*
X94752Y-23293D01*
X95150Y-22331D01*
X95286Y-21299D01*
X95150Y-20267D01*
X94752Y-19306D01*
X94118Y-18480D01*
X93293Y-17846D01*
X92331Y-17448D01*
X91299Y-17312D01*
D02*
G37*
G36*
X81299D02*
X80267Y-17448D01*
X79306Y-17846D01*
X78480Y-18480D01*
X77846Y-19306D01*
X77448Y-20267D01*
X77312Y-21299D01*
X77448Y-22331D01*
X77846Y-23293D01*
X78480Y-24118D01*
X79306Y-24752D01*
X80267Y-25150D01*
X81299Y-25286D01*
X82331Y-25150D01*
X83293Y-24752D01*
X84118Y-24118D01*
X84752Y-23293D01*
X85150Y-22331D01*
X85286Y-21299D01*
X85150Y-20267D01*
X84752Y-19306D01*
X84118Y-18480D01*
X83293Y-17846D01*
X82331Y-17448D01*
X81299Y-17312D01*
D02*
G37*
G36*
X29517Y-25500D02*
X25500D01*
Y-29517D01*
X26186Y-29426D01*
X27291Y-28969D01*
X28240Y-28240D01*
X28969Y-27291D01*
X29426Y-26186D01*
X29517Y-25500D01*
D02*
G37*
G36*
X24500D02*
X20483D01*
X20574Y-26186D01*
X21031Y-27291D01*
X21760Y-28240D01*
X22709Y-28969D01*
X23814Y-29426D01*
X24500Y-29517D01*
Y-25500D01*
D02*
G37*
G36*
X49543Y-20457D02*
X40457D01*
Y-29543D01*
X49543D01*
Y-20457D01*
D02*
G37*
G36*
X85252Y-27346D02*
X77346D01*
Y-35252D01*
X85252D01*
Y-27346D01*
D02*
G37*
G36*
X241299Y-27312D02*
X240267Y-27448D01*
X239306Y-27847D01*
X238480Y-28480D01*
X237846Y-29306D01*
X237448Y-30267D01*
X237312Y-31299D01*
X237448Y-32331D01*
X237846Y-33293D01*
X238480Y-34118D01*
X239306Y-34752D01*
X240267Y-35150D01*
X241299Y-35286D01*
X242331Y-35150D01*
X243293Y-34752D01*
X244118Y-34118D01*
X244752Y-33293D01*
X245150Y-32331D01*
X245286Y-31299D01*
X245150Y-30267D01*
X244752Y-29306D01*
X244118Y-28480D01*
X243293Y-27847D01*
X242331Y-27448D01*
X241299Y-27312D01*
D02*
G37*
G36*
X231299D02*
X230267Y-27448D01*
X229306Y-27847D01*
X228480Y-28480D01*
X227847Y-29306D01*
X227448Y-30267D01*
X227312Y-31299D01*
X227448Y-32331D01*
X227847Y-33293D01*
X228480Y-34118D01*
X229306Y-34752D01*
X230267Y-35150D01*
X231299Y-35286D01*
X232331Y-35150D01*
X233293Y-34752D01*
X234118Y-34118D01*
X234752Y-33293D01*
X235150Y-32331D01*
X235286Y-31299D01*
X235150Y-30267D01*
X234752Y-29306D01*
X234118Y-28480D01*
X233293Y-27847D01*
X232331Y-27448D01*
X231299Y-27312D01*
D02*
G37*
G36*
X221299D02*
X220267Y-27448D01*
X219306Y-27847D01*
X218480Y-28480D01*
X217846Y-29306D01*
X217448Y-30267D01*
X217312Y-31299D01*
X217448Y-32331D01*
X217846Y-33293D01*
X218480Y-34118D01*
X219306Y-34752D01*
X220267Y-35150D01*
X221299Y-35286D01*
X222331Y-35150D01*
X223293Y-34752D01*
X224118Y-34118D01*
X224752Y-33293D01*
X225150Y-32331D01*
X225286Y-31299D01*
X225150Y-30267D01*
X224752Y-29306D01*
X224118Y-28480D01*
X223293Y-27847D01*
X222331Y-27448D01*
X221299Y-27312D01*
D02*
G37*
G36*
X211299D02*
X210267Y-27448D01*
X209306Y-27847D01*
X208480Y-28480D01*
X207846Y-29306D01*
X207448Y-30267D01*
X207312Y-31299D01*
X207448Y-32331D01*
X207846Y-33293D01*
X208480Y-34118D01*
X209306Y-34752D01*
X210267Y-35150D01*
X211299Y-35286D01*
X212331Y-35150D01*
X213293Y-34752D01*
X214118Y-34118D01*
X214752Y-33293D01*
X215150Y-32331D01*
X215286Y-31299D01*
X215150Y-30267D01*
X214752Y-29306D01*
X214118Y-28480D01*
X213293Y-27847D01*
X212331Y-27448D01*
X211299Y-27312D01*
D02*
G37*
G36*
X201299D02*
X200267Y-27448D01*
X199306Y-27847D01*
X198480Y-28480D01*
X197846Y-29306D01*
X197448Y-30267D01*
X197312Y-31299D01*
X197448Y-32331D01*
X197846Y-33293D01*
X198480Y-34118D01*
X199306Y-34752D01*
X200267Y-35150D01*
X201299Y-35286D01*
X202331Y-35150D01*
X203293Y-34752D01*
X204118Y-34118D01*
X204752Y-33293D01*
X205150Y-32331D01*
X205286Y-31299D01*
X205150Y-30267D01*
X204752Y-29306D01*
X204118Y-28480D01*
X203293Y-27847D01*
X202331Y-27448D01*
X201299Y-27312D01*
D02*
G37*
G36*
X191299D02*
X190267Y-27448D01*
X189306Y-27847D01*
X188480Y-28480D01*
X187847Y-29306D01*
X187448Y-30267D01*
X187312Y-31299D01*
X187448Y-32331D01*
X187847Y-33293D01*
X188480Y-34118D01*
X189306Y-34752D01*
X190267Y-35150D01*
X191299Y-35286D01*
X192331Y-35150D01*
X193293Y-34752D01*
X194118Y-34118D01*
X194752Y-33293D01*
X195150Y-32331D01*
X195286Y-31299D01*
X195150Y-30267D01*
X194752Y-29306D01*
X194118Y-28480D01*
X193293Y-27847D01*
X192331Y-27448D01*
X191299Y-27312D01*
D02*
G37*
G36*
X181299D02*
X180267Y-27448D01*
X179306Y-27847D01*
X178480Y-28480D01*
X177847Y-29306D01*
X177448Y-30267D01*
X177312Y-31299D01*
X177448Y-32331D01*
X177847Y-33293D01*
X178480Y-34118D01*
X179306Y-34752D01*
X180267Y-35150D01*
X181299Y-35286D01*
X182331Y-35150D01*
X183293Y-34752D01*
X184118Y-34118D01*
X184752Y-33293D01*
X185150Y-32331D01*
X185286Y-31299D01*
X185150Y-30267D01*
X184752Y-29306D01*
X184118Y-28480D01*
X183293Y-27847D01*
X182331Y-27448D01*
X181299Y-27312D01*
D02*
G37*
G36*
X171299D02*
X170267Y-27448D01*
X169306Y-27847D01*
X168480Y-28480D01*
X167847Y-29306D01*
X167448Y-30267D01*
X167312Y-31299D01*
X167448Y-32331D01*
X167847Y-33293D01*
X168480Y-34118D01*
X169306Y-34752D01*
X170267Y-35150D01*
X171299Y-35286D01*
X172331Y-35150D01*
X173293Y-34752D01*
X174118Y-34118D01*
X174752Y-33293D01*
X175150Y-32331D01*
X175286Y-31299D01*
X175150Y-30267D01*
X174752Y-29306D01*
X174118Y-28480D01*
X173293Y-27847D01*
X172331Y-27448D01*
X171299Y-27312D01*
D02*
G37*
G36*
X161299D02*
X160267Y-27448D01*
X159306Y-27847D01*
X158480Y-28480D01*
X157846Y-29306D01*
X157448Y-30267D01*
X157312Y-31299D01*
X157448Y-32331D01*
X157846Y-33293D01*
X158480Y-34118D01*
X159306Y-34752D01*
X160267Y-35150D01*
X161299Y-35286D01*
X162331Y-35150D01*
X163293Y-34752D01*
X164118Y-34118D01*
X164752Y-33293D01*
X165150Y-32331D01*
X165286Y-31299D01*
X165150Y-30267D01*
X164752Y-29306D01*
X164118Y-28480D01*
X163293Y-27847D01*
X162331Y-27448D01*
X161299Y-27312D01*
D02*
G37*
G36*
X151299D02*
X150267Y-27448D01*
X149306Y-27847D01*
X148480Y-28480D01*
X147846Y-29306D01*
X147448Y-30267D01*
X147312Y-31299D01*
X147448Y-32331D01*
X147846Y-33293D01*
X148480Y-34118D01*
X149306Y-34752D01*
X150267Y-35150D01*
X151299Y-35286D01*
X152331Y-35150D01*
X153293Y-34752D01*
X154118Y-34118D01*
X154752Y-33293D01*
X155150Y-32331D01*
X155286Y-31299D01*
X155150Y-30267D01*
X154752Y-29306D01*
X154118Y-28480D01*
X153293Y-27847D01*
X152331Y-27448D01*
X151299Y-27312D01*
D02*
G37*
G36*
X141299D02*
X140267Y-27448D01*
X139306Y-27847D01*
X138480Y-28480D01*
X137847Y-29306D01*
X137448Y-30267D01*
X137312Y-31299D01*
X137448Y-32331D01*
X137847Y-33293D01*
X138480Y-34118D01*
X139306Y-34752D01*
X140267Y-35150D01*
X141299Y-35286D01*
X142331Y-35150D01*
X143293Y-34752D01*
X144118Y-34118D01*
X144752Y-33293D01*
X145150Y-32331D01*
X145286Y-31299D01*
X145150Y-30267D01*
X144752Y-29306D01*
X144118Y-28480D01*
X143293Y-27847D01*
X142331Y-27448D01*
X141299Y-27312D01*
D02*
G37*
G36*
X131299D02*
X130267Y-27448D01*
X129306Y-27847D01*
X128480Y-28480D01*
X127847Y-29306D01*
X127448Y-30267D01*
X127312Y-31299D01*
X127448Y-32331D01*
X127847Y-33293D01*
X128480Y-34118D01*
X129306Y-34752D01*
X130267Y-35150D01*
X131299Y-35286D01*
X132331Y-35150D01*
X133293Y-34752D01*
X134118Y-34118D01*
X134752Y-33293D01*
X135150Y-32331D01*
X135286Y-31299D01*
X135150Y-30267D01*
X134752Y-29306D01*
X134118Y-28480D01*
X133293Y-27847D01*
X132331Y-27448D01*
X131299Y-27312D01*
D02*
G37*
G36*
X121299D02*
X120267Y-27448D01*
X119306Y-27847D01*
X118480Y-28480D01*
X117847Y-29306D01*
X117448Y-30267D01*
X117312Y-31299D01*
X117448Y-32331D01*
X117847Y-33293D01*
X118480Y-34118D01*
X119306Y-34752D01*
X120267Y-35150D01*
X121299Y-35286D01*
X122331Y-35150D01*
X123293Y-34752D01*
X124118Y-34118D01*
X124752Y-33293D01*
X125150Y-32331D01*
X125286Y-31299D01*
X125150Y-30267D01*
X124752Y-29306D01*
X124118Y-28480D01*
X123293Y-27847D01*
X122331Y-27448D01*
X121299Y-27312D01*
D02*
G37*
G36*
X111299D02*
X110267Y-27448D01*
X109306Y-27847D01*
X108480Y-28480D01*
X107846Y-29306D01*
X107448Y-30267D01*
X107312Y-31299D01*
X107448Y-32331D01*
X107846Y-33293D01*
X108480Y-34118D01*
X109306Y-34752D01*
X110267Y-35150D01*
X111299Y-35286D01*
X112331Y-35150D01*
X113293Y-34752D01*
X114118Y-34118D01*
X114752Y-33293D01*
X115150Y-32331D01*
X115286Y-31299D01*
X115150Y-30267D01*
X114752Y-29306D01*
X114118Y-28480D01*
X113293Y-27847D01*
X112331Y-27448D01*
X111299Y-27312D01*
D02*
G37*
G36*
X101299D02*
X100267Y-27448D01*
X99306Y-27847D01*
X98480Y-28480D01*
X97847Y-29306D01*
X97448Y-30267D01*
X97312Y-31299D01*
X97448Y-32331D01*
X97847Y-33293D01*
X98480Y-34118D01*
X99306Y-34752D01*
X100267Y-35150D01*
X101299Y-35286D01*
X102331Y-35150D01*
X103293Y-34752D01*
X104118Y-34118D01*
X104752Y-33293D01*
X105150Y-32331D01*
X105286Y-31299D01*
X105150Y-30267D01*
X104752Y-29306D01*
X104118Y-28480D01*
X103293Y-27847D01*
X102331Y-27448D01*
X101299Y-27312D01*
D02*
G37*
G36*
X91299D02*
X90267Y-27448D01*
X89306Y-27847D01*
X88480Y-28480D01*
X87846Y-29306D01*
X87448Y-30267D01*
X87312Y-31299D01*
X87448Y-32331D01*
X87846Y-33293D01*
X88480Y-34118D01*
X89306Y-34752D01*
X90267Y-35150D01*
X91299Y-35286D01*
X92331Y-35150D01*
X93293Y-34752D01*
X94118Y-34118D01*
X94752Y-33293D01*
X95150Y-32331D01*
X95286Y-31299D01*
X95150Y-30267D01*
X94752Y-29306D01*
X94118Y-28480D01*
X93293Y-27847D01*
X92331Y-27448D01*
X91299Y-27312D01*
D02*
G37*
G36*
X8098Y-46890D02*
Y-49854D01*
X11063D01*
X11008Y-49441D01*
X10656Y-48589D01*
X10095Y-47858D01*
X9364Y-47297D01*
X8512Y-46944D01*
X8098Y-46890D01*
D02*
G37*
G36*
X7098D02*
X6685Y-46944D01*
X5833Y-47297D01*
X5102Y-47858D01*
X4541Y-48589D01*
X4188Y-49441D01*
X4134Y-49854D01*
X7098D01*
Y-46890D01*
D02*
G37*
G36*
X11063Y-50854D02*
X8098D01*
Y-53819D01*
X8512Y-53764D01*
X9364Y-53412D01*
X10095Y-52851D01*
X10656Y-52119D01*
X11008Y-51268D01*
X11063Y-50854D01*
D02*
G37*
G36*
X7098D02*
X4134D01*
X4188Y-51268D01*
X4541Y-52119D01*
X5102Y-52851D01*
X5833Y-53412D01*
X6685Y-53764D01*
X7098Y-53819D01*
Y-50854D01*
D02*
G37*
G36*
X241299Y-62612D02*
X240386Y-62732D01*
X239534Y-63085D01*
X238803Y-63645D01*
X238440Y-64119D01*
X169788D01*
X169425Y-63645D01*
X168694Y-63085D01*
X167843Y-62732D01*
X166929Y-62612D01*
X166016Y-62732D01*
X165164Y-63085D01*
X164433Y-63645D01*
X163872Y-64377D01*
X163519Y-65228D01*
X163399Y-66142D01*
X163519Y-67055D01*
X163872Y-67907D01*
X164433Y-68638D01*
X165164Y-69199D01*
X166016Y-69552D01*
X166929Y-69672D01*
X167843Y-69552D01*
X168694Y-69199D01*
X169425Y-68638D01*
X169788Y-68165D01*
X238440D01*
X238803Y-68638D01*
X239534Y-69199D01*
X240386Y-69552D01*
X241299Y-69672D01*
X242213Y-69552D01*
X243064Y-69199D01*
X243795Y-68638D01*
X244356Y-67907D01*
X244709Y-67055D01*
X244829Y-66142D01*
X244709Y-65228D01*
X244356Y-64377D01*
X243795Y-63645D01*
X243064Y-63085D01*
X242213Y-62732D01*
X241299Y-62612D01*
D02*
G37*
G36*
X151181Y-63005D02*
X150267Y-63125D01*
X149416Y-63478D01*
X148685Y-64039D01*
X148322Y-64512D01*
X139080D01*
X138717Y-64039D01*
X137986Y-63478D01*
X137134Y-63125D01*
X136221Y-63005D01*
X135307Y-63125D01*
X134455Y-63478D01*
X133724Y-64039D01*
X133163Y-64770D01*
X132811Y-65622D01*
X132690Y-66535D01*
X132811Y-67449D01*
X133163Y-68300D01*
X133724Y-69032D01*
X134455Y-69593D01*
X135307Y-69945D01*
X136221Y-70066D01*
X137134Y-69945D01*
X137986Y-69593D01*
X138717Y-69032D01*
X139080Y-68559D01*
X148322D01*
X148685Y-69032D01*
X149416Y-69593D01*
X150267Y-69945D01*
X151181Y-70066D01*
X152095Y-69945D01*
X152946Y-69593D01*
X153677Y-69032D01*
X154238Y-68300D01*
X154591Y-67449D01*
X154711Y-66535D01*
X154591Y-65622D01*
X154238Y-64770D01*
X153677Y-64039D01*
X152946Y-63478D01*
X152095Y-63125D01*
X151181Y-63005D01*
D02*
G37*
G36*
X8098Y-67008D02*
Y-69972D01*
X11063D01*
X11008Y-69559D01*
X10656Y-68707D01*
X10095Y-67976D01*
X9364Y-67415D01*
X8512Y-67062D01*
X8098Y-67008D01*
D02*
G37*
G36*
X7098D02*
X6685Y-67062D01*
X5833Y-67415D01*
X5102Y-67976D01*
X4541Y-68707D01*
X4188Y-69559D01*
X4134Y-69972D01*
X7098D01*
Y-67008D01*
D02*
G37*
G36*
X231299Y-68911D02*
X230385Y-69031D01*
X229534Y-69384D01*
X228803Y-69945D01*
X228440Y-70418D01*
X178122D01*
X177749Y-70132D01*
X176898Y-69779D01*
X175984Y-69659D01*
X175071Y-69779D01*
X174219Y-70132D01*
X173488Y-70693D01*
X172927Y-71424D01*
X172574Y-72275D01*
X172454Y-73189D01*
X172574Y-74103D01*
X172927Y-74954D01*
X173488Y-75685D01*
X174219Y-76246D01*
X175071Y-76599D01*
X175984Y-76719D01*
X176898Y-76599D01*
X177749Y-76246D01*
X178481Y-75685D01*
X179042Y-74954D01*
X179244Y-74464D01*
X228440D01*
X228803Y-74937D01*
X229534Y-75498D01*
X230385Y-75851D01*
X231299Y-75971D01*
X232213Y-75851D01*
X233064Y-75498D01*
X233795Y-74937D01*
X234356Y-74206D01*
X234709Y-73355D01*
X234829Y-72441D01*
X234709Y-71527D01*
X234356Y-70676D01*
X233795Y-69945D01*
X233064Y-69384D01*
X232213Y-69031D01*
X231299Y-68911D01*
D02*
G37*
G36*
X161417Y-70092D02*
X160504Y-70212D01*
X159652Y-70565D01*
X158921Y-71126D01*
X158558Y-71599D01*
X129237D01*
X128874Y-71126D01*
X128143Y-70565D01*
X127292Y-70212D01*
X126378Y-70092D01*
X125464Y-70212D01*
X124613Y-70565D01*
X123882Y-71126D01*
X123321Y-71857D01*
X122968Y-72708D01*
X122848Y-73622D01*
X122968Y-74536D01*
X123321Y-75387D01*
X123882Y-76118D01*
X124613Y-76679D01*
X125464Y-77032D01*
X125359Y-77504D01*
X119812D01*
X119593Y-76975D01*
X119032Y-76244D01*
X118300Y-75683D01*
X117449Y-75330D01*
X116535Y-75210D01*
X115622Y-75330D01*
X114770Y-75683D01*
X114039Y-76244D01*
X113478Y-76975D01*
X113126Y-77826D01*
X113005Y-78740D01*
X113126Y-79654D01*
X113478Y-80505D01*
X114039Y-81236D01*
X114770Y-81797D01*
X115622Y-82150D01*
X116535Y-82270D01*
X117449Y-82150D01*
X118300Y-81797D01*
X118622Y-81551D01*
X168401D01*
X168764Y-82024D01*
X169495Y-82585D01*
X170346Y-82938D01*
X171260Y-83058D01*
X172174Y-82938D01*
X173025Y-82585D01*
X173756Y-82024D01*
X174317Y-81293D01*
X174670Y-80441D01*
X174790Y-79528D01*
X174670Y-78614D01*
X174317Y-77763D01*
X173756Y-77031D01*
X173025Y-76470D01*
X172174Y-76118D01*
X171260Y-75997D01*
X170346Y-76118D01*
X169495Y-76470D01*
X168764Y-77031D01*
X168401Y-77504D01*
X162436D01*
X162331Y-77032D01*
X163182Y-76679D01*
X163914Y-76118D01*
X164475Y-75387D01*
X164827Y-74536D01*
X164947Y-73622D01*
X164827Y-72708D01*
X164475Y-71857D01*
X163914Y-71126D01*
X163182Y-70565D01*
X162331Y-70212D01*
X161417Y-70092D01*
D02*
G37*
G36*
X11063Y-70972D02*
X8098D01*
Y-73937D01*
X8512Y-73882D01*
X9364Y-73530D01*
X10095Y-72969D01*
X10656Y-72237D01*
X11008Y-71386D01*
X11063Y-70972D01*
D02*
G37*
G36*
X7098D02*
X4134D01*
X4188Y-71386D01*
X4541Y-72237D01*
X5102Y-72969D01*
X5833Y-73530D01*
X6685Y-73882D01*
X7098Y-73937D01*
Y-70972D01*
D02*
G37*
G36*
X221260Y-76785D02*
X220346Y-76905D01*
X219495Y-77258D01*
X218764Y-77819D01*
X218401Y-78292D01*
X189171D01*
X189110Y-78212D01*
X188379Y-77651D01*
X187528Y-77299D01*
X186614Y-77179D01*
X185701Y-77299D01*
X184849Y-77651D01*
X184118Y-78212D01*
X183557Y-78944D01*
X183204Y-79795D01*
X183084Y-80709D01*
X183204Y-81622D01*
X183557Y-82474D01*
X184118Y-83205D01*
X184849Y-83766D01*
X185701Y-84119D01*
X186614Y-84239D01*
X187528Y-84119D01*
X188379Y-83766D01*
X189110Y-83205D01*
X189671Y-82474D01*
X189728Y-82338D01*
X218401D01*
X218764Y-82811D01*
X219495Y-83372D01*
X220346Y-83725D01*
X221260Y-83845D01*
X222174Y-83725D01*
X223025Y-83372D01*
X223756Y-82811D01*
X224317Y-82080D01*
X224670Y-81229D01*
X224790Y-80315D01*
X224670Y-79401D01*
X224317Y-78550D01*
X223756Y-77819D01*
X223025Y-77258D01*
X222174Y-76905D01*
X221260Y-76785D01*
D02*
G37*
G36*
X181890Y-83084D02*
X180976Y-83204D01*
X180125Y-83557D01*
X179393Y-84118D01*
X179031Y-84591D01*
X109644D01*
X109583Y-84512D01*
X108852Y-83951D01*
X108000Y-83598D01*
X107087Y-83478D01*
X106173Y-83598D01*
X105322Y-83951D01*
X104590Y-84512D01*
X104029Y-85243D01*
X103677Y-86094D01*
X103556Y-87008D01*
X103677Y-87922D01*
X104029Y-88773D01*
X104590Y-89504D01*
X105322Y-90065D01*
X106173Y-90418D01*
X107087Y-90538D01*
X108000Y-90418D01*
X108852Y-90065D01*
X109583Y-89504D01*
X110144Y-88773D01*
X110200Y-88637D01*
X162613D01*
X162783Y-89137D01*
X162654Y-89236D01*
X162093Y-89967D01*
X161740Y-90819D01*
X161620Y-91732D01*
X161740Y-92646D01*
X162093Y-93497D01*
X162654Y-94228D01*
X163385Y-94789D01*
X164236Y-95142D01*
X165150Y-95262D01*
X166064Y-95142D01*
X166915Y-94789D01*
X167646Y-94228D01*
X168009Y-93755D01*
X242810D01*
X243173Y-94229D01*
X243904Y-94789D01*
X244756Y-95142D01*
X245669Y-95262D01*
X246583Y-95142D01*
X247434Y-94789D01*
X248165Y-94229D01*
X248727Y-93497D01*
X249079Y-92646D01*
X249200Y-91732D01*
X249079Y-90819D01*
X248727Y-89967D01*
X248165Y-89236D01*
X247434Y-88675D01*
X246583Y-88322D01*
X245669Y-88202D01*
X244756Y-88322D01*
X243904Y-88675D01*
X243173Y-89236D01*
X242810Y-89709D01*
X184427D01*
X184257Y-89209D01*
X184386Y-89110D01*
X184947Y-88379D01*
X185300Y-87528D01*
X185420Y-86614D01*
X185300Y-85701D01*
X184947Y-84849D01*
X184386Y-84118D01*
X183655Y-83557D01*
X182803Y-83204D01*
X181890Y-83084D01*
D02*
G37*
G36*
X95842Y-86007D02*
X86756D01*
Y-95094D01*
X95842D01*
Y-86007D01*
D02*
G37*
G36*
X154724Y-97651D02*
X153811Y-97771D01*
X152959Y-98124D01*
X152228Y-98685D01*
X151865Y-99158D01*
X124119D01*
X123756Y-98685D01*
X123025Y-98124D01*
X122174Y-97771D01*
X121260Y-97651D01*
X120346Y-97771D01*
X119495Y-98124D01*
X118764Y-98685D01*
X118203Y-99416D01*
X117850Y-100267D01*
X117730Y-101181D01*
X117850Y-102095D01*
X118203Y-102946D01*
X118764Y-103677D01*
X119495Y-104238D01*
X120346Y-104591D01*
X121260Y-104711D01*
X122174Y-104591D01*
X123025Y-104238D01*
X123756Y-103677D01*
X124119Y-103204D01*
X151865D01*
X152228Y-103677D01*
X152959Y-104238D01*
X153811Y-104591D01*
X154404Y-104669D01*
Y-105173D01*
X153811Y-105252D01*
X152959Y-105604D01*
X152228Y-106165D01*
X152167Y-106245D01*
X134355D01*
X133992Y-105772D01*
X133261Y-105210D01*
X132410Y-104858D01*
X131496Y-104737D01*
X130582Y-104858D01*
X129731Y-105210D01*
X129000Y-105772D01*
X128439Y-106503D01*
X128086Y-107354D01*
X127966Y-108268D01*
X128086Y-109181D01*
X128439Y-110033D01*
X129000Y-110764D01*
X129731Y-111325D01*
X130582Y-111678D01*
X131496Y-111798D01*
X132410Y-111678D01*
X133261Y-111325D01*
X133992Y-110764D01*
X134355Y-110291D01*
X150162D01*
X150267Y-110763D01*
X149416Y-111116D01*
X148685Y-111677D01*
X148124Y-112408D01*
X147771Y-113259D01*
X147651Y-114173D01*
X147771Y-115087D01*
X148124Y-115938D01*
X148685Y-116669D01*
X149416Y-117230D01*
X150267Y-117583D01*
X151181Y-117703D01*
X152095Y-117583D01*
X152946Y-117230D01*
X153677Y-116669D01*
X154040Y-116196D01*
X182880D01*
X182951Y-116334D01*
X183013Y-116696D01*
X182371Y-117189D01*
X181810Y-117920D01*
X181458Y-118771D01*
X181337Y-119685D01*
X181458Y-120599D01*
X181810Y-121450D01*
X182371Y-122181D01*
X183102Y-122742D01*
X183954Y-123095D01*
X184868Y-123215D01*
X185781Y-123095D01*
X186633Y-122742D01*
X187364Y-122181D01*
X187727Y-121708D01*
X193299D01*
X193370Y-121846D01*
X193432Y-122208D01*
X192790Y-122701D01*
X192229Y-123432D01*
X191876Y-124283D01*
X191756Y-125197D01*
X191876Y-126110D01*
X192229Y-126962D01*
X192790Y-127693D01*
X193521Y-128254D01*
X194372Y-128607D01*
X195286Y-128727D01*
X196200Y-128607D01*
X197051Y-128254D01*
X197782Y-127693D01*
X198145Y-127220D01*
X237692D01*
X238055Y-127693D01*
X238786Y-128254D01*
X239637Y-128607D01*
X240551Y-128727D01*
X241465Y-128607D01*
X242316Y-128254D01*
X243047Y-127693D01*
X243608Y-126962D01*
X243961Y-126110D01*
X244081Y-125197D01*
X243961Y-124283D01*
X243608Y-123432D01*
X243047Y-122701D01*
X242316Y-122140D01*
X241465Y-121787D01*
X240551Y-121667D01*
X239637Y-121787D01*
X238786Y-122140D01*
X238055Y-122701D01*
X237692Y-123174D01*
X203168D01*
X203097Y-123036D01*
X203035Y-122674D01*
X203677Y-122181D01*
X204238Y-121450D01*
X204591Y-120599D01*
X204711Y-119685D01*
X204591Y-118771D01*
X204238Y-117920D01*
X203677Y-117189D01*
X203035Y-116696D01*
X203097Y-116334D01*
X203168Y-116196D01*
X205015D01*
X205378Y-116669D01*
X206109Y-117230D01*
X206960Y-117583D01*
X207874Y-117703D01*
X208788Y-117583D01*
X209639Y-117230D01*
X210370Y-116669D01*
X210931Y-115938D01*
X211284Y-115087D01*
X211404Y-114173D01*
X211284Y-113259D01*
X210931Y-112408D01*
X210370Y-111677D01*
X209639Y-111116D01*
X208788Y-110763D01*
X207874Y-110643D01*
X206960Y-110763D01*
X206109Y-111116D01*
X205378Y-111677D01*
X205015Y-112150D01*
X156711D01*
X156641Y-112013D01*
X156579Y-111650D01*
X157221Y-111158D01*
X157782Y-110426D01*
X158134Y-109575D01*
X158255Y-108661D01*
X158134Y-107748D01*
X157782Y-106896D01*
X157221Y-106165D01*
X156490Y-105604D01*
X155638Y-105252D01*
X155045Y-105173D01*
Y-104669D01*
X155638Y-104591D01*
X156490Y-104238D01*
X157221Y-103677D01*
X157782Y-102946D01*
X158134Y-102095D01*
X158255Y-101181D01*
X158134Y-100267D01*
X157782Y-99416D01*
X157221Y-98685D01*
X156490Y-98124D01*
X155638Y-97771D01*
X154724Y-97651D01*
D02*
G37*
G36*
X91799Y-96034D02*
Y-100051D01*
X95815D01*
X95725Y-99365D01*
X95267Y-98260D01*
X94539Y-97311D01*
X93590Y-96582D01*
X92485Y-96124D01*
X91799Y-96034D01*
D02*
G37*
G36*
X90799D02*
X90113Y-96124D01*
X89008Y-96582D01*
X88059Y-97311D01*
X87330Y-98260D01*
X86872Y-99365D01*
X86782Y-100051D01*
X90799D01*
Y-96034D01*
D02*
G37*
G36*
X8098Y-97717D02*
Y-100681D01*
X11063D01*
X11008Y-100267D01*
X10656Y-99416D01*
X10095Y-98685D01*
X9364Y-98124D01*
X8512Y-97771D01*
X8098Y-97717D01*
D02*
G37*
G36*
X7098D02*
X6685Y-97771D01*
X5833Y-98124D01*
X5102Y-98685D01*
X4541Y-99416D01*
X4188Y-100267D01*
X4134Y-100681D01*
X7098D01*
Y-97717D01*
D02*
G37*
G36*
X211299Y-99226D02*
X210385Y-99346D01*
X209534Y-99699D01*
X208803Y-100260D01*
X208440Y-100733D01*
X187990D01*
X187929Y-100653D01*
X187198Y-100092D01*
X186347Y-99740D01*
X185433Y-99619D01*
X184519Y-99740D01*
X183668Y-100092D01*
X182937Y-100653D01*
X182376Y-101384D01*
X182023Y-102236D01*
X181903Y-103150D01*
X182023Y-104063D01*
X182376Y-104915D01*
X182937Y-105646D01*
X183668Y-106207D01*
X184519Y-106560D01*
X185433Y-106680D01*
X186347Y-106560D01*
X187198Y-106207D01*
X187929Y-105646D01*
X188490Y-104915D01*
X188547Y-104779D01*
X208440D01*
X208803Y-105252D01*
X209534Y-105813D01*
X210385Y-106166D01*
X211299Y-106286D01*
X212213Y-106166D01*
X213064Y-105813D01*
X213795Y-105252D01*
X214356Y-104521D01*
X214709Y-103670D01*
X214829Y-102756D01*
X214709Y-101842D01*
X214356Y-100991D01*
X213795Y-100260D01*
X213064Y-99699D01*
X212213Y-99346D01*
X211299Y-99226D01*
D02*
G37*
G36*
X11063Y-101681D02*
X8098D01*
Y-104645D01*
X8512Y-104591D01*
X9364Y-104238D01*
X10095Y-103677D01*
X10656Y-102946D01*
X11008Y-102095D01*
X11063Y-101681D01*
D02*
G37*
G36*
X7098D02*
X4134D01*
X4188Y-102095D01*
X4541Y-102946D01*
X5102Y-103677D01*
X5833Y-104238D01*
X6685Y-104591D01*
X7098Y-104645D01*
Y-101681D01*
D02*
G37*
G36*
X95815Y-101051D02*
X91799D01*
Y-105068D01*
X92485Y-104977D01*
X93590Y-104519D01*
X94539Y-103791D01*
X95267Y-102842D01*
X95725Y-101737D01*
X95815Y-101051D01*
D02*
G37*
G36*
X90799D02*
X86782D01*
X86872Y-101737D01*
X87330Y-102842D01*
X88059Y-103791D01*
X89008Y-104519D01*
X90113Y-104977D01*
X90799Y-105068D01*
Y-101051D01*
D02*
G37*
G36*
X91299Y-105969D02*
X90113Y-106125D01*
X89008Y-106583D01*
X88059Y-107311D01*
X87331Y-108260D01*
X86873Y-109365D01*
X86717Y-110551D01*
X86873Y-111737D01*
X87331Y-112843D01*
X88059Y-113792D01*
X89008Y-114520D01*
X90113Y-114978D01*
X91299Y-115134D01*
X92485Y-114978D01*
X93590Y-114520D01*
X94539Y-113792D01*
X95268Y-112843D01*
X95726Y-111737D01*
X95882Y-110551D01*
X95726Y-109365D01*
X95268Y-108260D01*
X94539Y-107311D01*
X93590Y-106583D01*
X92485Y-106125D01*
X91299Y-105969D01*
D02*
G37*
G36*
X8098Y-120158D02*
Y-123122D01*
X11063D01*
X11008Y-122708D01*
X10656Y-121857D01*
X10095Y-121126D01*
X9364Y-120565D01*
X8512Y-120212D01*
X8098Y-120158D01*
D02*
G37*
G36*
X7098D02*
X6685Y-120212D01*
X5833Y-120565D01*
X5102Y-121126D01*
X4541Y-121857D01*
X4188Y-122708D01*
X4134Y-123122D01*
X7098D01*
Y-120158D01*
D02*
G37*
G36*
X131799Y-123110D02*
Y-126075D01*
X134764D01*
X134709Y-125661D01*
X134356Y-124810D01*
X133795Y-124079D01*
X133064Y-123518D01*
X132213Y-123165D01*
X131799Y-123110D01*
D02*
G37*
G36*
X130799D02*
X130385Y-123165D01*
X129534Y-123518D01*
X128803Y-124079D01*
X128242Y-124810D01*
X127889Y-125661D01*
X127835Y-126075D01*
X130799D01*
Y-123110D01*
D02*
G37*
G36*
X11063Y-124122D02*
X8098D01*
Y-127086D01*
X8512Y-127032D01*
X9364Y-126679D01*
X10095Y-126118D01*
X10656Y-125387D01*
X11008Y-124536D01*
X11063Y-124122D01*
D02*
G37*
G36*
X7098D02*
X4134D01*
X4188Y-124536D01*
X4541Y-125387D01*
X5102Y-126118D01*
X5833Y-126679D01*
X6685Y-127032D01*
X7098Y-127086D01*
Y-124122D01*
D02*
G37*
G36*
X134764Y-127075D02*
X131799D01*
Y-130039D01*
X132213Y-129985D01*
X133064Y-129632D01*
X133795Y-129071D01*
X134356Y-128340D01*
X134709Y-127489D01*
X134764Y-127075D01*
D02*
G37*
G36*
X130799D02*
X127835D01*
X127889Y-127489D01*
X128242Y-128340D01*
X128803Y-129071D01*
X129534Y-129632D01*
X130385Y-129985D01*
X130799Y-130039D01*
Y-127075D01*
D02*
G37*
G36*
X198138Y-129213D02*
Y-132177D01*
X201102D01*
X201048Y-131764D01*
X200695Y-130912D01*
X200134Y-130181D01*
X199403Y-129620D01*
X198551Y-129267D01*
X198138Y-129213D01*
D02*
G37*
G36*
X197138D02*
X196724Y-129267D01*
X195873Y-129620D01*
X195142Y-130181D01*
X194581Y-130912D01*
X194228Y-131764D01*
X194173Y-132177D01*
X197138D01*
Y-129213D01*
D02*
G37*
G36*
X201102Y-133177D02*
X198138D01*
Y-136142D01*
X198551Y-136087D01*
X199403Y-135734D01*
X200134Y-135173D01*
X200695Y-134442D01*
X201048Y-133591D01*
X201102Y-133177D01*
D02*
G37*
G36*
X197138D02*
X194173D01*
X194228Y-133591D01*
X194581Y-134442D01*
X195142Y-135173D01*
X195873Y-135734D01*
X196724Y-136087D01*
X197138Y-136142D01*
Y-133177D01*
D02*
G37*
G36*
X236890Y-137808D02*
X235976Y-137929D01*
X235125Y-138281D01*
X234394Y-138842D01*
X234031Y-139315D01*
X191676D01*
X191465Y-139228D01*
X190551Y-139108D01*
X189637Y-139228D01*
X188786Y-139581D01*
X188055Y-140142D01*
X187494Y-140873D01*
X187141Y-141724D01*
X187021Y-142638D01*
X187141Y-143552D01*
X187494Y-144403D01*
X188055Y-145134D01*
X188786Y-145695D01*
X189637Y-146048D01*
X190551Y-146168D01*
X191465Y-146048D01*
X192316Y-145695D01*
X193047Y-145134D01*
X193608Y-144403D01*
X193961Y-143552D01*
X193986Y-143362D01*
X234031D01*
X234394Y-143835D01*
X235125Y-144396D01*
X235976Y-144748D01*
X236890Y-144869D01*
X237804Y-144748D01*
X238655Y-144396D01*
X239386Y-143835D01*
X239947Y-143104D01*
X240300Y-142252D01*
X240420Y-141339D01*
X240300Y-140425D01*
X239947Y-139574D01*
X239386Y-138842D01*
X238655Y-138281D01*
X237804Y-137929D01*
X236890Y-137808D01*
D02*
G37*
G36*
X124803Y-138528D02*
X123890Y-138648D01*
X123038Y-139000D01*
X122307Y-139561D01*
X121944Y-140035D01*
X112076D01*
X111302Y-140189D01*
X110645Y-140627D01*
X93898Y-157374D01*
X93307Y-157297D01*
X92393Y-157417D01*
X91542Y-157770D01*
X90811Y-158331D01*
X90250Y-159062D01*
X89897Y-159913D01*
X89777Y-160827D01*
X89897Y-161741D01*
X90250Y-162592D01*
X90811Y-163323D01*
X91542Y-163884D01*
X92393Y-164237D01*
X93307Y-164357D01*
X94221Y-164237D01*
X95072Y-163884D01*
X95803Y-163323D01*
X96364Y-162592D01*
X96717Y-161741D01*
X96837Y-160827D01*
X96759Y-160236D01*
X112914Y-144081D01*
X121944D01*
X122307Y-144554D01*
X123038Y-145115D01*
X123890Y-145468D01*
X124803Y-145588D01*
X125717Y-145468D01*
X126568Y-145115D01*
X127299Y-144554D01*
X127860Y-143823D01*
X128213Y-142971D01*
X128333Y-142058D01*
X128213Y-141144D01*
X127860Y-140293D01*
X127299Y-139561D01*
X126568Y-139000D01*
X125717Y-138648D01*
X124803Y-138528D01*
D02*
G37*
G36*
X75697Y-144173D02*
Y-147138D01*
X78661D01*
X78607Y-146724D01*
X78254Y-145873D01*
X77693Y-145142D01*
X76962Y-144581D01*
X76111Y-144228D01*
X75697Y-144173D01*
D02*
G37*
G36*
X74697D02*
X74283Y-144228D01*
X73432Y-144581D01*
X72701Y-145142D01*
X72140Y-145873D01*
X71787Y-146724D01*
X71732Y-147138D01*
X74697D01*
Y-144173D01*
D02*
G37*
G36*
X214961Y-148438D02*
X214047Y-148559D01*
X213195Y-148911D01*
X212464Y-149472D01*
X212101Y-149945D01*
X140655D01*
X140292Y-149472D01*
X139560Y-148911D01*
X138709Y-148559D01*
X137795Y-148438D01*
X136882Y-148559D01*
X136030Y-148911D01*
X135299Y-149472D01*
X134738Y-150203D01*
X134385Y-151055D01*
X134265Y-151969D01*
X134385Y-152882D01*
X134738Y-153734D01*
X135073Y-154170D01*
X134826Y-154670D01*
X122938D01*
X122575Y-154197D01*
X121844Y-153636D01*
X120992Y-153283D01*
X120079Y-153163D01*
X119165Y-153283D01*
X118314Y-153636D01*
X117582Y-154197D01*
X117022Y-154928D01*
X116669Y-155779D01*
X116549Y-156693D01*
X116669Y-157607D01*
X117022Y-158458D01*
X117582Y-159189D01*
X118314Y-159750D01*
X119165Y-160103D01*
X120079Y-160223D01*
X120992Y-160103D01*
X121844Y-159750D01*
X122575Y-159189D01*
X122938Y-158716D01*
X147242D01*
X147299Y-158852D01*
X147860Y-159583D01*
X148591Y-160144D01*
X149442Y-160496D01*
X150356Y-160617D01*
X151270Y-160496D01*
X152121Y-160144D01*
X152852Y-159583D01*
X153413Y-158852D01*
X153766Y-158000D01*
X153886Y-157087D01*
X153766Y-156173D01*
X153413Y-155322D01*
X152852Y-154590D01*
X152724Y-154492D01*
X152893Y-153992D01*
X212101D01*
X212464Y-154465D01*
X213195Y-155026D01*
X214047Y-155378D01*
X214961Y-155499D01*
X215874Y-155378D01*
X216726Y-155026D01*
X217457Y-154465D01*
X218018Y-153734D01*
X218371Y-152882D01*
X218491Y-151969D01*
X218371Y-151055D01*
X218018Y-150203D01*
X217457Y-149472D01*
X216726Y-148911D01*
X215874Y-148559D01*
X214961Y-148438D01*
D02*
G37*
G36*
X78661Y-148138D02*
X75697D01*
Y-151102D01*
X76111Y-151048D01*
X76962Y-150695D01*
X77693Y-150134D01*
X78254Y-149403D01*
X78607Y-148551D01*
X78661Y-148138D01*
D02*
G37*
G36*
X74697D02*
X71732D01*
X71787Y-148551D01*
X72140Y-149403D01*
X72701Y-150134D01*
X73432Y-150695D01*
X74283Y-151048D01*
X74697Y-151102D01*
Y-148138D01*
D02*
G37*
G36*
X8098Y-150866D02*
Y-153831D01*
X11063D01*
X11008Y-153417D01*
X10656Y-152566D01*
X10095Y-151835D01*
X9364Y-151274D01*
X8512Y-150921D01*
X8098Y-150866D01*
D02*
G37*
G36*
X7098D02*
X6685Y-150921D01*
X5833Y-151274D01*
X5102Y-151835D01*
X4541Y-152566D01*
X4188Y-153417D01*
X4134Y-153831D01*
X7098D01*
Y-150866D01*
D02*
G37*
G36*
X11063Y-154831D02*
X8098D01*
Y-157795D01*
X8512Y-157741D01*
X9364Y-157388D01*
X10095Y-156827D01*
X10656Y-156096D01*
X11008Y-155245D01*
X11063Y-154831D01*
D02*
G37*
G36*
X7098D02*
X4134D01*
X4188Y-155245D01*
X4541Y-156096D01*
X5102Y-156827D01*
X5833Y-157388D01*
X6685Y-157741D01*
X7098Y-157795D01*
Y-154831D01*
D02*
G37*
G36*
X153543Y-162218D02*
X152630Y-162338D01*
X151778Y-162691D01*
X151047Y-163252D01*
X150684Y-163725D01*
X119001D01*
X118638Y-163252D01*
X117907Y-162691D01*
X117055Y-162338D01*
X116142Y-162218D01*
X115228Y-162338D01*
X114377Y-162691D01*
X113646Y-163252D01*
X113084Y-163983D01*
X112732Y-164834D01*
X112611Y-165748D01*
X112732Y-166662D01*
X113084Y-167513D01*
X113646Y-168244D01*
X114377Y-168805D01*
X115228Y-169158D01*
X116142Y-169278D01*
X117055Y-169158D01*
X117907Y-168805D01*
X118638Y-168244D01*
X119001Y-167771D01*
X150684D01*
X151047Y-168244D01*
X151778Y-168805D01*
X152630Y-169158D01*
X153543Y-169278D01*
X154457Y-169158D01*
X155308Y-168805D01*
X156040Y-168244D01*
X156600Y-167513D01*
X156953Y-166662D01*
X157073Y-165748D01*
X156953Y-164834D01*
X156600Y-163983D01*
X156040Y-163252D01*
X155308Y-162691D01*
X154457Y-162338D01*
X153543Y-162218D01*
D02*
G37*
G36*
X160236Y-168911D02*
X159323Y-169031D01*
X158471Y-169384D01*
X157740Y-169945D01*
X157377Y-170418D01*
X108765D01*
X108402Y-169945D01*
X107671Y-169384D01*
X106819Y-169031D01*
X105906Y-168911D01*
X104992Y-169031D01*
X104140Y-169384D01*
X103409Y-169945D01*
X102848Y-170676D01*
X102496Y-171527D01*
X102375Y-172441D01*
X102496Y-173355D01*
X102848Y-174206D01*
X103409Y-174937D01*
X104140Y-175498D01*
X104992Y-175851D01*
X105906Y-175971D01*
X106819Y-175851D01*
X107671Y-175498D01*
X108402Y-174937D01*
X108765Y-174464D01*
X157377D01*
X157740Y-174937D01*
X158471Y-175498D01*
X159323Y-175851D01*
X160236Y-175971D01*
X161150Y-175851D01*
X161483Y-175713D01*
X161519Y-175724D01*
X161916Y-176075D01*
X161824Y-176772D01*
X161902Y-177363D01*
X160973Y-178292D01*
X104158D01*
X103795Y-177819D01*
X103064Y-177258D01*
X102213Y-176905D01*
X101299Y-176785D01*
X100385Y-176905D01*
X99534Y-177258D01*
X98803Y-177819D01*
X98242Y-178550D01*
X97889Y-179401D01*
X97769Y-180315D01*
X97889Y-181229D01*
X98242Y-182080D01*
X98803Y-182811D01*
X99534Y-183372D01*
X100385Y-183725D01*
X101299Y-183845D01*
X102213Y-183725D01*
X103064Y-183372D01*
X103795Y-182811D01*
X104158Y-182338D01*
X161811D01*
X162585Y-182184D01*
X163242Y-181746D01*
X164763Y-180224D01*
X165354Y-180302D01*
X166268Y-180182D01*
X167120Y-179829D01*
X167851Y-179268D01*
X168412Y-178537D01*
X168764Y-177685D01*
X168885Y-176772D01*
X168764Y-175858D01*
X168412Y-175006D01*
X167851Y-174275D01*
X167120Y-173714D01*
X166268Y-173362D01*
X165354Y-173241D01*
X164441Y-173362D01*
X164108Y-173500D01*
X164072Y-173488D01*
X163675Y-173138D01*
X163766Y-172441D01*
X163646Y-171527D01*
X163293Y-170676D01*
X162732Y-169945D01*
X162001Y-169384D01*
X161150Y-169031D01*
X160236Y-168911D01*
D02*
G37*
G36*
X187008Y-170092D02*
X186094Y-170212D01*
X185243Y-170565D01*
X184512Y-171126D01*
X183951Y-171857D01*
X183598Y-172708D01*
X183478Y-173622D01*
X183572Y-174336D01*
X183203Y-174674D01*
X183136Y-174697D01*
X182764Y-174543D01*
X181850Y-174423D01*
X180936Y-174543D01*
X180085Y-174896D01*
X179354Y-175457D01*
X178793Y-176188D01*
X178440Y-177039D01*
X178320Y-177953D01*
X178440Y-178867D01*
X178793Y-179718D01*
X179354Y-180449D01*
X180085Y-181010D01*
X180936Y-181363D01*
X181850Y-181483D01*
X182764Y-181363D01*
X183615Y-181010D01*
X184346Y-180449D01*
X184407Y-180369D01*
X196747D01*
X197110Y-180843D01*
X197841Y-181404D01*
X198693Y-181756D01*
X199606Y-181877D01*
X200520Y-181756D01*
X201372Y-181404D01*
X202103Y-180843D01*
X202466Y-180369D01*
X248230D01*
X248291Y-180449D01*
X249022Y-181010D01*
X249874Y-181363D01*
X250787Y-181483D01*
X251701Y-181363D01*
X252553Y-181010D01*
X253284Y-180449D01*
X253451Y-180231D01*
X253530Y-180216D01*
X254186Y-179777D01*
X254186Y-179777D01*
X254625Y-179121D01*
X254779Y-178346D01*
X254625Y-177572D01*
X254198Y-176933D01*
X254232Y-176754D01*
X254271Y-176619D01*
X254395Y-176433D01*
X257771D01*
X258134Y-176906D01*
X258865Y-177467D01*
X259716Y-177819D01*
X260630Y-177940D01*
X261544Y-177819D01*
X262395Y-177467D01*
X263126Y-176906D01*
X263687Y-176174D01*
X264040Y-175323D01*
X264160Y-174409D01*
X264040Y-173496D01*
X263687Y-172644D01*
X263126Y-171913D01*
X262395Y-171352D01*
X261544Y-171000D01*
X260630Y-170879D01*
X259716Y-171000D01*
X258865Y-171352D01*
X258134Y-171913D01*
X257771Y-172386D01*
X254424D01*
X254075Y-172038D01*
X253419Y-171599D01*
X252645Y-171445D01*
X248930D01*
X248156Y-171599D01*
X247862Y-171796D01*
X190018D01*
X189504Y-171126D01*
X188773Y-170565D01*
X187922Y-170212D01*
X187008Y-170092D01*
D02*
G37*
G36*
X170669Y-183478D02*
X169756Y-183598D01*
X168904Y-183951D01*
X168173Y-184512D01*
X167810Y-184985D01*
X114158D01*
X113795Y-184512D01*
X113064Y-183951D01*
X112213Y-183598D01*
X111299Y-183478D01*
X110386Y-183598D01*
X109534Y-183951D01*
X108803Y-184512D01*
X108242Y-185243D01*
X107889Y-186094D01*
X107769Y-187008D01*
X107889Y-187922D01*
X108242Y-188773D01*
X108803Y-189504D01*
X109534Y-190065D01*
X110386Y-190418D01*
X111299Y-190538D01*
X112213Y-190418D01*
X113064Y-190065D01*
X113795Y-189504D01*
X114158Y-189031D01*
X167810D01*
X168173Y-189504D01*
X168904Y-190065D01*
X169756Y-190418D01*
X170669Y-190538D01*
X171583Y-190418D01*
X172434Y-190065D01*
X173166Y-189504D01*
X173727Y-188773D01*
X174079Y-187922D01*
X174200Y-187008D01*
X174079Y-186094D01*
X173727Y-185243D01*
X173166Y-184512D01*
X172434Y-183951D01*
X171583Y-183598D01*
X170669Y-183478D01*
D02*
G37*
G36*
X193307Y-183871D02*
X192393Y-183992D01*
X191542Y-184344D01*
X190811Y-184905D01*
X190250Y-185636D01*
X189897Y-186488D01*
X189777Y-187402D01*
X189897Y-188315D01*
X190250Y-189167D01*
X190811Y-189898D01*
X191542Y-190459D01*
X192393Y-190812D01*
X193307Y-190932D01*
X194221Y-190812D01*
X195072Y-190459D01*
X195803Y-189898D01*
X196166Y-189425D01*
X252791D01*
X252847Y-189560D01*
X253408Y-190292D01*
X254139Y-190852D01*
X254991Y-191205D01*
X255905Y-191325D01*
X256818Y-191205D01*
X257670Y-190852D01*
X258401Y-190292D01*
X258962Y-189560D01*
X259314Y-188709D01*
X259435Y-187795D01*
X259431Y-187766D01*
X259503Y-187402D01*
X259349Y-186627D01*
X258980Y-186075D01*
X258962Y-186030D01*
X258401Y-185299D01*
X257670Y-184738D01*
X256818Y-184385D01*
X255905Y-184265D01*
X254991Y-184385D01*
X254139Y-184738D01*
X253408Y-185299D01*
X253347Y-185379D01*
X196166D01*
X195803Y-184905D01*
X195072Y-184344D01*
X194221Y-183992D01*
X193307Y-183871D01*
D02*
G37*
G36*
X149849Y-208675D02*
X148936Y-208795D01*
X148084Y-209148D01*
X147353Y-209708D01*
X146792Y-210440D01*
X146439Y-211291D01*
X146430Y-211363D01*
X106009D01*
X105646Y-210890D01*
X104915Y-210329D01*
X104063Y-209976D01*
X103150Y-209856D01*
X102236Y-209976D01*
X101384Y-210329D01*
X100653Y-210890D01*
X100592Y-210969D01*
X63928D01*
X63154Y-211123D01*
X62498Y-211562D01*
X33956Y-240103D01*
X29631D01*
X29268Y-239630D01*
X28537Y-239069D01*
X27685Y-238716D01*
X26772Y-238596D01*
X25858Y-238716D01*
X25006Y-239069D01*
X24275Y-239630D01*
X23714Y-240361D01*
X23362Y-241212D01*
X23242Y-242126D01*
X23362Y-243040D01*
X23714Y-243891D01*
X24275Y-244622D01*
X25006Y-245183D01*
X25858Y-245536D01*
X26772Y-245656D01*
X27685Y-245536D01*
X28537Y-245183D01*
X29268Y-244622D01*
X29631Y-244149D01*
X34794D01*
X35568Y-243995D01*
X36225Y-243556D01*
X64766Y-215015D01*
X100036D01*
X100092Y-215151D01*
X100653Y-215882D01*
X101384Y-216443D01*
X102236Y-216796D01*
X103150Y-216916D01*
X104063Y-216796D01*
X104915Y-216443D01*
X105646Y-215882D01*
X106009Y-215409D01*
X148439D01*
X148936Y-215615D01*
X149849Y-215735D01*
X150763Y-215615D01*
X151471Y-215321D01*
X151805Y-215255D01*
X152461Y-214816D01*
X152900Y-214160D01*
X152966Y-213827D01*
X153259Y-213118D01*
X153379Y-212205D01*
X153259Y-211291D01*
X152907Y-210440D01*
X152346Y-209708D01*
X151614Y-209148D01*
X150763Y-208795D01*
X149849Y-208675D01*
D02*
G37*
G36*
X155000Y-215761D02*
X154086Y-215881D01*
X153235Y-216234D01*
X152504Y-216795D01*
X151943Y-217526D01*
X151887Y-217662D01*
X94591D01*
X94229Y-217189D01*
X93497Y-216628D01*
X92646Y-216275D01*
X91732Y-216155D01*
X90819Y-216275D01*
X89967Y-216628D01*
X89236Y-217189D01*
X88873Y-217662D01*
X68110D01*
X67336Y-217816D01*
X66680Y-218254D01*
X54135Y-230800D01*
X53543Y-230722D01*
X52630Y-230842D01*
X51778Y-231195D01*
X51047Y-231756D01*
X50486Y-232487D01*
X50133Y-233338D01*
X50013Y-234252D01*
X50133Y-235166D01*
X50486Y-236017D01*
X51047Y-236748D01*
X51778Y-237309D01*
X52630Y-237662D01*
X53543Y-237782D01*
X54457Y-237662D01*
X55308Y-237309D01*
X56040Y-236748D01*
X56600Y-236017D01*
X56953Y-235166D01*
X57073Y-234252D01*
X56996Y-233661D01*
X68948Y-221708D01*
X88873D01*
X89236Y-222181D01*
X89967Y-222742D01*
X90819Y-223095D01*
X91732Y-223215D01*
X92646Y-223095D01*
X93497Y-222742D01*
X94229Y-222181D01*
X94591Y-221708D01*
X152443D01*
X152504Y-221788D01*
X153235Y-222349D01*
X154086Y-222701D01*
X155000Y-222821D01*
X155914Y-222701D01*
X156765Y-222349D01*
X157496Y-221788D01*
X158057Y-221056D01*
X158410Y-220205D01*
X158530Y-219291D01*
X158410Y-218378D01*
X158057Y-217526D01*
X157496Y-216795D01*
X156765Y-216234D01*
X155914Y-215881D01*
X155000Y-215761D01*
D02*
G37*
G36*
X160343Y-233937D02*
Y-236902D01*
X163307D01*
X163252Y-236488D01*
X162900Y-235636D01*
X162339Y-234905D01*
X161608Y-234344D01*
X160756Y-233992D01*
X160343Y-233937D01*
D02*
G37*
G36*
X159343D02*
X158929Y-233992D01*
X158077Y-234344D01*
X157346Y-234905D01*
X156785Y-235636D01*
X156433Y-236488D01*
X156378Y-236902D01*
X159343D01*
Y-233937D01*
D02*
G37*
G36*
X163307Y-237902D02*
X160343D01*
Y-240866D01*
X160756Y-240811D01*
X161608Y-240459D01*
X162339Y-239898D01*
X162900Y-239167D01*
X163252Y-238315D01*
X163307Y-237902D01*
D02*
G37*
G36*
X159343D02*
X156378D01*
X156433Y-238315D01*
X156785Y-239167D01*
X157346Y-239898D01*
X158077Y-240459D01*
X158929Y-240811D01*
X159343Y-240866D01*
Y-237902D01*
D02*
G37*
G36*
X45000Y-238989D02*
X44086Y-239110D01*
X43235Y-239462D01*
X42504Y-240023D01*
X41943Y-240755D01*
X41590Y-241606D01*
X41470Y-242520D01*
X41590Y-243433D01*
X41943Y-244285D01*
X42504Y-245016D01*
X43235Y-245577D01*
X44086Y-245930D01*
X45000Y-246050D01*
X45914Y-245930D01*
X46765Y-245577D01*
X47496Y-245016D01*
X47558Y-244936D01*
X88085D01*
X88449Y-245409D01*
X89180Y-245970D01*
X89531Y-246116D01*
X89431Y-246616D01*
X82621D01*
X82021Y-246155D01*
X81170Y-245803D01*
X80256Y-245682D01*
X79342Y-245803D01*
X78491Y-246155D01*
X77760Y-246716D01*
X77199Y-247447D01*
X76846Y-248299D01*
X76726Y-249213D01*
X76846Y-250126D01*
X77199Y-250978D01*
X77760Y-251709D01*
X78491Y-252270D01*
X79342Y-252623D01*
X80256Y-252743D01*
X81170Y-252623D01*
X82021Y-252270D01*
X82621Y-251810D01*
X135037D01*
X135636Y-252270D01*
X136488Y-252623D01*
X137402Y-252743D01*
X138315Y-252623D01*
X139167Y-252270D01*
X139898Y-251709D01*
X140459Y-250978D01*
X140812Y-250126D01*
X140932Y-249213D01*
X140812Y-248299D01*
X140459Y-247447D01*
X139898Y-246716D01*
X139167Y-246155D01*
X138315Y-245803D01*
X137402Y-245682D01*
X136488Y-245803D01*
X135636Y-246155D01*
X135037Y-246616D01*
X92458D01*
X92359Y-246116D01*
X92710Y-245970D01*
X93441Y-245409D01*
X94002Y-244678D01*
X94355Y-243827D01*
X94475Y-242913D01*
X94355Y-241999D01*
X94002Y-241148D01*
X93441Y-240417D01*
X92710Y-239856D01*
X91858Y-239503D01*
X90945Y-239383D01*
X90031Y-239503D01*
X89180Y-239856D01*
X88449Y-240417D01*
X88085Y-240890D01*
X48113D01*
X48057Y-240755D01*
X47496Y-240023D01*
X46765Y-239462D01*
X45914Y-239110D01*
X45000Y-238989D01*
D02*
G37*
G36*
X64142Y-253472D02*
Y-256941D01*
X67611D01*
X67539Y-256397D01*
X67136Y-255424D01*
X66495Y-254588D01*
X65659Y-253947D01*
X64686Y-253544D01*
X64142Y-253472D01*
D02*
G37*
G36*
X63142D02*
X62598Y-253544D01*
X61624Y-253947D01*
X60789Y-254588D01*
X60148Y-255424D01*
X59745Y-256397D01*
X59673Y-256941D01*
X63142D01*
Y-253472D01*
D02*
G37*
G36*
X67611Y-257941D02*
X64142D01*
Y-261410D01*
X64686Y-261338D01*
X65659Y-260935D01*
X66495Y-260294D01*
X67136Y-259458D01*
X67539Y-258485D01*
X67611Y-257941D01*
D02*
G37*
G36*
X63142D02*
X59673D01*
X59745Y-258485D01*
X60148Y-259458D01*
X60789Y-260294D01*
X61624Y-260935D01*
X62598Y-261338D01*
X63142Y-261410D01*
Y-257941D01*
D02*
G37*
G36*
X53642Y-253407D02*
X52598Y-253544D01*
X51625Y-253947D01*
X50789Y-254588D01*
X50148Y-255424D01*
X49745Y-256397D01*
X49607Y-257441D01*
X49745Y-258485D01*
X50148Y-259458D01*
X50789Y-260294D01*
X51625Y-260935D01*
X52598Y-261338D01*
X53642Y-261475D01*
X54686Y-261338D01*
X55659Y-260935D01*
X56495Y-260294D01*
X57136Y-259458D01*
X57539Y-258485D01*
X57676Y-257441D01*
X57539Y-256397D01*
X57136Y-255424D01*
X56495Y-254588D01*
X55659Y-253947D01*
X54686Y-253544D01*
X53642Y-253407D01*
D02*
G37*
G36*
X43642D02*
X42598Y-253544D01*
X41625Y-253947D01*
X40789Y-254588D01*
X40148Y-255424D01*
X39745Y-256397D01*
X39607Y-257441D01*
X39745Y-258485D01*
X40148Y-259458D01*
X40789Y-260294D01*
X41625Y-260935D01*
X42598Y-261338D01*
X43642Y-261475D01*
X44686Y-261338D01*
X45659Y-260935D01*
X46495Y-260294D01*
X47136Y-259458D01*
X47539Y-258485D01*
X47676Y-257441D01*
X47539Y-256397D01*
X47136Y-255424D01*
X46495Y-254588D01*
X45659Y-253947D01*
X44686Y-253544D01*
X43642Y-253407D01*
D02*
G37*
G36*
X227756Y-230328D02*
X226842Y-230448D01*
X225991Y-230801D01*
X225260Y-231362D01*
X224699Y-232093D01*
X224346Y-232945D01*
X224226Y-233858D01*
X224346Y-234772D01*
X224699Y-235623D01*
X225260Y-236354D01*
X225991Y-236915D01*
X226842Y-237268D01*
X227756Y-237388D01*
X228347Y-237311D01*
X233804Y-242767D01*
Y-269453D01*
X233331Y-269559D01*
X232979Y-268707D01*
X232417Y-267976D01*
X231686Y-267415D01*
X230835Y-267062D01*
X229921Y-266942D01*
X229008Y-267062D01*
X228156Y-267415D01*
X227425Y-267976D01*
X226864Y-268707D01*
X226511Y-269559D01*
X226391Y-270472D01*
X226469Y-271064D01*
X213335Y-284197D01*
X102072D01*
X101709Y-283724D01*
X100978Y-283163D01*
X100126Y-282811D01*
X99213Y-282690D01*
X98299Y-282811D01*
X97448Y-283163D01*
X96716Y-283724D01*
X96155Y-284455D01*
X95803Y-285307D01*
X95682Y-286221D01*
X95803Y-287134D01*
X96155Y-287986D01*
X96716Y-288717D01*
X97448Y-289278D01*
X98299Y-289630D01*
X99213Y-289751D01*
X100126Y-289630D01*
X100978Y-289278D01*
X101709Y-288717D01*
X102072Y-288244D01*
X214173D01*
X214947Y-288090D01*
X215604Y-287651D01*
X229330Y-273925D01*
X229921Y-274003D01*
X230835Y-273882D01*
X231686Y-273530D01*
X232417Y-272969D01*
X232979Y-272237D01*
X233331Y-271386D01*
X233804Y-271492D01*
Y-298371D01*
X151929D01*
X151155Y-298525D01*
X150498Y-298963D01*
X141049Y-308412D01*
X140611Y-309068D01*
X140457Y-309842D01*
Y-316787D01*
X140189Y-316898D01*
X139240Y-317626D01*
X138511Y-318575D01*
X138054Y-319680D01*
X137898Y-320866D01*
X138054Y-322052D01*
X138511Y-323158D01*
X139240Y-324107D01*
X140189Y-324835D01*
X141294Y-325293D01*
X142480Y-325449D01*
X143666Y-325293D01*
X144771Y-324835D01*
X145720Y-324107D01*
X146449Y-323158D01*
X146906Y-322052D01*
X147063Y-320866D01*
X146906Y-319680D01*
X146449Y-318575D01*
X145720Y-317626D01*
X144771Y-316898D01*
X144503Y-316787D01*
Y-310681D01*
X152767Y-302417D01*
X184620D01*
X184811Y-302879D01*
X180853Y-306837D01*
X180414Y-307493D01*
X180260Y-308268D01*
Y-316410D01*
X179559Y-316701D01*
X178610Y-317429D01*
X177881Y-318378D01*
X177424Y-319484D01*
X177268Y-320670D01*
X177424Y-321856D01*
X177881Y-322961D01*
X178610Y-323910D01*
X179559Y-324638D01*
X180664Y-325096D01*
X181850Y-325252D01*
X183036Y-325096D01*
X184141Y-324638D01*
X185090Y-323910D01*
X185819Y-322961D01*
X186276Y-321856D01*
X186433Y-320670D01*
X186276Y-319484D01*
X185819Y-318378D01*
X185090Y-317429D01*
X184307Y-316828D01*
Y-309106D01*
X190996Y-302417D01*
X235827D01*
X236030Y-302376D01*
X239415Y-305761D01*
X240071Y-306200D01*
X240845Y-306354D01*
X246406D01*
X248371Y-308318D01*
Y-325934D01*
X245697Y-328607D01*
X240969D01*
X240858Y-328339D01*
X240130Y-327390D01*
X239181Y-326661D01*
X238076Y-326204D01*
X236890Y-326047D01*
X235704Y-326204D01*
X234598Y-326661D01*
X233649Y-327390D01*
X232921Y-328339D01*
X232463Y-329444D01*
X232307Y-330630D01*
X232463Y-331816D01*
X232921Y-332921D01*
X233649Y-333870D01*
X234598Y-334599D01*
X235704Y-335056D01*
X236890Y-335212D01*
X238076Y-335056D01*
X239181Y-334599D01*
X240130Y-333870D01*
X240858Y-332921D01*
X240969Y-332653D01*
X246535D01*
X247310Y-332499D01*
X247966Y-332061D01*
X251824Y-328202D01*
X252263Y-327546D01*
X252417Y-326772D01*
Y-307480D01*
X252263Y-306706D01*
X251824Y-306050D01*
X248675Y-302900D01*
X248018Y-302462D01*
X247244Y-302308D01*
X241684D01*
X237850Y-298474D01*
Y-241929D01*
X237696Y-241155D01*
X237257Y-240498D01*
X231208Y-234450D01*
X231286Y-233858D01*
X231166Y-232945D01*
X230813Y-232093D01*
X230252Y-231362D01*
X229521Y-230801D01*
X228670Y-230448D01*
X227756Y-230328D01*
D02*
G37*
G36*
X178256Y-267795D02*
Y-270760D01*
X181220D01*
X181166Y-270346D01*
X180813Y-269495D01*
X180252Y-268764D01*
X179521Y-268203D01*
X178670Y-267850D01*
X178256Y-267795D01*
D02*
G37*
G36*
X177256D02*
X176842Y-267850D01*
X175991Y-268203D01*
X175260Y-268764D01*
X174699Y-269495D01*
X174346Y-270346D01*
X174291Y-270760D01*
X177256D01*
Y-267795D01*
D02*
G37*
G36*
X58642Y-263406D02*
X57598Y-263544D01*
X56625Y-263947D01*
X55789Y-264588D01*
X55148Y-265424D01*
X54745Y-266397D01*
X54607Y-267441D01*
X54745Y-268485D01*
X55148Y-269458D01*
X55789Y-270294D01*
X56625Y-270935D01*
X57598Y-271338D01*
X58642Y-271476D01*
X59686Y-271338D01*
X60659Y-270935D01*
X61495Y-270294D01*
X62136Y-269458D01*
X62539Y-268485D01*
X62676Y-267441D01*
X62539Y-266397D01*
X62136Y-265424D01*
X61495Y-264588D01*
X60659Y-263947D01*
X59686Y-263544D01*
X58642Y-263406D01*
D02*
G37*
G36*
X48642D02*
X47598Y-263544D01*
X46624Y-263947D01*
X45789Y-264588D01*
X45148Y-265424D01*
X44745Y-266397D01*
X44607Y-267441D01*
X44745Y-268485D01*
X45148Y-269458D01*
X45789Y-270294D01*
X46624Y-270935D01*
X47598Y-271338D01*
X48642Y-271476D01*
X49686Y-271338D01*
X50659Y-270935D01*
X51495Y-270294D01*
X52136Y-269458D01*
X52539Y-268485D01*
X52676Y-267441D01*
X52539Y-266397D01*
X52136Y-265424D01*
X51495Y-264588D01*
X50659Y-263947D01*
X49686Y-263544D01*
X48642Y-263406D01*
D02*
G37*
G36*
X38642D02*
X37598Y-263544D01*
X36625Y-263947D01*
X35789Y-264588D01*
X35148Y-265424D01*
X34745Y-266397D01*
X34607Y-267441D01*
X34745Y-268485D01*
X35148Y-269458D01*
X35789Y-270294D01*
X36625Y-270935D01*
X37598Y-271338D01*
X38642Y-271476D01*
X39686Y-271338D01*
X40659Y-270935D01*
X41495Y-270294D01*
X42136Y-269458D01*
X42539Y-268485D01*
X42676Y-267441D01*
X42539Y-266397D01*
X42136Y-265424D01*
X41495Y-264588D01*
X40659Y-263947D01*
X39686Y-263544D01*
X38642Y-263406D01*
D02*
G37*
G36*
X68276Y-246796D02*
X37268D01*
X36494Y-246950D01*
X35838Y-247388D01*
X32211Y-251015D01*
X31773Y-251671D01*
X31619Y-252445D01*
Y-253952D01*
X30789Y-254588D01*
X30148Y-255424D01*
X29745Y-256397D01*
X29607Y-257441D01*
X29745Y-258485D01*
X30148Y-259458D01*
X30789Y-260294D01*
X31624Y-260935D01*
X32598Y-261338D01*
X33642Y-261475D01*
X34686Y-261338D01*
X35659Y-260935D01*
X36495Y-260294D01*
X37136Y-259458D01*
X37539Y-258485D01*
X37676Y-257441D01*
X37539Y-256397D01*
X37136Y-255424D01*
X36495Y-254588D01*
X35665Y-253952D01*
Y-253283D01*
X38106Y-250842D01*
X67438D01*
X86312Y-269716D01*
X86968Y-270155D01*
X87743Y-270309D01*
X88272D01*
X88803Y-271000D01*
X89444Y-271493D01*
X89382Y-271855D01*
X89312Y-271993D01*
X86665D01*
X82139Y-267467D01*
X81483Y-267028D01*
X80709Y-266875D01*
X71599D01*
X70824Y-267028D01*
X70168Y-267467D01*
X62696Y-274939D01*
X31343D01*
X30665Y-274260D01*
Y-270931D01*
X31495Y-270294D01*
X32136Y-269458D01*
X32539Y-268485D01*
X32676Y-267441D01*
X32539Y-266397D01*
X32136Y-265424D01*
X31495Y-264588D01*
X30659Y-263947D01*
X29686Y-263544D01*
X28642Y-263406D01*
X27598Y-263544D01*
X26625Y-263947D01*
X25789Y-264588D01*
X25148Y-265424D01*
X24745Y-266397D01*
X24607Y-267441D01*
X24745Y-268485D01*
X25148Y-269458D01*
X25789Y-270294D01*
X26619Y-270931D01*
Y-275098D01*
X26773Y-275873D01*
X27211Y-276529D01*
X29075Y-278393D01*
X29731Y-278831D01*
X30505Y-278985D01*
X63534D01*
X64309Y-278831D01*
X64965Y-278393D01*
X72437Y-270921D01*
X79871D01*
X84396Y-275446D01*
X85053Y-275885D01*
X85827Y-276039D01*
X99897D01*
X100260Y-276512D01*
X100991Y-277073D01*
X101842Y-277426D01*
X102756Y-277546D01*
X103670Y-277426D01*
X104521Y-277073D01*
X105252Y-276512D01*
X105615Y-276039D01*
X114729D01*
X114834Y-276511D01*
X113983Y-276864D01*
X113252Y-277425D01*
X112691Y-278156D01*
X112338Y-279008D01*
X112218Y-279921D01*
X112338Y-280835D01*
X112691Y-281686D01*
X113252Y-282417D01*
X113983Y-282979D01*
X114834Y-283331D01*
X115748Y-283452D01*
X116662Y-283331D01*
X117513Y-282979D01*
X118244Y-282417D01*
X118607Y-281944D01*
X210630D01*
X211404Y-281790D01*
X212060Y-281352D01*
X220275Y-273137D01*
X220866Y-273215D01*
X221780Y-273095D01*
X222631Y-272742D01*
X223362Y-272181D01*
X223923Y-271450D01*
X224276Y-270599D01*
X224396Y-269685D01*
X224276Y-268771D01*
X223923Y-267920D01*
X223362Y-267189D01*
X222631Y-266628D01*
X221780Y-266275D01*
X220866Y-266155D01*
X219953Y-266275D01*
X219101Y-266628D01*
X218370Y-267189D01*
X217809Y-267920D01*
X217456Y-268771D01*
X217336Y-269685D01*
X217414Y-270276D01*
X209792Y-277898D01*
X157969D01*
X157723Y-277398D01*
X158057Y-276962D01*
X158410Y-276111D01*
X158530Y-275197D01*
X158410Y-274283D01*
X158057Y-273432D01*
X157496Y-272701D01*
X156765Y-272140D01*
X155914Y-271787D01*
X155000Y-271667D01*
X154086Y-271787D01*
X153235Y-272140D01*
X152504Y-272701D01*
X151943Y-273432D01*
X151590Y-274283D01*
X151509Y-274902D01*
X148758D01*
X148537Y-274454D01*
X148726Y-274206D01*
X149079Y-273355D01*
X149199Y-272441D01*
X149079Y-271527D01*
X148726Y-270676D01*
X148166Y-269945D01*
X147434Y-269384D01*
X146583Y-269031D01*
X145669Y-268911D01*
X144756Y-269031D01*
X143904Y-269384D01*
X143173Y-269945D01*
X142810Y-270418D01*
X128698D01*
X125053Y-266772D01*
X124396Y-266334D01*
X123622Y-266179D01*
X93927D01*
X93795Y-266008D01*
X93064Y-265447D01*
X92212Y-265094D01*
X91299Y-264974D01*
X90385Y-265094D01*
X89534Y-265447D01*
X88803Y-266008D01*
X88239Y-265921D01*
X69706Y-247388D01*
X69050Y-246950D01*
X68276Y-246796D01*
D02*
G37*
G36*
X164279Y-269764D02*
Y-272728D01*
X167244D01*
X167189Y-272315D01*
X166837Y-271463D01*
X166276Y-270732D01*
X165545Y-270171D01*
X164693Y-269818D01*
X164279Y-269764D01*
D02*
G37*
G36*
X163279D02*
X162866Y-269818D01*
X162014Y-270171D01*
X161283Y-270732D01*
X160722Y-271463D01*
X160370Y-272315D01*
X160315Y-272728D01*
X163279D01*
Y-269764D01*
D02*
G37*
G36*
X181220Y-271760D02*
X178256D01*
Y-274724D01*
X178670Y-274670D01*
X179521Y-274317D01*
X180252Y-273756D01*
X180813Y-273025D01*
X181166Y-272174D01*
X181220Y-271760D01*
D02*
G37*
G36*
X177256D02*
X174291D01*
X174346Y-272174D01*
X174699Y-273025D01*
X175260Y-273756D01*
X175991Y-274317D01*
X176842Y-274670D01*
X177256Y-274724D01*
Y-271760D01*
D02*
G37*
G36*
X167244Y-273728D02*
X164279D01*
Y-276693D01*
X164693Y-276638D01*
X165545Y-276286D01*
X166276Y-275725D01*
X166837Y-274993D01*
X167189Y-274142D01*
X167244Y-273728D01*
D02*
G37*
G36*
X163279D02*
X160315D01*
X160370Y-274142D01*
X160722Y-274993D01*
X161283Y-275725D01*
X162014Y-276286D01*
X162866Y-276638D01*
X163279Y-276693D01*
Y-273728D01*
D02*
G37*
G36*
X16169Y-275122D02*
Y-279933D01*
X20980D01*
X20863Y-279042D01*
X20326Y-277745D01*
X19471Y-276631D01*
X18358Y-275777D01*
X17061Y-275240D01*
X16169Y-275122D01*
D02*
G37*
G36*
X77272D02*
Y-279933D01*
X82083D01*
X81965Y-279042D01*
X81428Y-277745D01*
X80574Y-276631D01*
X79460Y-275777D01*
X78163Y-275240D01*
X77272Y-275122D01*
D02*
G37*
G36*
X15169D02*
X14278Y-275240D01*
X12981Y-275777D01*
X11868Y-276631D01*
X11013Y-277745D01*
X10476Y-279042D01*
X10358Y-279933D01*
X15169D01*
Y-275122D01*
D02*
G37*
G36*
X76272D02*
X75380Y-275240D01*
X74083Y-275777D01*
X72970Y-276631D01*
X72115Y-277745D01*
X71578Y-279042D01*
X71461Y-279933D01*
X76272D01*
Y-275122D01*
D02*
G37*
G36*
Y-280933D02*
X71461D01*
X71578Y-281825D01*
X72115Y-283122D01*
X72813Y-284031D01*
X72482Y-284421D01*
X72074Y-284203D01*
X70401Y-283695D01*
X69162Y-283573D01*
Y-291941D01*
X77529D01*
X77407Y-290701D01*
X76900Y-289029D01*
X76076Y-287487D01*
X74967Y-286136D01*
X74625Y-285855D01*
X74884Y-285421D01*
X75380Y-285627D01*
X76272Y-285744D01*
Y-280933D01*
D02*
G37*
G36*
X82083D02*
X77272D01*
Y-285744D01*
X78163Y-285627D01*
X79460Y-285090D01*
X80574Y-284235D01*
X81428Y-283122D01*
X81965Y-281825D01*
X82083Y-280933D01*
D02*
G37*
G36*
X15169D02*
X10358D01*
X10476Y-281825D01*
X11013Y-283122D01*
X11868Y-284235D01*
X12981Y-285090D01*
X14278Y-285627D01*
X15169Y-285744D01*
Y-280933D01*
D02*
G37*
G36*
X24162Y-283573D02*
Y-291941D01*
X32529D01*
X32407Y-290701D01*
X31900Y-289029D01*
X31076Y-287487D01*
X29967Y-286136D01*
X28616Y-285027D01*
X27074Y-284203D01*
X25401Y-283695D01*
X24162Y-283573D01*
D02*
G37*
G36*
X68162D02*
X66922Y-283695D01*
X65249Y-284203D01*
X63708Y-285027D01*
X62356Y-286136D01*
X61247Y-287487D01*
X60423Y-289029D01*
X59916Y-290701D01*
X59794Y-291941D01*
X68162D01*
Y-283573D01*
D02*
G37*
G36*
X20980Y-280933D02*
X16169D01*
Y-285744D01*
X17061Y-285627D01*
X17318Y-285520D01*
X17578Y-285954D01*
X17356Y-286136D01*
X16247Y-287487D01*
X15423Y-289029D01*
X14916Y-290701D01*
X14794Y-291941D01*
X23162D01*
Y-283573D01*
X21922Y-283695D01*
X20249Y-284203D01*
X20041Y-284314D01*
X19710Y-283924D01*
X20326Y-283122D01*
X20863Y-281825D01*
X20980Y-280933D01*
D02*
G37*
G36*
X134949Y-290236D02*
Y-293201D01*
X137913D01*
X137859Y-292787D01*
X137506Y-291936D01*
X136945Y-291205D01*
X136214Y-290644D01*
X135363Y-290291D01*
X134949Y-290236D01*
D02*
G37*
G36*
X133949D02*
X133535Y-290291D01*
X132684Y-290644D01*
X131953Y-291205D01*
X131392Y-291936D01*
X131039Y-292787D01*
X130984Y-293201D01*
X133949D01*
Y-290236D01*
D02*
G37*
G36*
X137913Y-294201D02*
X134949D01*
Y-297165D01*
X135363Y-297111D01*
X136214Y-296758D01*
X136945Y-296197D01*
X137506Y-295466D01*
X137859Y-294615D01*
X137913Y-294201D01*
D02*
G37*
G36*
X133949D02*
X130984D01*
X131039Y-294615D01*
X131392Y-295466D01*
X131953Y-296197D01*
X132684Y-296758D01*
X133535Y-297111D01*
X133949Y-297165D01*
Y-294201D01*
D02*
G37*
G36*
X77529Y-292941D02*
X69162D01*
Y-301309D01*
X70401Y-301187D01*
X72074Y-300679D01*
X73616Y-299855D01*
X74967Y-298746D01*
X76076Y-297395D01*
X76900Y-295853D01*
X77407Y-294181D01*
X77529Y-292941D01*
D02*
G37*
G36*
X32529D02*
X24162D01*
Y-301309D01*
X25401Y-301187D01*
X27074Y-300679D01*
X28616Y-299855D01*
X29967Y-298746D01*
X31076Y-297395D01*
X31900Y-295853D01*
X32407Y-294181D01*
X32529Y-292941D01*
D02*
G37*
G36*
X68162D02*
X59794D01*
X59916Y-294181D01*
X60423Y-295853D01*
X61247Y-297395D01*
X62356Y-298746D01*
X63708Y-299855D01*
X65249Y-300679D01*
X66922Y-301187D01*
X68162Y-301309D01*
Y-292941D01*
D02*
G37*
G36*
X23162D02*
X14794D01*
X14916Y-294181D01*
X15423Y-295853D01*
X16247Y-297395D01*
X17356Y-298746D01*
X18708Y-299855D01*
X20249Y-300679D01*
X21922Y-301187D01*
X23162Y-301309D01*
Y-292941D01*
D02*
G37*
G36*
X176484Y-303622D02*
Y-306587D01*
X179449D01*
X179394Y-306173D01*
X179042Y-305322D01*
X178481Y-304590D01*
X177749Y-304029D01*
X176898Y-303677D01*
X176484Y-303622D01*
D02*
G37*
G36*
X175484D02*
X175071Y-303677D01*
X174219Y-304029D01*
X173488Y-304590D01*
X172927Y-305322D01*
X172574Y-306173D01*
X172520Y-306587D01*
X175484D01*
Y-303622D01*
D02*
G37*
G36*
X179449Y-307587D02*
X176484D01*
Y-310551D01*
X176898Y-310496D01*
X177749Y-310144D01*
X178481Y-309583D01*
X179042Y-308852D01*
X179394Y-308000D01*
X179449Y-307587D01*
D02*
G37*
G36*
X175484D02*
X172520D01*
X172574Y-308000D01*
X172927Y-308852D01*
X173488Y-309583D01*
X174219Y-310144D01*
X175071Y-310496D01*
X175484Y-310551D01*
Y-307587D01*
D02*
G37*
G36*
X62744Y-307216D02*
Y-311232D01*
X66761D01*
X66671Y-310546D01*
X66213Y-309441D01*
X65484Y-308492D01*
X64535Y-307764D01*
X63430Y-307306D01*
X62744Y-307216D01*
D02*
G37*
G36*
X30579D02*
Y-311232D01*
X34596D01*
X34505Y-310546D01*
X34048Y-309441D01*
X33319Y-308492D01*
X32370Y-307764D01*
X31265Y-307306D01*
X30579Y-307216D01*
D02*
G37*
G36*
X61744D02*
X61058Y-307306D01*
X59953Y-307764D01*
X59004Y-308492D01*
X58276Y-309441D01*
X57818Y-310546D01*
X57727Y-311232D01*
X61744D01*
Y-307216D01*
D02*
G37*
G36*
X29579D02*
X28893Y-307306D01*
X27788Y-307764D01*
X26839Y-308492D01*
X26110Y-309441D01*
X25653Y-310546D01*
X25562Y-311232D01*
X29579D01*
Y-307216D01*
D02*
G37*
G36*
X66761Y-312232D02*
X62744D01*
Y-316249D01*
X63430Y-316159D01*
X64535Y-315701D01*
X65484Y-314973D01*
X66213Y-314024D01*
X66671Y-312918D01*
X66761Y-312232D01*
D02*
G37*
G36*
X34596D02*
X30579D01*
Y-316249D01*
X31265Y-316159D01*
X32370Y-315701D01*
X33319Y-314973D01*
X34048Y-314024D01*
X34505Y-312918D01*
X34596Y-312232D01*
D02*
G37*
G36*
X61744D02*
X57727D01*
X57818Y-312918D01*
X58276Y-314024D01*
X59004Y-314973D01*
X59953Y-315701D01*
X61058Y-316159D01*
X61744Y-316249D01*
Y-312232D01*
D02*
G37*
G36*
X29579D02*
X25562D01*
X25653Y-312918D01*
X26110Y-314024D01*
X26839Y-314973D01*
X27788Y-315701D01*
X28893Y-316159D01*
X29579Y-316249D01*
Y-312232D01*
D02*
G37*
G36*
X72244Y-307150D02*
X71058Y-307306D01*
X69953Y-307764D01*
X69004Y-308492D01*
X68276Y-309441D01*
X67818Y-310546D01*
X67662Y-311732D01*
X67818Y-312918D01*
X68276Y-314024D01*
X69004Y-314973D01*
X69953Y-315701D01*
X71058Y-316159D01*
X72244Y-316315D01*
X73430Y-316159D01*
X74536Y-315701D01*
X75485Y-314973D01*
X76213Y-314024D01*
X76671Y-312918D01*
X76827Y-311732D01*
X76671Y-310546D01*
X76213Y-309441D01*
X75485Y-308492D01*
X74536Y-307764D01*
X73430Y-307306D01*
X72244Y-307150D01*
D02*
G37*
G36*
X20079D02*
X18893Y-307306D01*
X17788Y-307764D01*
X16839Y-308492D01*
X16110Y-309441D01*
X15653Y-310546D01*
X15496Y-311732D01*
X15653Y-312918D01*
X16110Y-314024D01*
X16839Y-314973D01*
X17788Y-315701D01*
X18893Y-316159D01*
X20079Y-316315D01*
X21265Y-316159D01*
X22370Y-315701D01*
X23319Y-314973D01*
X24048Y-314024D01*
X24505Y-312918D01*
X24661Y-311732D01*
X24505Y-310546D01*
X24048Y-309441D01*
X23319Y-308492D01*
X22370Y-307764D01*
X21265Y-307306D01*
X20079Y-307150D01*
D02*
G37*
G36*
X192350Y-316153D02*
Y-320169D01*
X196367D01*
X196277Y-319483D01*
X195819Y-318378D01*
X195091Y-317429D01*
X194142Y-316701D01*
X193036Y-316243D01*
X192350Y-316153D01*
D02*
G37*
G36*
X191350D02*
X190664Y-316243D01*
X189559Y-316701D01*
X188610Y-317429D01*
X187882Y-318378D01*
X187424Y-319483D01*
X187334Y-320169D01*
X191350D01*
Y-316153D01*
D02*
G37*
G36*
X152980Y-316350D02*
Y-320366D01*
X156997D01*
X156907Y-319680D01*
X156449Y-318575D01*
X155721Y-317626D01*
X154772Y-316898D01*
X153666Y-316440D01*
X152980Y-316350D01*
D02*
G37*
G36*
X151980D02*
X151294Y-316440D01*
X150189Y-316898D01*
X149240Y-317626D01*
X148512Y-318575D01*
X148054Y-319680D01*
X147964Y-320366D01*
X151980D01*
Y-316350D01*
D02*
G37*
G36*
X241433Y-316086D02*
X232347D01*
Y-325173D01*
X241433D01*
Y-316086D01*
D02*
G37*
G36*
X196367Y-321169D02*
X192350D01*
Y-325186D01*
X193036Y-325096D01*
X194142Y-324638D01*
X195091Y-323909D01*
X195819Y-322960D01*
X196277Y-321855D01*
X196367Y-321169D01*
D02*
G37*
G36*
X191350D02*
X187334D01*
X187424Y-321855D01*
X187882Y-322960D01*
X188610Y-323909D01*
X189559Y-324638D01*
X190664Y-325096D01*
X191350Y-325186D01*
Y-321169D01*
D02*
G37*
G36*
X226890Y-316047D02*
X225704Y-316203D01*
X224599Y-316661D01*
X223650Y-317389D01*
X222921Y-318338D01*
X222464Y-319444D01*
X222307Y-320630D01*
X222464Y-321816D01*
X222921Y-322921D01*
X223650Y-323870D01*
X224599Y-324598D01*
X225704Y-325056D01*
X226890Y-325212D01*
X228076Y-325056D01*
X229181Y-324598D01*
X230130Y-323870D01*
X230859Y-322921D01*
X231316Y-321816D01*
X231472Y-320630D01*
X231316Y-319444D01*
X230859Y-318338D01*
X230130Y-317389D01*
X229181Y-316661D01*
X228076Y-316203D01*
X226890Y-316047D01*
D02*
G37*
G36*
X216890Y-316048D02*
X215704Y-316204D01*
X214598Y-316661D01*
X213650Y-317390D01*
X212921Y-318339D01*
X212463Y-319444D01*
X212307Y-320630D01*
X212463Y-321816D01*
X212921Y-322921D01*
X213650Y-323870D01*
X214598Y-324599D01*
X215704Y-325056D01*
X216890Y-325213D01*
X218076Y-325056D01*
X219181Y-324599D01*
X220130Y-323870D01*
X220858Y-322921D01*
X221316Y-321816D01*
X221472Y-320630D01*
X221316Y-319444D01*
X220858Y-318339D01*
X220130Y-317390D01*
X219181Y-316661D01*
X218076Y-316204D01*
X216890Y-316048D01*
D02*
G37*
G36*
X176393Y-316126D02*
X167307D01*
Y-325213D01*
X176393D01*
Y-316126D01*
D02*
G37*
G36*
X156997Y-321366D02*
X152980D01*
Y-325383D01*
X153666Y-325293D01*
X154772Y-324835D01*
X155721Y-324107D01*
X156449Y-323158D01*
X156907Y-322052D01*
X156997Y-321366D01*
D02*
G37*
G36*
X151980D02*
X147964D01*
X148054Y-322052D01*
X148512Y-323158D01*
X149240Y-324107D01*
X150189Y-324835D01*
X151294Y-325293D01*
X151980Y-325383D01*
Y-321366D01*
D02*
G37*
G36*
X137023Y-316323D02*
X127937D01*
Y-325410D01*
X137023D01*
Y-316323D01*
D02*
G37*
G36*
X217390Y-326113D02*
Y-330130D01*
X221407D01*
X221316Y-329444D01*
X220858Y-328339D01*
X220130Y-327390D01*
X219181Y-326661D01*
X218076Y-326204D01*
X217390Y-326113D01*
D02*
G37*
G36*
X216390D02*
X215704Y-326204D01*
X214598Y-326661D01*
X213650Y-327390D01*
X212921Y-328339D01*
X212463Y-329444D01*
X212373Y-330130D01*
X216390D01*
Y-326113D01*
D02*
G37*
G36*
X221407Y-331130D02*
X217390D01*
Y-335147D01*
X218076Y-335056D01*
X219181Y-334599D01*
X220130Y-333870D01*
X220858Y-332921D01*
X221316Y-331816D01*
X221407Y-331130D01*
D02*
G37*
G36*
X216390D02*
X212373D01*
X212463Y-331816D01*
X212921Y-332921D01*
X213650Y-333870D01*
X214598Y-334599D01*
X215704Y-335056D01*
X216390Y-335147D01*
Y-331130D01*
D02*
G37*
G36*
X226890Y-326047D02*
X225704Y-326204D01*
X224599Y-326661D01*
X223650Y-327390D01*
X222921Y-328339D01*
X222463Y-329444D01*
X222307Y-330630D01*
X222463Y-331816D01*
X222921Y-332921D01*
X223650Y-333870D01*
X224599Y-334599D01*
X225704Y-335056D01*
X226890Y-335212D01*
X228076Y-335056D01*
X229181Y-334599D01*
X230130Y-333870D01*
X230858Y-332921D01*
X231316Y-331816D01*
X231472Y-330630D01*
X231316Y-329444D01*
X230858Y-328339D01*
X230130Y-327390D01*
X229181Y-326661D01*
X228076Y-326204D01*
X226890Y-326047D01*
D02*
G37*
%LPD*%
G36*
X158921Y-76118D02*
X159652Y-76679D01*
X160504Y-77032D01*
X160398Y-77504D01*
X127397D01*
X127292Y-77032D01*
X128143Y-76679D01*
X128874Y-76118D01*
X129237Y-75645D01*
X158558D01*
X158921Y-76118D01*
D02*
G37*
G36*
X124051Y-271493D02*
X123844Y-271993D01*
X105615D01*
X105252Y-271519D01*
X104521Y-270958D01*
X103959Y-270726D01*
X104059Y-270226D01*
X122784D01*
X124051Y-271493D01*
D02*
G37*
D45*
X152424Y-276953D02*
X154180Y-275197D01*
X127034Y-276953D02*
X152424D01*
X124097Y-274016D02*
X127034Y-276953D01*
X181850Y-178346D02*
X199606D01*
X250394D02*
X250787Y-177953D01*
X199606Y-178346D02*
X250394D01*
X260630Y-174409D02*
X261504D01*
X253586D02*
X260630D01*
X252645Y-173468D02*
X253586Y-174409D01*
X248930Y-173468D02*
X252645D01*
X248580Y-173819D02*
X248930Y-173468D01*
X193307Y-187402D02*
X257480D01*
X255905Y-187795D02*
X257087D01*
X257480Y-187402D01*
X252756Y-178346D02*
X252756Y-178347D01*
X252362Y-177953D02*
X252756Y-178346D01*
X252756D01*
X250787Y-177953D02*
X252362D01*
X187205Y-173819D02*
X248580D01*
X252756Y-178347D02*
X252756Y-178346D01*
X45000Y-242520D02*
X45393Y-242913D01*
X90945D01*
X154606Y-219685D02*
X155000Y-219291D01*
X91732Y-219685D02*
X154606D01*
X103150Y-213386D02*
X151030D01*
X149213Y-212841D02*
X150486D01*
X102756Y-212992D02*
X103150Y-213386D01*
X63928Y-212992D02*
X102756D01*
X150486Y-212841D02*
X151030Y-213386D01*
X34794Y-242126D02*
X63928Y-212992D01*
X26772Y-242126D02*
X34794D01*
X68110Y-219685D02*
X91732D01*
X53543Y-234252D02*
X68110Y-219685D01*
X71599Y-268898D02*
X80709D01*
X63534Y-276962D02*
X71599Y-268898D01*
X30505Y-276962D02*
X63534D01*
X85827Y-274016D02*
X102756D01*
X80709Y-268898D02*
X85827Y-274016D01*
X33642Y-257441D02*
Y-252445D01*
X37268Y-248819D01*
X68276D01*
X87743Y-268286D01*
X91081D01*
X91299Y-268504D01*
X28642Y-275098D02*
Y-267441D01*
Y-275098D02*
X30505Y-276962D01*
X91600Y-268203D02*
X123622D01*
X91299Y-268504D02*
X91600Y-268203D01*
X123622D02*
X127860Y-272441D01*
X145669D01*
X154180Y-275197D02*
X155000D01*
X102756Y-274016D02*
X124097D01*
X115748Y-279921D02*
X210630D01*
X220866Y-269685D01*
X240845Y-304331D02*
X247244D01*
X235827Y-299312D02*
X240845Y-304331D01*
X235827Y-300394D02*
Y-299312D01*
Y-299213D02*
Y-241929D01*
X190157Y-300394D02*
X235827D01*
X142480Y-320866D02*
Y-309842D01*
X151929Y-300394D01*
X190157D01*
X181850Y-320670D02*
X182283Y-320236D01*
Y-308268D01*
X190157Y-300394D01*
X236890Y-330630D02*
X246535D01*
X250394Y-326772D01*
Y-307480D01*
X247244Y-304331D02*
X250394Y-307480D01*
X227756Y-233858D02*
X235827Y-241929D01*
X214173Y-286221D02*
X229921Y-270472D01*
X99213Y-286221D02*
X214173D01*
X195286Y-125197D02*
X240551D01*
X184868Y-119685D02*
X201181D01*
X185433Y-103150D02*
X185827Y-102756D01*
X211299D01*
X186614Y-80709D02*
X187008Y-80315D01*
X221260D01*
X175984Y-73189D02*
X176805D01*
X177553Y-72441D01*
X231299D01*
X166929Y-66142D02*
X241299D01*
X116142Y-165748D02*
X152756D01*
X153150Y-165354D01*
X153543Y-165748D01*
X116535Y-78740D02*
X117356D01*
X118143Y-79528D01*
X171260D01*
X107087Y-87008D02*
X107480Y-86614D01*
X181890D01*
X245669Y-91732D02*
X245669Y-91732D01*
X165150Y-91732D02*
X245669D01*
X165150Y-91732D02*
X165150Y-91732D01*
X149962Y-156693D02*
X150356Y-157087D01*
X120079Y-156693D02*
X149962D01*
X151181Y-114173D02*
X207874D01*
X137795Y-151969D02*
X214961D01*
X93307Y-160827D02*
X112076Y-142058D01*
X124803D01*
X126378Y-73622D02*
X161417D01*
X121260Y-101181D02*
X121260Y-101181D01*
X154724D01*
X154331Y-108268D02*
X154724Y-108661D01*
X131496Y-108268D02*
X154331D01*
X136221Y-66535D02*
X151181D01*
X190551Y-142087D02*
X191299Y-141339D01*
X190551Y-142638D02*
Y-142087D01*
X191299Y-141339D02*
X191299Y-141339D01*
X236890D01*
X187008Y-173622D02*
X187205Y-173819D01*
X193307Y-187402D02*
X193307Y-187402D01*
X105906Y-172441D02*
X160236D01*
X161811Y-180315D02*
X165354Y-176772D01*
X101299Y-180315D02*
X161811D01*
X111299Y-187008D02*
X170669D01*
D46*
X80256Y-249213D02*
X137402D01*
D47*
X72244Y-311732D02*
D03*
X25000Y-25000D02*
D03*
X152480Y-320866D02*
D03*
X142480Y-320866D02*
D03*
X191850Y-320669D02*
D03*
X181850Y-320670D02*
D03*
X216890Y-330630D02*
D03*
X226890D02*
D03*
X236890D02*
D03*
X216890Y-320630D02*
D03*
X226890Y-320630D02*
D03*
X91299Y-100551D02*
D03*
X91299Y-110551D02*
D03*
X62244Y-311732D02*
D03*
X20079D02*
D03*
X30079D02*
D03*
D48*
X45000Y-25000D02*
D03*
X132480Y-320866D02*
D03*
X171850Y-320670D02*
D03*
X236890Y-320630D02*
D03*
D49*
X241299Y-21299D02*
D03*
Y-31299D02*
D03*
X231299Y-21299D02*
D03*
Y-31299D02*
D03*
X221299Y-21299D02*
D03*
Y-31299D02*
D03*
X211299Y-21299D02*
D03*
Y-31299D02*
D03*
X201299Y-21299D02*
D03*
Y-31299D02*
D03*
X191299Y-21299D02*
D03*
Y-31299D02*
D03*
X181299Y-21299D02*
D03*
Y-31299D02*
D03*
X171299Y-21299D02*
D03*
Y-31299D02*
D03*
X161299Y-21299D02*
D03*
Y-31299D02*
D03*
X151299Y-21299D02*
D03*
Y-31299D02*
D03*
X141299Y-21299D02*
D03*
Y-31299D02*
D03*
X131299Y-21299D02*
D03*
Y-31299D02*
D03*
X121299Y-21299D02*
D03*
Y-31299D02*
D03*
X111299Y-21299D02*
D03*
Y-31299D02*
D03*
X101299Y-21299D02*
D03*
Y-31299D02*
D03*
X91299Y-21299D02*
D03*
Y-31299D02*
D03*
X81299Y-21299D02*
D03*
D50*
Y-31299D02*
D03*
D51*
X91299Y-90551D02*
D03*
D52*
X68662Y-292441D02*
D03*
X23662D02*
D03*
D53*
X76772Y-280433D02*
D03*
X15669D02*
D03*
D54*
X43642Y-257441D02*
D03*
X33642D02*
D03*
X53642D02*
D03*
X63642D02*
D03*
X58642Y-267441D02*
D03*
X48642D02*
D03*
X28642D02*
D03*
X38642D02*
D03*
D55*
X260630Y-174409D02*
D03*
X255905Y-187795D02*
D03*
X250787Y-177953D02*
D03*
X137402Y-249213D02*
D03*
X45000Y-242520D02*
D03*
X90945Y-242913D02*
D03*
X155000Y-219291D02*
D03*
X149849Y-212205D02*
D03*
X103150Y-213386D02*
D03*
X159843Y-237402D02*
D03*
X75197Y-147638D02*
D03*
X91732Y-219685D02*
D03*
X53543Y-234252D02*
D03*
X26772Y-242126D02*
D03*
X91299Y-268504D02*
D03*
X145669Y-272441D02*
D03*
X102756Y-274016D02*
D03*
X155000Y-275197D02*
D03*
X163779Y-273228D02*
D03*
X134449Y-293701D02*
D03*
X177756Y-271260D02*
D03*
X175984Y-307087D02*
D03*
X227756Y-233858D02*
D03*
X229921Y-270472D02*
D03*
X99213Y-286221D02*
D03*
X220866Y-269685D02*
D03*
X115748Y-279921D02*
D03*
X195286Y-125197D02*
D03*
X184868Y-119685D02*
D03*
X201181D02*
D03*
X185433Y-103150D02*
D03*
X211299Y-102756D02*
D03*
X186614Y-80709D02*
D03*
X221260Y-80315D02*
D03*
X175984Y-73189D02*
D03*
X231299Y-72441D02*
D03*
X166929Y-66142D02*
D03*
X241299D02*
D03*
X116142Y-165748D02*
D03*
X153543D02*
D03*
X116535Y-78740D02*
D03*
X171260Y-79528D02*
D03*
X107087Y-87008D02*
D03*
X181890Y-86614D02*
D03*
X150356Y-157087D02*
D03*
X207874Y-114173D02*
D03*
X151181D02*
D03*
X214961Y-151969D02*
D03*
X137795D02*
D03*
X120079Y-156693D02*
D03*
X124803Y-142058D02*
D03*
X126378Y-73622D02*
D03*
X161417D02*
D03*
X121260Y-101181D02*
D03*
X154724Y-101181D02*
D03*
Y-108661D02*
D03*
X131496Y-108268D02*
D03*
X136221Y-66535D02*
D03*
X151181D02*
D03*
X190551Y-142638D02*
D03*
X236890Y-141339D02*
D03*
X197638Y-132677D02*
D03*
X240551Y-125197D02*
D03*
X245669Y-91732D02*
D03*
X93307Y-160827D02*
D03*
X131299Y-126575D02*
D03*
X181850Y-177953D02*
D03*
X187008Y-173622D02*
D03*
X193307Y-187402D02*
D03*
X199606Y-178346D02*
D03*
X170669Y-187008D02*
D03*
X111299D02*
D03*
X105906Y-172441D02*
D03*
X160236D02*
D03*
X165354Y-176772D02*
D03*
X101299Y-180315D02*
D03*
X80256Y-249213D02*
D03*
X165150Y-91732D02*
D03*
X7598Y-154331D02*
D03*
Y-123622D02*
D03*
Y-101181D02*
D03*
Y-70472D02*
D03*
Y-50354D02*
D03*
M02*
