M48
;Layer_Color=9474304
;FILE_FORMAT=2:5
INCH,LZ
;TYPE=PLATED
T1F00S00C0.02800
T2F00S00C0.03543
T3F00S00C0.03937
T4F00S00C0.04331
T5F00S00C0.05118
T6F00S00C0.06693
T7F00S00C0.12795
%
T01
X0099213Y-0286221
X0134449Y-0293701
X0175984Y-0307087
X0177756Y-027126
X0163779Y-0273228
X0155Y-0275197
X0159843Y-0237402
X0155Y-0219291
X0149849Y-0212205
X0170669Y-0187008
X0165354Y-0176772
X0160236Y-0172441
X0153543Y-0165748
X0150356Y-0157087
X018185Y-0177953
X0187008Y-0173622
X0199606Y-0178346
X0193307Y-0187402
X0190551Y-0142638
X0197638Y-0132677
X0195286Y-0125197
X0240551
X023689Y-0141339
X0214961Y-0151969
X0250787Y-0177953
X026063Y-0174409
X0255905Y-0187795
X0227756Y-0233858
X0229921Y-0270472
X0220866Y-0269685
X0145669Y-0272441
X0137402Y-0249213
X0115748Y-0279921
X0102756Y-0274016
X0091299Y-0268504
X0090945Y-0242913
X0080256Y-0249213
X0091732Y-0219685
X010315Y-0213386
X0111299Y-0187008
X0101299Y-0180315
X0105906Y-0172441
X0116142Y-0165748
X0120079Y-0156693
X0124803Y-0142058
X0131299Y-0126575
X0137795Y-0151969
X0093307Y-0160827
X0075197Y-0147638
X0007598Y-0154331
X0026772Y-0242126
X0045Y-024252
X0053543Y-0234252
X0007598Y-0123622
Y-0101181
Y-0070472
Y-0050354
X0107087Y-0087008
X0116535Y-007874
X0126378Y-0073622
X0136221Y-0066535
X0131496Y-0108268
X012126Y-0101181
X0154724Y-0101181
Y-0108661
X0151181Y-0114173
X016515Y-0091732
X017126Y-0079528
X0175984Y-0073189
X0161417Y-0073622
X0166929Y-0066142
X0151181Y-0066535
X0186614Y-0080709
X018189Y-0086614
X0185433Y-010315
X0184868Y-0119685
X0201181
X0207874Y-0114173
X0211299Y-0102756
X022126Y-0080315
X0231299Y-0072441
X0241299Y-0066142
X0245669Y-0091732
T02
X013248Y-0320866
X014248
X015248Y-0320866
X017185Y-032067
X018185
X019185Y-0320669
X021689Y-032063
Y-033063
X022689
X023689
X023689Y-032063
X022689
X0091299Y-0110551
X0091299Y-0100551
Y-0090551
X0091299Y-0031299
X0101299
X0111299
X0121299
X0131299
X0141299
Y-0021299
X0131299
X0121299
X0111299
X0101299
X0091299
X0081299
Y-0031299
X0151299
X0161299
X0171299
X0181299
X0191299
X0201299
X0211299
X0221299
X0231299
X0241299
Y-0021299
X0231299
X0221299
X0211299
X0201299
X0191299
X0181299
X0171299
X0161299
X0151299
T03
X0028642Y-0267441
X0038642
X0048642
X0058642
X0053642Y-0257441
X0043642
X0033642
X0063642
T04
X0020079Y-0311732
X0030079
X0062244
X0072244
T05
X0025Y-0025
X0045
T06
X0015669Y-0280433
X0076772
T07
X0023662Y-0292441
X0068662
M30
