G04 DipTrace 3.0.0.1*
G04 Bottom Mask.gbr*
%MOMM*%
G04 #@! TF.FileFunction,Soldermask,Bot*
G04 #@! TF.Part,Single*
%ADD42C,2.0*%
%ADD48C,3.25*%
%ADD59R,3.2X3.2*%
%ADD61C,2.2*%
%ADD62R,2.2X2.2*%
%ADD64C,1.6986*%
%ADD66R,1.6986X1.6986*%
%ADD77C,3.2*%
%ADD79C,1.7*%
%ADD81R,1.7X1.7*%
%FSLAX35Y35*%
G04*
G71*
G90*
G75*
G01*
G04 BotMask*
%LPD*%
D81*
X968477Y-7017487D3*
D79*
X1095477Y-6763487D3*
X1222477Y-7017487D3*
X1349477Y-6763487D3*
X1476477Y-7017487D3*
X1603477Y-6763487D3*
X1730477Y-7017487D3*
X1857477Y-6763487D3*
D77*
X638477Y-7347487D3*
X2187477D3*
D42*
X739477Y-8109487D3*
X993477D3*
X1832477D3*
X2086477D3*
D48*
X841477Y-7652487D3*
X1984477D3*
D66*
X2301873Y-1016000D3*
D64*
X2555873Y-1015960D3*
X2809873D3*
X3063873D3*
X3317873D3*
X3571873D3*
X3825873D3*
X4079873D3*
X4333873D3*
X4587873D3*
X4841873D3*
X5095873D3*
X5349873D3*
X2301873Y-761960D3*
X2555873D3*
X2809873D3*
X3063873D3*
X3317873D3*
X3571873D3*
X3825873D3*
X4079873D3*
X4333873D3*
X4587873D3*
X4841873D3*
X5095873D3*
X5349873D3*
X5603873Y-1015960D3*
X5857873D3*
X6111873D3*
X6365873D3*
X5603873Y-761960D3*
X5857873D3*
X6111873D3*
X6365873D3*
D62*
X2555873Y-2524123D3*
D61*
Y-2778123D3*
Y-3032123D3*
D62*
X3588180Y-8367003D3*
D61*
X3842180D3*
X4096180D3*
D62*
X4604233D3*
D61*
X4858233D3*
X5112233D3*
D62*
X6255407D3*
D61*
X6001407D3*
X5747407D3*
Y-8621003D3*
X6001407D3*
X6255407D3*
D59*
X873127Y-857250D3*
D77*
X1373127D3*
M02*
