M48
METRIC,0000.00
T01C0.486
T02C0.889
T03C0.9
T04C1.02
T05C1.2
T06C1.6
T07C3.25
%
T01
X+002016Y-003668
X+002334Y-003909
X+002953Y-004636
X+002810Y-004763
X+003064Y-004890
X+003191Y-004509
X+003302Y-004366
X+003457Y-003909
X+003795Y-004001
X+004017Y-004366
X+004112Y-004509
X+004191Y-004636
X+004223Y-004763
X+004508Y-004653
X+004683Y-004826
X+004778Y-004715
X+004908Y-004935
X+005064Y-004826
X+005080Y-003873
X+005208Y-003636
X+005207Y-003461
X+005350Y-003318
X+005509Y-003175
X+005620Y-003016
X+005858Y-002874
X+006255Y-002715
X+006097Y-002509
X+006366Y-002238
X+006144Y-003461
X+006032Y-003873
X+005620Y-004001
X+004969Y-003318
X+004969Y-003016
X+004873Y-002874
X+004954Y-002509
X+004842Y-002350
X+004700Y-002238
X+004493Y-002413
X+004334Y-002286
X+004080Y-002159
X+003699Y-002159
X+003445Y-002286
X+003191Y-002413
X+002953Y-002524
X+003318Y-002794
X+003572Y-002937
X+004001Y-002794
X+004128Y-002937
X+004080Y-003080
X+004429Y-002715
X+003461Y-003509
X+003635Y-005413
X+003937Y-005540
X+003525Y-005970
X+003493Y-006367
X+003810Y-006874
X+003937Y-006985
X+003109Y-007144
X+002810Y-007239
X+002795Y-006985
X+002540Y-006874
X+002207Y-006367
X+002334Y-006175
X+002540Y-005540
X+002794Y-005413
X+002143Y-005255
X+001603Y-005842
X+001349Y-005985
X+000699Y-005970
X+000445Y-005128
X+000445Y-002254
X+000429Y-001461
X+006382Y-004826
X+006493Y-004935
X+006604Y-004715
X+006843Y-004747
X+005731Y-006159
X+005763Y-006302
X+005667Y-006398
X+006795Y-008589
X+003826Y-008732
T02
X+002302Y-001016
X+002556Y-001016
X+002810Y-001016
X+003064Y-001016
X+003318Y-001016
X+003572Y-001016
X+003826Y-001016
X+004080Y-001016
X+004334Y-001016
X+004588Y-001016
X+004842Y-001016
X+005096Y-001016
X+005350Y-001016
X+005350Y-000762
X+005096Y-000762
X+004842Y-000762
X+004588Y-000762
X+004334Y-000762
X+004080Y-000762
X+003826Y-000762
X+003572Y-000762
X+003318Y-000762
X+003064Y-000762
X+002810Y-000762
X+002556Y-000762
X+002302Y-000762
X+005604Y-000762
X+005604Y-001016
X+005858Y-001016
X+006112Y-001016
X+006366Y-001016
X+006366Y-000762
X+006112Y-000762
X+005858Y-000762
T03
X+000968Y-007017
X+001222Y-007017
X+001476Y-007017
X+001730Y-007017
X+001603Y-006763
X+001857Y-006763
X+001349Y-006763
X+001095Y-006763
X+003588Y-008367
X+003842Y-008367
X+004096Y-008367
X+004604Y-008367
X+004858Y-008367
X+005112Y-008367
X+005747Y-008367
X+005747Y-008621
X+006001Y-008621
X+006001Y-008367
X+006255Y-008367
X+006255Y-008621
X+002556Y-003032
X+002556Y-002778
X+002556Y-002524
T04
X+000739Y-008109
X+000993Y-008109
X+001832Y-008109
X+002086Y-008109
T05
X+000873Y-000857
X+001373Y-000857
T06
X+000638Y-007347
X+002187Y-007347
T07
X+000841Y-007652
X+001984Y-007652
T00
M30
