G04 DipTrace 3.0.0.1*
G04 Top Silk.gbr*
%MOMM*%
G04 #@! TF.FileFunction,Legend,Top*
G04 #@! TF.Part,Single*
%ADD10C,0.25*%
%ADD20O,0.59996X0.59972*%
%ADD24O,0.79886X0.79964*%
%ADD26O,0.42016X0.41713*%
%ADD37O,0.50028X0.50008*%
%ADD44O,0.3915X0.39347*%
%ADD97C,0.19608*%
%FSLAX35Y35*%
G04*
G71*
G90*
G75*
G01*
G04 TopSilk*
%LPD*%
X671723Y-1526340D2*
D10*
X811749D1*
X671723D2*
Y-1971329D1*
X756735Y-2056333D2*
X671723Y-1971329D1*
X756735Y-2056333D2*
X811749D1*
X1061697Y-1526340D2*
X1201723D1*
Y-1971329D1*
X1116711Y-2056333D2*
X1201723Y-1971329D1*
X1061697Y-2056333D2*
X1116711D1*
D20*
X791715Y-2121334D3*
X1477117Y-1776157D2*
D10*
X1317277D1*
X1477117Y-1795077D2*
X1317277D1*
X1477117D2*
Y-1735237D1*
X1317277Y-1795077D2*
Y-1735237D1*
X666283Y-3304333D2*
X826123D1*
X666283Y-3285413D2*
X826123D1*
X666283D2*
Y-3345253D1*
X826123Y-3285413D2*
Y-3345253D1*
X3731170Y-3712750D2*
X3571330D1*
X3731170Y-3731670D2*
X3571330D1*
X3731170D2*
Y-3671830D1*
X3571330Y-3731670D2*
Y-3671830D1*
X5429797Y-3852750D2*
X5269957D1*
X5429797Y-3871670D2*
X5269957D1*
X5429797D2*
Y-3811830D1*
X5269957Y-3871670D2*
Y-3811830D1*
X5938640Y-5322999D2*
X5618360D1*
X5938640Y-5342081D2*
X5618360D1*
X5938640D2*
X5938504Y-5221847D1*
X5618360Y-5342081D2*
X5618496Y-5221847D1*
X1618883Y-5511190D2*
X1778723D1*
X1618883Y-5492270D2*
X1778723D1*
X1618883D2*
Y-5552110D1*
X1778723Y-5492270D2*
Y-5552110D1*
X1357845Y-5610770D2*
X633443D1*
X1471951Y-5496775D2*
X1357845Y-5610770D1*
Y-4772570D2*
X633443D1*
X1471951Y-4886565D2*
X1357845Y-4772570D1*
X1471951Y-5321675D2*
Y-5496775D1*
Y-4886565D2*
Y-5061665D1*
X633443Y-5321675D2*
Y-5610770D1*
Y-4772570D2*
Y-5061665D1*
D24*
X1552722Y-5351682D3*
X5810797Y-5871750D2*
D10*
X5650957D1*
X5810797Y-5890670D2*
X5650957D1*
X5810797D2*
Y-5830830D1*
X5650957Y-5890670D2*
Y-5830830D1*
X2968080Y-5894500D2*
X3127920D1*
X2968080Y-5875580D2*
X3127920D1*
X2968080D2*
Y-5935420D1*
X3127920Y-5875580D2*
Y-5935420D1*
Y-6469250D2*
X2968080D1*
X3127920Y-6488170D2*
X2968080D1*
X3127920D2*
Y-6428330D1*
X2968080Y-6488170D2*
Y-6428330D1*
X3412580Y-6987000D2*
X3572420D1*
X3412580Y-6968080D2*
X3572420D1*
X3412580D2*
Y-7027920D1*
X3572420Y-6968080D2*
Y-7027920D1*
X4811167Y-7761703D2*
X4651327D1*
X4811167Y-7780623D2*
X4651327D1*
X4811167D2*
Y-7720783D1*
X4651327Y-7780623D2*
Y-7720783D1*
X5065167Y-7761703D2*
X4905327D1*
X5065167Y-7780623D2*
X4905327D1*
X5065167D2*
Y-7720783D1*
X4905327Y-7780623D2*
Y-7720783D1*
X4178152Y-3408105D2*
X4758094D1*
Y-3988148D1*
X4178152D1*
Y-3408105D1*
D26*
X4046953Y-3329072D3*
G36*
X4178152Y-3408105D2*
Y-3488097D1*
X4258144Y-3408105D1*
X4178152D1*
G37*
X5418452Y-5896752D2*
D10*
X3598548D1*
X5418452Y-6536748D2*
X3598548D1*
Y-5896752D2*
Y-6536748D1*
X5418452Y-5896752D2*
Y-6136722D1*
Y-6296778D2*
Y-6536748D1*
Y-6136722D2*
G03X5418452Y-6296778I134J-80028D01*
G01*
X602930Y-8312487D2*
Y-7541583D1*
Y-7151487D2*
Y-6152487D1*
X2223024D1*
Y-7151487D1*
Y-7541583D2*
Y-8312487D1*
X602930D1*
X716887Y-3828143D2*
Y-4328111D1*
X985870Y-4597121D1*
X1886887Y-3828143D2*
Y-4328111D1*
X716887Y-3828143D2*
X985870Y-3559133D1*
X1886887Y-4328111D2*
X1617904Y-4597121D1*
X1886887Y-3828143D2*
X1617904Y-3559133D1*
X2635797Y-1890170D2*
Y-1830330D1*
X2475957Y-1890170D2*
Y-1830330D1*
X2889797Y-1890170D2*
Y-1830330D1*
X2729957Y-1890170D2*
Y-1830330D1*
X3143797Y-1890170D2*
Y-1830330D1*
X2983957Y-1890170D2*
Y-1830330D1*
X3397797Y-1890170D2*
Y-1830330D1*
X3237957Y-1890170D2*
Y-1830330D1*
X3651797Y-1890170D2*
Y-1830330D1*
X3491957Y-1890170D2*
Y-1830330D1*
X3905797Y-1890170D2*
Y-1830330D1*
X3745957Y-1890170D2*
Y-1830330D1*
X4159797Y-1890170D2*
Y-1830330D1*
X3999957Y-1890170D2*
Y-1830330D1*
X4413797Y-1890170D2*
Y-1830330D1*
X4253957Y-1890170D2*
Y-1830330D1*
X4667797Y-1890170D2*
Y-1830330D1*
X4507957Y-1890170D2*
Y-1830330D1*
X4921797Y-1890170D2*
Y-1830330D1*
X4761957Y-1890170D2*
Y-1830330D1*
X5175793Y-1890170D2*
Y-1830330D1*
X5015953Y-1890170D2*
Y-1830330D1*
X5429797Y-1890170D2*
Y-1830330D1*
X5269957Y-1890170D2*
Y-1830330D1*
X5683797Y-1890170D2*
Y-1830330D1*
X5523957Y-1890170D2*
Y-1830330D1*
X5937797Y-1890170D2*
Y-1830330D1*
X5777957Y-1890170D2*
Y-1830330D1*
X6191797Y-1890170D2*
Y-1830330D1*
X6031957Y-1890170D2*
Y-1830330D1*
X6445797Y-1890170D2*
Y-1830330D1*
X6285957Y-1890170D2*
Y-1830330D1*
X1413617Y-2414310D2*
Y-2354470D1*
X1253777Y-2414310D2*
Y-2354470D1*
X1680613Y-2411433D2*
Y-2351593D1*
X1520773Y-2411433D2*
Y-2351593D1*
X1937490Y-2414310D2*
Y-2354470D1*
X1777650Y-2414310D2*
Y-2354470D1*
X2635793Y-3636420D2*
Y-3576580D1*
X2475953Y-3636420D2*
Y-3576580D1*
X2096047Y-4049170D2*
Y-3989330D1*
X1936207Y-4049170D2*
Y-3989330D1*
X2096047Y-4715920D2*
Y-4656080D1*
X1936207Y-4715920D2*
Y-4656080D1*
X3825330Y-5113580D2*
Y-5173420D1*
X3985170Y-5113580D2*
Y-5173420D1*
X4223293D2*
Y-5113580D1*
X4063453Y-5173420D2*
Y-5113580D1*
X4858293Y-5350920D2*
Y-5291080D1*
X4698453Y-5350920D2*
Y-5291080D1*
X2460080Y-5875580D2*
Y-5935420D1*
X2619920Y-5875580D2*
Y-5935420D1*
X2714080Y-5875580D2*
Y-5935420D1*
X2873920Y-5875580D2*
Y-5935420D1*
X3381920D2*
Y-5875580D1*
X3222080Y-5935420D2*
Y-5875580D1*
X2619920Y-6491047D2*
Y-6431207D1*
X2460080Y-6491047D2*
Y-6431207D1*
X2873920Y-6491047D2*
Y-6431207D1*
X2714080Y-6491047D2*
Y-6431207D1*
X5539830Y-7714207D2*
Y-7774047D1*
X5699670Y-7714207D2*
Y-7774047D1*
X5777957Y-7714207D2*
Y-7774047D1*
X5937797Y-7714207D2*
Y-7774047D1*
X2890090Y-7590103D2*
Y-7530263D1*
X2730250Y-7590103D2*
Y-7530263D1*
X3188857Y-7587213D2*
Y-7527373D1*
X3029017Y-7587213D2*
Y-7527373D1*
X5509740Y-8479197D2*
Y-8419357D1*
X5349900Y-8479197D2*
Y-8419357D1*
X1473622Y-2766542D2*
Y-3266552D1*
X1733658Y-2766542D2*
Y-3266552D1*
X1473622D2*
X1733658D1*
X1553616Y-2766542D2*
X1473622D1*
X1653664D2*
X1733658D1*
X1553616D2*
G03X1653664Y-2766542I50024J23D01*
G01*
X1720429Y-1955657D2*
X1692447D1*
X2026464D2*
X2054447D1*
X1720429Y-1415677D2*
X1692447D1*
Y-1955657D1*
X2026464Y-1415677D2*
X2054447D1*
D37*
X1873447Y-1290657D3*
X2054447Y-1415677D2*
D10*
Y-1955657D1*
X1089741Y-2315166D2*
X1117723D1*
X783706D2*
X755723D1*
X1089741Y-2855146D2*
X1117723D1*
Y-2315166D1*
X783706Y-2855146D2*
X755723D1*
D37*
X936723Y-2980166D3*
X755723Y-2855146D2*
D10*
Y-2315166D1*
X1946273Y-535900D2*
X6721473D1*
Y-1242020D1*
X1946273D1*
Y-535900D1*
X2428873Y-2397123D2*
X2682873D1*
Y-3159123D1*
X2428873D2*
X2682873D1*
X2428873Y-2397123D2*
Y-3159123D1*
X3461180Y-8494003D2*
Y-8240003D1*
X4223180D1*
Y-8494003D2*
Y-8240003D1*
X3461180Y-8494003D2*
X4223180D1*
X4477233D2*
Y-8240003D1*
X5239233D1*
Y-8494003D2*
Y-8240003D1*
X4477233Y-8494003D2*
X5239233D1*
X6382407Y-8748003D2*
X5620407D1*
Y-8240003D1*
X6382407D1*
Y-8748003D1*
X623127Y-482250D2*
X1623127D1*
Y-1257250D1*
X623127D1*
Y-482250D1*
X700527Y-1102482D2*
X1050527D1*
Y-1252522D1*
X700527D1*
Y-1102482D1*
X1225527D2*
X1575527D1*
Y-1252522D1*
X1225527D1*
Y-1102482D1*
X1200527Y-852467D2*
X1200953Y-840260D1*
X1202230Y-828113D1*
X1204351Y-816084D1*
X1207306Y-804232D1*
X1211080Y-792616D1*
X1215656Y-781291D1*
X1221011Y-770312D1*
X1227118Y-759734D1*
X1233949Y-749608D1*
X1241469Y-739983D1*
X1249642Y-730906D1*
X1258429Y-722421D1*
X1267786Y-714570D1*
X1277668Y-707390D1*
X1288027Y-700917D1*
X1298812Y-695183D1*
X1309971Y-690215D1*
X1321449Y-686037D1*
X1333190Y-682671D1*
X1345138Y-680131D1*
X1357234Y-678431D1*
X1369419Y-677579D1*
X1381634D1*
X1393819Y-678431D1*
X1405915Y-680131D1*
X1417863Y-682671D1*
X1429605Y-686037D1*
X1441083Y-690215D1*
X1452242Y-695183D1*
X1463027Y-700917D1*
X1473385Y-707390D1*
X1483267Y-714570D1*
X1492625Y-722421D1*
X1501411Y-730906D1*
X1509584Y-739983D1*
X1517105Y-749608D1*
X1523935Y-759734D1*
X1530042Y-770312D1*
X1535397Y-781291D1*
X1539973Y-792616D1*
X1543747Y-804232D1*
X1546702Y-816084D1*
X1548824Y-828113D1*
X1550100Y-840260D1*
X1550527Y-852467D1*
X1550100Y-864675D1*
X1548824Y-876822D1*
X1546702Y-888851D1*
X1543747Y-900703D1*
X1539973Y-912319D1*
X1535397Y-923644D1*
X1530042Y-934623D1*
X1523935Y-945201D1*
X1517105Y-955327D1*
X1509584Y-964952D1*
X1501411Y-974029D1*
X1492625Y-982514D1*
X1483267Y-990365D1*
X1473385Y-997545D1*
X1463027Y-1004018D1*
X1452242Y-1009752D1*
X1441083Y-1014720D1*
X1429605Y-1018898D1*
X1417863Y-1022264D1*
X1405915Y-1024804D1*
X1393819Y-1026504D1*
X1381634Y-1027356D1*
X1369419D1*
X1357234Y-1026504D1*
X1345138Y-1024804D1*
X1333190Y-1022264D1*
X1321449Y-1018898D1*
X1309971Y-1014720D1*
X1298812Y-1009752D1*
X1288027Y-1004018D1*
X1277668Y-997545D1*
X1267786Y-990365D1*
X1258429Y-982514D1*
X1249642Y-974029D1*
X1241469Y-964952D1*
X1233949Y-955327D1*
X1227118Y-945201D1*
X1221011Y-934623D1*
X1215656Y-923644D1*
X1211080Y-912319D1*
X1207306Y-900703D1*
X1204351Y-888851D1*
X1202230Y-876822D1*
X1200953Y-864675D1*
X1200527Y-852467D1*
X698127Y-682277D2*
X1048127D1*
Y-1032267D1*
X698127D1*
Y-682277D1*
X1123127Y-482250D2*
Y-1257250D1*
X623127Y-607257D2*
X1623127D1*
D44*
X5553725Y-7331737D3*
X5429000Y-7345530D2*
D10*
Y-7420500D1*
X4289000Y-6930500D2*
Y-7005470D1*
X5429000Y-6930500D2*
X4289000D1*
X5429000D2*
Y-7005470D1*
X4289000Y-7345530D2*
Y-7420500D1*
X5429000D2*
X4289000D1*
X947439Y-1263173D2*
D97*
X941402Y-1251100D1*
X929189Y-1238887D1*
X917115Y-1232850D1*
X892829D1*
X880615Y-1238887D1*
X868542Y-1251100D1*
X862365Y-1263173D1*
X856329Y-1281423D1*
Y-1311887D1*
X862365Y-1329996D1*
X868542Y-1342210D1*
X880615Y-1354283D1*
X892829Y-1360460D1*
X917115D1*
X929189Y-1354283D1*
X941402Y-1342210D1*
X947439Y-1329996D1*
X986654Y-1257277D2*
X998868Y-1251100D1*
X1017118Y-1232990D1*
Y-1360460D1*
X1369990Y-1291960D2*
X1363954Y-1279887D1*
X1351740Y-1267673D1*
X1339667Y-1261637D1*
X1315381D1*
X1303167Y-1267673D1*
X1291094Y-1279887D1*
X1284917Y-1291960D1*
X1278881Y-1310210D1*
Y-1340673D1*
X1284917Y-1358783D1*
X1291094Y-1370996D1*
X1303167Y-1383069D1*
X1315381Y-1389246D1*
X1339667D1*
X1351740Y-1383069D1*
X1363954Y-1370996D1*
X1369990Y-1358783D1*
X1415383Y-1292100D2*
Y-1286064D1*
X1421420Y-1273850D1*
X1427456Y-1267814D1*
X1439670Y-1261777D1*
X1463956D1*
X1476029Y-1267814D1*
X1482066Y-1273850D1*
X1488243Y-1286064D1*
Y-1298137D1*
X1482066Y-1310350D1*
X1469993Y-1328460D1*
X1409206Y-1389246D1*
X1494279D1*
X957114Y-3270793D2*
X951077Y-3258720D1*
X938864Y-3246507D1*
X926791Y-3240470D1*
X902504D1*
X890291Y-3246507D1*
X878218Y-3258720D1*
X872041Y-3270793D1*
X866004Y-3289043D1*
Y-3319507D1*
X872041Y-3337616D1*
X878218Y-3349830D1*
X890291Y-3361903D1*
X902504Y-3368080D1*
X926791D1*
X938864Y-3361903D1*
X951077Y-3349830D1*
X957114Y-3337616D1*
X1008543Y-3240610D2*
X1075226D1*
X1038866Y-3289184D1*
X1057116D1*
X1069189Y-3295220D1*
X1075226Y-3301257D1*
X1081403Y-3319507D1*
Y-3331580D1*
X1075226Y-3349830D1*
X1063153Y-3362043D1*
X1044903Y-3368080D1*
X1026653D1*
X1008543Y-3362043D1*
X1002506Y-3355866D1*
X996329Y-3343793D1*
X3636892Y-3339713D2*
X3630856Y-3327640D1*
X3618642Y-3315427D1*
X3606569Y-3309390D1*
X3582283D1*
X3570069Y-3315427D1*
X3557996Y-3327640D1*
X3551819Y-3339713D1*
X3545783Y-3357963D1*
Y-3388427D1*
X3551819Y-3406536D1*
X3557996Y-3418750D1*
X3570069Y-3430823D1*
X3582283Y-3437000D1*
X3606569D1*
X3618642Y-3430823D1*
X3630856Y-3418750D1*
X3636892Y-3406536D1*
X3736894Y-3437000D2*
Y-3309530D1*
X3676108Y-3394463D1*
X3767217D1*
X5322660Y-3463836D2*
X5316624Y-3451763D1*
X5304410Y-3439550D1*
X5292337Y-3433513D1*
X5268051D1*
X5255837Y-3439550D1*
X5243764Y-3451763D1*
X5237587Y-3463836D1*
X5231551Y-3482086D1*
Y-3512550D1*
X5237587Y-3530660D1*
X5243764Y-3542873D1*
X5255837Y-3554946D1*
X5268051Y-3561123D1*
X5292337D1*
X5304410Y-3554946D1*
X5316624Y-3542873D1*
X5322660Y-3530660D1*
X5434736Y-3433654D2*
X5374090D1*
X5368053Y-3488263D1*
X5374090Y-3482227D1*
X5392340Y-3476050D1*
X5410449D1*
X5428699Y-3482227D1*
X5440913Y-3494300D1*
X5446949Y-3512550D1*
Y-3524623D1*
X5440913Y-3542873D1*
X5428699Y-3555086D1*
X5410449Y-3561123D1*
X5392340D1*
X5374090Y-3555086D1*
X5368053Y-3548910D1*
X5361876Y-3536836D1*
X6114286Y-5249006D2*
X6108249Y-5236933D1*
X6096036Y-5224720D1*
X6083962Y-5218683D1*
X6059676D1*
X6047462Y-5224720D1*
X6035389Y-5236933D1*
X6029212Y-5249006D1*
X6023176Y-5267256D1*
Y-5297720D1*
X6029212Y-5315830D1*
X6035389Y-5328043D1*
X6047462Y-5340116D1*
X6059676Y-5346293D1*
X6083962D1*
X6096036Y-5340116D1*
X6108249Y-5328043D1*
X6114286Y-5315830D1*
X6226361Y-5236933D2*
X6220324Y-5224860D1*
X6202074Y-5218824D1*
X6190001D1*
X6171751Y-5224860D1*
X6159538Y-5243110D1*
X6153501Y-5273433D1*
Y-5303756D1*
X6159538Y-5328043D1*
X6171751Y-5340256D1*
X6190001Y-5346293D1*
X6196038D1*
X6214147Y-5340256D1*
X6226361Y-5328043D1*
X6232397Y-5309793D1*
Y-5303756D1*
X6226361Y-5285506D1*
X6214147Y-5273433D1*
X6196038Y-5267397D1*
X6190001D1*
X6171751Y-5273433D1*
X6159538Y-5285506D1*
X6153501Y-5303756D1*
X1369940Y-5477663D2*
X1363904Y-5465590D1*
X1351690Y-5453377D1*
X1339617Y-5447340D1*
X1315331D1*
X1303117Y-5453377D1*
X1291044Y-5465590D1*
X1284867Y-5477663D1*
X1278831Y-5495913D1*
Y-5526377D1*
X1284867Y-5544486D1*
X1291044Y-5556700D1*
X1303117Y-5568773D1*
X1315331Y-5574950D1*
X1339617D1*
X1351690Y-5568773D1*
X1363904Y-5556700D1*
X1369940Y-5544486D1*
X1433443Y-5574950D2*
X1494229Y-5447480D1*
X1409156D1*
X1036177Y-4616906D2*
X1030141Y-4604833D1*
X1017927Y-4592620D1*
X1005854Y-4586583D1*
X981568D1*
X969354Y-4592620D1*
X957281Y-4604833D1*
X951104Y-4616906D1*
X945068Y-4635156D1*
Y-4665620D1*
X951104Y-4683730D1*
X957281Y-4695943D1*
X969354Y-4708016D1*
X981568Y-4714193D1*
X1005854D1*
X1017927Y-4708016D1*
X1030141Y-4695943D1*
X1036177Y-4683730D1*
X1105716Y-4586724D2*
X1087606Y-4592760D1*
X1081430Y-4604833D1*
Y-4617047D1*
X1087606Y-4629120D1*
X1099680Y-4635297D1*
X1123966Y-4641333D1*
X1142216Y-4647370D1*
X1154289Y-4659583D1*
X1160326Y-4671656D1*
Y-4689906D1*
X1154289Y-4701980D1*
X1148253Y-4708156D1*
X1130003Y-4714193D1*
X1105716D1*
X1087606Y-4708156D1*
X1081430Y-4701980D1*
X1075393Y-4689906D1*
Y-4671656D1*
X1081430Y-4659583D1*
X1093643Y-4647370D1*
X1111753Y-4641333D1*
X1136039Y-4635297D1*
X1148253Y-4629120D1*
X1154289Y-4617047D1*
Y-4604833D1*
X1148253Y-4592760D1*
X1130003Y-4586724D1*
X1105716D1*
X5976592Y-5832100D2*
X5970555Y-5820027D1*
X5958342Y-5807813D1*
X5946269Y-5801777D1*
X5921982D1*
X5909769Y-5807813D1*
X5897696Y-5820027D1*
X5891519Y-5832100D1*
X5885482Y-5850350D1*
Y-5880813D1*
X5891519Y-5898923D1*
X5897696Y-5911136D1*
X5909769Y-5923209D1*
X5921982Y-5929386D1*
X5946269D1*
X5958342Y-5923209D1*
X5970555Y-5911136D1*
X5976592Y-5898923D1*
X6094844Y-5844313D2*
X6088667Y-5862563D1*
X6076594Y-5874777D1*
X6058344Y-5880813D1*
X6052308D1*
X6034058Y-5874777D1*
X6021985Y-5862563D1*
X6015808Y-5844313D1*
Y-5838277D1*
X6021985Y-5820027D1*
X6034058Y-5807954D1*
X6052308Y-5801917D1*
X6058344D1*
X6076594Y-5807954D1*
X6088667Y-5820027D1*
X6094844Y-5844313D1*
Y-5874777D1*
X6088667Y-5905100D1*
X6076594Y-5923350D1*
X6058344Y-5929386D1*
X6046271D1*
X6028021Y-5923350D1*
X6021985Y-5911136D1*
X3008710Y-5544179D2*
X2996637Y-5550215D1*
X2984423Y-5562429D1*
X2978387Y-5574502D1*
Y-5598788D1*
X2984423Y-5611002D1*
X2996637Y-5623075D1*
X3008710Y-5629252D1*
X3026960Y-5635288D1*
X3057423D1*
X3075533Y-5629252D1*
X3087746Y-5623075D1*
X3099820Y-5611002D1*
X3105996Y-5598789D1*
Y-5574502D1*
X3099820Y-5562429D1*
X3087746Y-5550216D1*
X3075533Y-5544179D1*
X3002814Y-5504963D2*
X2996637Y-5492750D1*
X2978527Y-5474500D1*
X3105996D1*
X2978527Y-5398784D2*
X2984564Y-5417034D1*
X3002814Y-5429248D1*
X3033137Y-5435284D1*
X3051387D1*
X3081710Y-5429248D1*
X3099960Y-5417034D1*
X3105996Y-5398784D1*
Y-5386711D1*
X3099960Y-5368461D1*
X3081710Y-5356388D1*
X3051387Y-5350211D1*
X3033137D1*
X3002814Y-5356388D1*
X2984564Y-5368461D1*
X2978527Y-5386711D1*
Y-5398784D1*
X3002814Y-5356388D2*
X3081710Y-5429248D1*
X3008710Y-6895124D2*
X2996637Y-6901161D1*
X2984423Y-6913374D1*
X2978387Y-6925447D1*
Y-6949734D1*
X2984423Y-6961947D1*
X2996637Y-6974020D1*
X3008710Y-6980197D1*
X3026960Y-6986234D1*
X3057423D1*
X3075533Y-6980197D1*
X3087746Y-6974020D1*
X3099820Y-6961947D1*
X3105996Y-6949734D1*
Y-6925447D1*
X3099820Y-6913374D1*
X3087746Y-6901161D1*
X3075533Y-6895124D1*
X3002814Y-6855908D2*
X2996637Y-6843695D1*
X2978527Y-6825445D1*
X3105996D1*
X3002814Y-6786229D2*
X2996637Y-6774016D1*
X2978527Y-6755766D1*
X3105996D1*
X3446321Y-7286836D2*
X3440284Y-7274763D1*
X3428071Y-7262550D1*
X3415998Y-7256513D1*
X3391711D1*
X3379498Y-7262550D1*
X3367425Y-7274763D1*
X3361248Y-7286836D1*
X3355211Y-7305086D1*
Y-7335550D1*
X3361248Y-7353660D1*
X3367425Y-7365873D1*
X3379498Y-7377946D1*
X3391711Y-7384123D1*
X3415998D1*
X3428071Y-7377946D1*
X3440284Y-7365873D1*
X3446321Y-7353660D1*
X3485537Y-7280940D2*
X3497750Y-7274763D1*
X3516000Y-7256654D1*
Y-7384123D1*
X3561393Y-7286977D2*
Y-7280940D1*
X3567429Y-7268727D1*
X3573466Y-7262690D1*
X3585679Y-7256654D1*
X3609966D1*
X3622039Y-7262690D1*
X3628075Y-7268727D1*
X3634252Y-7280940D1*
Y-7293013D1*
X3628075Y-7305227D1*
X3616002Y-7323336D1*
X3555216Y-7384123D1*
X3640289D1*
X4399318Y-7849040D2*
X4393281Y-7836967D1*
X4381068Y-7824753D1*
X4368994Y-7818717D1*
X4344708D1*
X4332494Y-7824753D1*
X4320421Y-7836967D1*
X4314244Y-7849040D1*
X4308208Y-7867290D1*
Y-7897753D1*
X4314244Y-7915863D1*
X4320421Y-7928076D1*
X4332494Y-7940149D1*
X4344708Y-7946326D1*
X4368994D1*
X4381068Y-7940149D1*
X4393281Y-7928076D1*
X4399318Y-7915863D1*
X4438533Y-7843144D2*
X4450747Y-7836967D1*
X4468997Y-7818857D1*
Y-7946326D1*
X4520426Y-7818857D2*
X4587109D1*
X4550749Y-7867430D1*
X4568999D1*
X4581072Y-7873467D1*
X4587109Y-7879503D1*
X4593285Y-7897753D1*
Y-7909826D1*
X4587109Y-7928076D1*
X4575035Y-7940290D1*
X4556785Y-7946326D1*
X4538535D1*
X4520426Y-7940290D1*
X4514389Y-7934113D1*
X4508212Y-7922040D1*
X5258946Y-7833163D2*
X5252909Y-7821090D1*
X5240696Y-7808877D1*
X5228623Y-7802840D1*
X5204336D1*
X5192123Y-7808877D1*
X5180050Y-7821090D1*
X5173873Y-7833163D1*
X5167836Y-7851413D1*
Y-7881877D1*
X5173873Y-7899986D1*
X5180050Y-7912200D1*
X5192123Y-7924273D1*
X5204336Y-7930450D1*
X5228623D1*
X5240696Y-7924273D1*
X5252909Y-7912200D1*
X5258946Y-7899986D1*
X5298162Y-7827267D2*
X5310375Y-7821090D1*
X5328625Y-7802980D1*
Y-7930450D1*
X5428627D2*
Y-7802980D1*
X5367841Y-7887913D1*
X5458950D1*
X4328603Y-3002140D2*
Y-3129750D1*
X4371139D1*
X4389389Y-3123573D1*
X4401603Y-3111500D1*
X4407639Y-3099286D1*
X4413676Y-3081177D1*
Y-3050713D1*
X4407639Y-3032463D1*
X4401603Y-3020390D1*
X4389389Y-3008177D1*
X4371139Y-3002140D1*
X4328603D1*
X4452892D2*
Y-3129750D1*
X4495428D1*
X4513678Y-3123573D1*
X4525892Y-3111500D1*
X4531928Y-3099286D1*
X4537965Y-3081177D1*
Y-3050713D1*
X4531928Y-3032463D1*
X4525892Y-3020390D1*
X4513678Y-3008177D1*
X4495428Y-3002140D1*
X4452892D1*
X4577180Y-3026567D2*
X4589394Y-3020390D1*
X4607644Y-3002280D1*
Y-3129750D1*
X4341675Y-5460763D2*
Y-5588373D1*
X4384211D1*
X4402461Y-5582196D1*
X4414675Y-5570123D1*
X4420711Y-5557910D1*
X4426748Y-5539800D1*
Y-5509336D1*
X4420711Y-5491086D1*
X4414675Y-5479013D1*
X4402461Y-5466800D1*
X4384211Y-5460763D1*
X4341675D1*
X4465963D2*
Y-5588373D1*
X4508500D1*
X4526750Y-5582196D1*
X4538963Y-5570123D1*
X4545000Y-5557910D1*
X4551037Y-5539800D1*
Y-5509336D1*
X4545000Y-5491086D1*
X4538963Y-5479013D1*
X4526750Y-5466800D1*
X4508500Y-5460763D1*
X4465963D1*
X4596429Y-5491227D2*
Y-5485190D1*
X4602466Y-5472977D1*
X4608502Y-5466940D1*
X4620716Y-5460904D1*
X4645002D1*
X4657075Y-5466940D1*
X4663112Y-5472977D1*
X4669289Y-5485190D1*
Y-5497263D1*
X4663112Y-5509477D1*
X4651039Y-5527586D1*
X4590252Y-5588373D1*
X4675325D1*
X1408530Y-5966500D2*
Y-6063646D1*
X1402494Y-6081896D1*
X1396317Y-6087933D1*
X1384244Y-6094110D1*
X1372030D1*
X1359957Y-6087933D1*
X1353921Y-6081896D1*
X1347744Y-6063646D1*
Y-6051573D1*
X1447746Y-5990927D2*
X1459960Y-5984750D1*
X1478210Y-5966640D1*
Y-6094110D1*
X1230617Y-3262140D2*
Y-3389750D1*
X1303477D1*
X1342693Y-3286567D2*
X1354906Y-3280390D1*
X1373156Y-3262280D1*
Y-3389750D1*
X3229013Y-6766074D2*
X3356623D1*
Y-6693214D1*
X3259477Y-6647822D2*
X3253440D1*
X3241227Y-6641785D1*
X3235190Y-6635749D1*
X3229154Y-6623535D1*
Y-6599249D1*
X3235190Y-6587176D1*
X3241227Y-6581139D1*
X3253440Y-6574962D1*
X3265514D1*
X3277727Y-6581139D1*
X3295837Y-6593212D1*
X3356623Y-6653999D1*
Y-6568926D1*
X2547050Y-2334502D2*
Y-2279893D1*
X2540873Y-2261643D1*
X2534837Y-2255466D1*
X2522764Y-2249429D1*
X2510550D1*
X2498477Y-2255466D1*
X2492300Y-2261643D1*
X2486263Y-2279893D1*
Y-2334502D1*
X2613873D1*
X2547050Y-2291966D2*
X2613873Y-2249430D1*
X2510690Y-2210214D2*
X2504514Y-2198000D1*
X2486404Y-2179750D1*
X2613873Y-2179751D1*
X2816927Y-2393557D2*
Y-2338948D1*
X2810750Y-2320698D1*
X2804713Y-2314521D1*
X2792640Y-2308484D1*
X2780427D1*
X2768354Y-2314521D1*
X2762177Y-2320698D1*
X2756140Y-2338948D1*
Y-2393557D1*
X2883750D1*
X2816927Y-2351021D2*
X2883750Y-2308484D1*
X2786604Y-2263092D2*
X2780567D1*
X2768354Y-2257055D1*
X2762317Y-2251019D1*
X2756281Y-2238805D1*
Y-2214519D1*
X2762317Y-2202446D1*
X2768354Y-2196409D1*
X2780567Y-2190232D1*
X2792640D1*
X2804854Y-2196409D1*
X2822963Y-2208482D1*
X2883750Y-2269269D1*
Y-2184196D1*
X3055050Y-2393557D2*
Y-2338948D1*
X3048873Y-2320698D1*
X3042837Y-2314521D1*
X3030764Y-2308484D1*
X3018550D1*
X3006477Y-2314521D1*
X3000300Y-2320698D1*
X2994263Y-2338948D1*
Y-2393557D1*
X3121873D1*
X3055050Y-2351021D2*
X3121873Y-2308484D1*
X2994404Y-2257055D2*
Y-2190373D1*
X3042977Y-2226732D1*
Y-2208482D1*
X3049014Y-2196409D1*
X3055050Y-2190373D1*
X3073300Y-2184196D1*
X3085373D1*
X3103623Y-2190373D1*
X3115837Y-2202446D1*
X3121873Y-2220696D1*
Y-2238946D1*
X3115837Y-2257055D1*
X3109660Y-2263092D1*
X3097587Y-2269269D1*
X3324927Y-2396576D2*
Y-2341966D1*
X3318750Y-2323716D1*
X3312713Y-2317539D1*
X3300640Y-2311503D1*
X3288427D1*
X3276354Y-2317539D1*
X3270177Y-2323716D1*
X3264140Y-2341966D1*
Y-2396576D1*
X3391750D1*
X3324927Y-2354039D2*
X3391750Y-2311503D1*
Y-2211501D2*
X3264281Y-2211500D1*
X3349213Y-2272287D1*
Y-2181177D1*
X3563053Y-2409431D2*
Y-2354821D1*
X3556876Y-2336571D1*
X3550840Y-2330394D1*
X3538767Y-2324358D1*
X3526553D1*
X3514480Y-2330394D1*
X3508303Y-2336571D1*
X3502267Y-2354821D1*
Y-2409431D1*
X3629876D1*
X3563053Y-2366894D2*
X3629876Y-2324358D1*
X3502407Y-2212282D2*
Y-2272928D1*
X3557017Y-2278965D1*
X3550980Y-2272929D1*
X3544803Y-2254679D1*
Y-2236569D1*
X3550980Y-2218319D1*
X3563053Y-2206106D1*
X3581303Y-2200069D1*
X3593376D1*
X3611626Y-2206106D1*
X3623840Y-2218319D1*
X3629876Y-2236569D1*
Y-2254679D1*
X3623840Y-2272929D1*
X3617663Y-2278965D1*
X3605590Y-2285142D1*
X3832927Y-2406342D2*
Y-2351733D1*
X3826750Y-2333483D1*
X3820713Y-2327306D1*
X3808640Y-2321269D1*
X3796427D1*
X3784354Y-2327306D1*
X3778177Y-2333483D1*
X3772140Y-2351733D1*
Y-2406342D1*
X3899750D1*
X3832927Y-2363806D2*
X3899750Y-2321269D1*
X3790390Y-2209194D2*
X3778317Y-2215230D1*
X3772281Y-2233480D1*
Y-2245554D1*
X3778317Y-2263803D1*
X3796567Y-2276017D1*
X3826890Y-2282054D1*
X3857213D1*
X3881500Y-2276017D1*
X3893713Y-2263804D1*
X3899750Y-2245554D1*
Y-2239517D1*
X3893713Y-2221408D1*
X3881500Y-2209194D1*
X3863250Y-2203157D1*
X3857213D1*
X3838963Y-2209194D1*
X3826890Y-2221407D1*
X3820854Y-2239517D1*
Y-2245554D1*
X3826890Y-2263804D1*
X3838963Y-2276017D1*
X3857213Y-2282054D1*
X4086927Y-2409431D2*
Y-2354821D1*
X4080750Y-2336571D1*
X4074713Y-2330394D1*
X4062640Y-2324358D1*
X4050427D1*
X4038354Y-2330394D1*
X4032177Y-2336571D1*
X4026140Y-2354821D1*
Y-2409431D1*
X4153750D1*
X4086927Y-2366894D2*
X4153750Y-2324358D1*
Y-2260856D2*
X4026281Y-2200069D1*
Y-2285142D1*
X4340927Y-2409360D2*
Y-2354751D1*
X4334750Y-2336501D1*
X4328713Y-2330324D1*
X4316640Y-2324287D1*
X4304427D1*
X4292354Y-2330324D1*
X4286177Y-2336501D1*
X4280140Y-2354751D1*
Y-2409360D1*
X4407750D1*
X4340927Y-2366824D2*
X4407750Y-2324288D1*
X4280281Y-2254749D2*
X4286317Y-2272858D1*
X4298390Y-2279035D1*
X4310604D1*
X4322677Y-2272858D1*
X4328854Y-2260785D1*
X4334890Y-2236499D1*
X4340927Y-2218249D1*
X4353140Y-2206176D1*
X4365213Y-2200139D1*
X4383463D1*
X4395536Y-2206176D1*
X4401713Y-2212212D1*
X4407750Y-2230462D1*
Y-2254749D1*
X4401713Y-2272858D1*
X4395536Y-2279035D1*
X4383463Y-2285072D1*
X4365213D1*
X4353140Y-2279035D1*
X4340927Y-2266822D1*
X4334890Y-2248712D1*
X4328854Y-2224426D1*
X4322677Y-2212212D1*
X4310604Y-2206176D1*
X4298390D1*
X4286317Y-2212212D1*
X4280281Y-2230462D1*
Y-2254749D1*
X4594927Y-2406412D2*
Y-2351803D1*
X4588750Y-2333553D1*
X4582713Y-2327376D1*
X4570640Y-2321339D1*
X4558427D1*
X4546354Y-2327376D1*
X4540177Y-2333553D1*
X4534140Y-2351803D1*
Y-2406412D1*
X4661750D1*
X4594927Y-2363876D2*
X4661750Y-2321339D1*
X4576677Y-2203087D2*
X4594927Y-2209264D1*
X4607140Y-2221337D1*
X4613177Y-2239587D1*
Y-2245624D1*
X4607140Y-2263874D1*
X4594927Y-2275947D1*
X4576677Y-2282124D1*
X4570640D1*
X4552390Y-2275947D1*
X4540317Y-2263874D1*
X4534281Y-2245624D1*
Y-2239587D1*
X4540317Y-2221337D1*
X4552390Y-2209264D1*
X4576677Y-2203087D1*
X4607140D1*
X4637463Y-2209264D1*
X4655713Y-2221337D1*
X4661750Y-2239587D1*
Y-2251660D1*
X4655713Y-2269910D1*
X4643500Y-2275947D1*
X4833053Y-2412520D2*
Y-2357911D1*
X4826876Y-2339661D1*
X4820840Y-2333484D1*
X4808767Y-2327447D1*
X4796553D1*
X4784480Y-2333484D1*
X4778303Y-2339661D1*
X4772267Y-2357911D1*
Y-2412520D1*
X4899876D1*
X4833053Y-2369984D2*
X4899876Y-2327447D1*
X4796694Y-2288232D2*
X4790517Y-2276018D1*
X4772407Y-2257768D1*
X4899876D1*
X4772407Y-2182052D2*
X4778444Y-2200302D1*
X4796694Y-2212516D1*
X4827017Y-2218552D1*
X4845267Y-2218553D1*
X4875590Y-2212516D1*
X4893840Y-2200303D1*
X4899876Y-2182053D1*
Y-2169979D1*
X4893840Y-2151729D1*
X4875590Y-2139656D1*
X4845267Y-2133479D1*
X4827017D1*
X4796694Y-2139656D1*
X4778444Y-2151729D1*
X4772407Y-2169979D1*
Y-2182052D1*
X4796694Y-2139656D2*
X4875590Y-2212516D1*
X5087070Y-2401135D2*
Y-2346526D1*
X5080893Y-2328276D1*
X5074857Y-2322099D1*
X5062784Y-2316062D1*
X5050570D1*
X5038497Y-2322099D1*
X5032320Y-2328276D1*
X5026283Y-2346526D1*
Y-2401135D1*
X5153893D1*
X5087070Y-2358599D2*
X5153893Y-2316063D1*
X5050710Y-2276847D2*
X5044534Y-2264633D1*
X5026424Y-2246383D1*
X5153893D1*
X5050710Y-2207168D2*
X5044534Y-2194954D1*
X5026424Y-2176704D1*
X5153893D1*
X5341073Y-2412563D2*
Y-2357954D1*
X5334896Y-2339704D1*
X5328860Y-2333527D1*
X5316787Y-2327491D1*
X5304573Y-2327490D1*
X5292500Y-2333527D1*
X5286323Y-2339704D1*
X5280287Y-2357954D1*
Y-2412563D1*
X5407896D1*
X5341073Y-2370027D2*
X5407896Y-2327491D1*
X5304714Y-2288275D2*
X5298537Y-2276061D1*
X5280427Y-2257811D1*
X5407896Y-2257812D1*
X5310750Y-2212419D2*
X5304714D1*
X5292500Y-2206382D1*
X5286464Y-2200346D1*
X5280427Y-2188132D1*
Y-2163846D1*
X5286464Y-2151773D1*
X5292500Y-2145736D1*
X5304714Y-2139559D1*
X5316787D1*
X5329000Y-2145736D1*
X5347110Y-2157809D1*
X5407896Y-2218596D1*
Y-2133523D1*
X5610950Y-2412563D2*
Y-2357954D1*
X5604773Y-2339704D1*
X5598737Y-2333527D1*
X5586664Y-2327491D1*
X5574450Y-2327490D1*
X5562377Y-2333527D1*
X5556200Y-2339704D1*
X5550163Y-2357954D1*
Y-2412563D1*
X5677773D1*
X5610950Y-2370027D2*
X5677773Y-2327491D1*
X5574590Y-2288275D2*
X5568414Y-2276061D1*
X5550304Y-2257811D1*
X5677773Y-2257812D1*
X5550304Y-2206382D2*
Y-2139700D1*
X5598877Y-2176059D1*
Y-2157809D1*
X5604914Y-2145736D1*
X5610950Y-2139700D1*
X5629200Y-2133523D1*
X5641273D1*
X5659523Y-2139700D1*
X5671737Y-2151773D1*
X5677773Y-2170023D1*
Y-2188273D1*
X5671737Y-2206382D1*
X5665560Y-2212419D1*
X5653487Y-2218596D1*
X5849073Y-2415582D2*
Y-2360972D1*
X5842896Y-2342722D1*
X5836860Y-2336545D1*
X5824787Y-2330509D1*
X5812573D1*
X5800500Y-2336545D1*
X5794323Y-2342722D1*
X5788287Y-2360972D1*
Y-2415582D1*
X5915896D1*
X5849073Y-2373045D2*
X5915896Y-2330509D1*
X5812714Y-2291293D2*
X5806537Y-2279080D1*
X5788427Y-2260830D1*
X5915896D1*
Y-2160828D2*
X5788427D1*
X5873360Y-2221614D1*
Y-2130505D1*
X6103073Y-2412563D2*
Y-2357954D1*
X6096896Y-2339704D1*
X6090860Y-2333527D1*
X6078787Y-2327491D1*
X6066573Y-2327490D1*
X6054500Y-2333527D1*
X6048323Y-2339704D1*
X6042287Y-2357954D1*
Y-2412563D1*
X6169896D1*
X6103073Y-2370027D2*
X6169896Y-2327491D1*
X6066714Y-2288275D2*
X6060537Y-2276061D1*
X6042427Y-2257811D1*
X6169896Y-2257812D1*
X6042427Y-2145736D2*
Y-2206382D1*
X6097037Y-2212419D1*
X6091000Y-2206382D1*
X6084823Y-2188132D1*
Y-2170023D1*
X6091000Y-2151773D1*
X6103073Y-2139559D1*
X6121323Y-2133523D1*
X6133396D1*
X6151646Y-2139559D1*
X6163860Y-2151773D1*
X6169896Y-2170023D1*
Y-2188132D1*
X6163860Y-2206382D1*
X6157683Y-2212419D1*
X6145610Y-2218596D1*
X6357073Y-2409475D2*
Y-2354865D1*
X6350896Y-2336616D1*
X6344860Y-2330439D1*
X6332787Y-2324402D1*
X6320573D1*
X6308500Y-2330439D1*
X6302323Y-2336615D1*
X6296287Y-2354865D1*
Y-2409475D1*
X6423896D1*
X6357073Y-2366939D2*
X6423896Y-2324402D1*
X6320714Y-2285186D2*
X6314537Y-2272973D1*
X6296427Y-2254723D1*
X6423896D1*
X6314537Y-2142648D2*
X6302464Y-2148684D1*
X6296427Y-2166934D1*
Y-2179007D1*
X6302464Y-2197257D1*
X6320714Y-2209471D1*
X6351037Y-2215507D1*
X6381360D1*
X6405646Y-2209471D1*
X6417860Y-2197257D1*
X6423896Y-2179007D1*
Y-2172971D1*
X6417860Y-2154861D1*
X6405646Y-2142648D1*
X6387396Y-2136611D1*
X6381360D1*
X6363110Y-2142648D1*
X6351037Y-2154861D1*
X6345000Y-2172971D1*
Y-2179007D1*
X6351037Y-2197257D1*
X6363110Y-2209471D1*
X6381360Y-2215507D1*
X1104176Y-2052793D2*
X1158786D1*
X1177036Y-2046616D1*
X1183213Y-2040580D1*
X1189249Y-2028507D1*
Y-2016293D1*
X1183213Y-2004220D1*
X1177036Y-1998043D1*
X1158786Y-1992007D1*
X1104176D1*
Y-2119616D1*
X1146713Y-2052793D2*
X1189249Y-2119616D1*
X1228465Y-2016434D2*
X1240678Y-2010257D1*
X1258928Y-1992147D1*
Y-2119616D1*
X1322431D2*
X1383217Y-1992147D1*
X1298144D1*
X1466503Y-2049917D2*
X1521113D1*
X1539363Y-2043740D1*
X1545540Y-2037703D1*
X1551576Y-2025630D1*
Y-2013417D1*
X1545540Y-2001344D1*
X1539363Y-1995167D1*
X1521113Y-1989130D1*
X1466503D1*
Y-2116740D1*
X1509040Y-2049917D2*
X1551576Y-2116740D1*
X1590792Y-2013557D2*
X1603005Y-2007380D1*
X1621255Y-1989270D1*
Y-2116740D1*
X1690794Y-1989270D2*
X1672684Y-1995307D1*
X1666507Y-2007380D1*
Y-2019594D1*
X1672684Y-2031667D1*
X1684757Y-2037844D1*
X1709044Y-2043880D1*
X1727294Y-2049917D1*
X1739367Y-2062130D1*
X1745404Y-2074203D1*
Y-2092453D1*
X1739367Y-2104526D1*
X1733331Y-2110703D1*
X1715081Y-2116740D1*
X1690794D1*
X1672684Y-2110703D1*
X1666507Y-2104526D1*
X1660471Y-2092453D1*
Y-2074203D1*
X1666507Y-2062130D1*
X1678721Y-2049917D1*
X1696831Y-2043880D1*
X1721117Y-2037844D1*
X1733331Y-2031667D1*
X1739367Y-2019594D1*
Y-2007380D1*
X1733331Y-1995307D1*
X1715081Y-1989270D1*
X1690794D1*
X1821588Y-2052793D2*
X1876197D1*
X1894447Y-2046616D1*
X1900624Y-2040580D1*
X1906661Y-2028507D1*
Y-2016293D1*
X1900624Y-2004220D1*
X1894447Y-1998043D1*
X1876197Y-1992007D1*
X1821588D1*
Y-2119616D1*
X1864124Y-2052793D2*
X1906661Y-2119616D1*
X1945877Y-2016434D2*
X1958090Y-2010257D1*
X1976340Y-1992147D1*
Y-2119616D1*
X2094592Y-2034543D2*
X2088415Y-2052793D1*
X2076342Y-2065007D1*
X2058092Y-2071043D1*
X2052056D1*
X2033806Y-2065007D1*
X2021733Y-2052793D1*
X2015556Y-2034543D1*
Y-2028507D1*
X2021733Y-2010257D1*
X2033806Y-1998184D1*
X2052056Y-1992147D1*
X2058092D1*
X2076342Y-1998184D1*
X2088415Y-2010257D1*
X2094592Y-2034543D1*
Y-2065007D1*
X2088415Y-2095330D1*
X2076342Y-2113580D1*
X2058092Y-2119616D1*
X2046019D1*
X2027769Y-2113580D1*
X2021733Y-2101366D1*
X2680048Y-3560673D2*
X2734658D1*
X2752908Y-3554496D1*
X2759085Y-3548460D1*
X2765121Y-3536387D1*
Y-3524173D1*
X2759085Y-3512100D1*
X2752908Y-3505923D1*
X2734658Y-3499887D1*
X2680048D1*
Y-3627496D1*
X2722585Y-3560673D2*
X2765121Y-3627496D1*
X2810514Y-3530350D2*
Y-3524314D1*
X2816550Y-3512100D1*
X2822587Y-3506064D1*
X2834800Y-3500027D1*
X2859087D1*
X2871160Y-3506064D1*
X2877196Y-3512100D1*
X2883373Y-3524314D1*
Y-3536387D1*
X2877196Y-3548600D1*
X2865123Y-3566710D1*
X2804337Y-3627496D1*
X2889410D1*
X2965126Y-3500027D2*
X2946876Y-3506064D1*
X2934662Y-3524314D1*
X2928626Y-3554637D1*
Y-3572887D1*
X2934662Y-3603210D1*
X2946876Y-3621460D1*
X2965126Y-3627496D1*
X2977199D1*
X2995449Y-3621460D1*
X3007522Y-3603210D1*
X3013699Y-3572887D1*
Y-3554637D1*
X3007522Y-3524314D1*
X2995449Y-3506064D1*
X2977199Y-3500027D1*
X2965126D1*
X3007522Y-3524314D2*
X2934662Y-3603210D1*
X2167650Y-4021063D2*
X2222259D1*
X2240509Y-4014886D1*
X2246686Y-4008850D1*
X2252723Y-3996777D1*
Y-3984563D1*
X2246686Y-3972490D1*
X2240509Y-3966313D1*
X2222259Y-3960277D1*
X2167650D1*
Y-4087886D1*
X2210186Y-4021063D2*
X2252723Y-4087886D1*
X2298115Y-3990740D2*
Y-3984704D1*
X2304152Y-3972490D1*
X2310188Y-3966454D1*
X2322402Y-3960417D1*
X2346688D1*
X2358761Y-3966454D1*
X2364798Y-3972490D1*
X2370975Y-3984704D1*
Y-3996777D1*
X2364798Y-4008990D1*
X2352725Y-4027100D1*
X2291938Y-4087886D1*
X2377011D1*
X2416227Y-3984704D2*
X2428440Y-3978527D1*
X2446690Y-3960417D1*
Y-4087886D1*
X2172095Y-4703690D2*
X2226704D1*
X2244954Y-4697513D1*
X2251131Y-4691476D1*
X2257168Y-4679403D1*
Y-4667190D1*
X2251131Y-4655117D1*
X2244954Y-4648940D1*
X2226704Y-4642903D1*
X2172095D1*
Y-4770513D1*
X2214631Y-4703690D2*
X2257168Y-4770513D1*
X2302560Y-4673367D2*
Y-4667330D1*
X2308597Y-4655117D1*
X2314633Y-4649080D1*
X2326847Y-4643044D1*
X2351133D1*
X2363207Y-4649080D1*
X2369243Y-4655117D1*
X2375420Y-4667330D1*
Y-4679403D1*
X2369243Y-4691617D1*
X2357170Y-4709726D1*
X2296383Y-4770513D1*
X2381457D1*
X2426849Y-4673367D2*
Y-4667330D1*
X2432886Y-4655117D1*
X2438922Y-4649080D1*
X2451136Y-4643044D1*
X2475422D1*
X2487495Y-4649080D1*
X2493532Y-4655117D1*
X2499709Y-4667330D1*
Y-4679403D1*
X2493532Y-4691617D1*
X2481459Y-4709726D1*
X2420672Y-4770513D1*
X2505745D1*
X3648425Y-4796050D2*
X3703034D1*
X3721284Y-4789873D1*
X3727461Y-4783836D1*
X3733498Y-4771763D1*
Y-4759550D1*
X3727461Y-4747477D1*
X3721284Y-4741300D1*
X3703034Y-4735263D1*
X3648425D1*
Y-4862873D1*
X3690961Y-4796050D2*
X3733498Y-4862873D1*
X3778890Y-4765727D2*
Y-4759690D1*
X3784927Y-4747477D1*
X3790963Y-4741440D1*
X3803177Y-4735404D1*
X3827463D1*
X3839537Y-4741440D1*
X3845573Y-4747477D1*
X3851750Y-4759690D1*
Y-4771763D1*
X3845573Y-4783977D1*
X3833500Y-4802086D1*
X3772713Y-4862873D1*
X3857787D1*
X3909216Y-4735404D2*
X3975898D1*
X3939539Y-4783977D1*
X3957789D1*
X3969862Y-4790013D1*
X3975898Y-4796050D1*
X3982075Y-4814300D1*
Y-4826373D1*
X3975898Y-4844623D1*
X3963825Y-4856836D1*
X3945575Y-4862873D1*
X3927325D1*
X3909216Y-4856836D1*
X3903179Y-4850660D1*
X3897002Y-4838586D1*
X4074033Y-4796050D2*
X4128643D1*
X4146893Y-4789873D1*
X4153070Y-4783836D1*
X4159106Y-4771763D1*
Y-4759550D1*
X4153070Y-4747477D1*
X4146893Y-4741300D1*
X4128643Y-4735263D1*
X4074033D1*
Y-4862873D1*
X4116570Y-4796050D2*
X4159106Y-4862873D1*
X4204499Y-4765727D2*
Y-4759690D1*
X4210535Y-4747477D1*
X4216572Y-4741440D1*
X4228785Y-4735404D1*
X4253072D1*
X4265145Y-4741440D1*
X4271181Y-4747477D1*
X4277358Y-4759690D1*
Y-4771763D1*
X4271181Y-4783977D1*
X4259108Y-4802086D1*
X4198322Y-4862873D1*
X4283395D1*
X4383397D2*
Y-4735404D1*
X4322611Y-4820336D1*
X4413720D1*
X4600965Y-4973567D2*
X4655574D1*
X4673824Y-4967390D1*
X4680001Y-4961353D1*
X4686038Y-4949280D1*
Y-4937067D1*
X4680001Y-4924994D1*
X4673824Y-4918817D1*
X4655574Y-4912780D1*
X4600965D1*
Y-5040390D1*
X4643501Y-4973567D2*
X4686038Y-5040390D1*
X4731430Y-4943244D2*
Y-4937207D1*
X4737467Y-4924994D1*
X4743503Y-4918957D1*
X4755717Y-4912920D1*
X4780003D1*
X4792077Y-4918957D1*
X4798113Y-4924994D1*
X4804290Y-4937207D1*
Y-4949280D1*
X4798113Y-4961494D1*
X4786040Y-4979603D1*
X4725253Y-5040390D1*
X4810327D1*
X4922402Y-4912920D2*
X4861756D1*
X4855719Y-4967530D1*
X4861756Y-4961494D1*
X4880006Y-4955317D1*
X4898115D1*
X4916365Y-4961494D1*
X4928579Y-4973567D1*
X4934615Y-4991817D1*
Y-5003890D1*
X4928579Y-5022140D1*
X4916365Y-5034353D1*
X4898115Y-5040390D1*
X4880006D1*
X4861756Y-5034353D1*
X4855719Y-5028176D1*
X4849542Y-5016103D1*
X2531173Y-5640613D2*
Y-5586004D1*
X2524996Y-5567754D1*
X2518960Y-5561577D1*
X2506887Y-5555540D1*
X2494673D1*
X2482600Y-5561577D1*
X2476423Y-5567754D1*
X2470387Y-5586004D1*
Y-5640613D1*
X2597996D1*
X2531173Y-5598077D2*
X2597996Y-5555540D1*
X2500850Y-5510148D2*
X2494814D1*
X2482600Y-5504111D1*
X2476564Y-5498075D1*
X2470527Y-5485861D1*
Y-5461575D1*
X2476564Y-5449502D1*
X2482600Y-5443465D1*
X2494814Y-5437288D1*
X2506887D1*
X2519100Y-5443465D1*
X2537210Y-5455538D1*
X2597996Y-5516325D1*
Y-5431252D1*
X2488637Y-5319176D2*
X2476564Y-5325213D1*
X2470527Y-5343463D1*
Y-5355536D1*
X2476564Y-5373786D1*
X2494814Y-5385999D1*
X2525137Y-5392036D1*
X2555460D1*
X2579746Y-5385999D1*
X2591960Y-5373786D1*
X2597996Y-5355536D1*
Y-5349499D1*
X2591960Y-5331390D1*
X2579746Y-5319176D1*
X2561496Y-5313140D1*
X2555460D1*
X2537210Y-5319176D1*
X2525137Y-5331390D1*
X2519100Y-5349499D1*
Y-5355536D1*
X2525137Y-5373786D1*
X2537210Y-5385999D1*
X2555460Y-5392036D1*
X2801050Y-5643702D2*
Y-5589092D1*
X2794873Y-5570842D1*
X2788837Y-5564665D1*
X2776764Y-5558629D1*
X2764550D1*
X2752477Y-5564665D1*
X2746300Y-5570842D1*
X2740263Y-5589092D1*
Y-5643702D1*
X2867873D1*
X2801050Y-5601165D2*
X2867873Y-5558629D1*
X2770727Y-5513236D2*
X2764690D1*
X2752477Y-5507200D1*
X2746440Y-5501163D1*
X2740404Y-5488950D1*
Y-5464663D1*
X2746440Y-5452590D1*
X2752477Y-5446553D1*
X2764690Y-5440377D1*
X2776764D1*
X2788977Y-5446553D1*
X2807087Y-5458627D1*
X2867873Y-5519413D1*
Y-5434340D1*
Y-5370838D2*
X2740404Y-5310051D1*
Y-5395124D1*
X3293173Y-5627755D2*
Y-5573145D1*
X3286996Y-5554895D1*
X3280960Y-5548718D1*
X3268887Y-5542682D1*
X3256673D1*
X3244600Y-5548718D1*
X3238423Y-5554895D1*
X3232387Y-5573145D1*
Y-5627755D1*
X3359996D1*
X3293173Y-5585218D2*
X3359996Y-5542682D1*
X3262850Y-5497289D2*
X3256814D1*
X3244600Y-5491253D1*
X3238564Y-5485216D1*
X3232527Y-5473003D1*
Y-5448716D1*
X3238564Y-5436643D1*
X3244600Y-5430607D1*
X3256814Y-5424430D1*
X3268887D1*
X3281100Y-5430607D1*
X3299210Y-5442680D1*
X3359996Y-5503466D1*
Y-5418393D1*
X3232527Y-5348854D2*
X3238564Y-5366964D1*
X3250637Y-5373141D1*
X3262850D1*
X3274923Y-5366964D1*
X3281100Y-5354891D1*
X3287137Y-5330604D1*
X3293173Y-5312354D1*
X3305387Y-5300281D1*
X3317460Y-5294245D1*
X3335710D1*
X3347783Y-5300281D1*
X3353960Y-5306318D1*
X3359996Y-5324568D1*
Y-5348854D1*
X3353960Y-5366964D1*
X3347783Y-5373141D1*
X3335710Y-5379178D1*
X3317460D1*
X3305387Y-5373141D1*
X3293173Y-5360928D1*
X3287137Y-5342818D1*
X3281100Y-5318531D1*
X3274923Y-5306318D1*
X3262850Y-5300281D1*
X3250637D1*
X3238564Y-5306318D1*
X3232527Y-5324568D1*
Y-5348854D1*
X2531177Y-7069433D2*
Y-7014824D1*
X2525000Y-6996574D1*
X2518963Y-6990397D1*
X2506890Y-6984360D1*
X2494677D1*
X2482604Y-6990397D1*
X2476427Y-6996574D1*
X2470390Y-7014824D1*
Y-7069433D1*
X2598000D1*
X2531177Y-7026897D2*
X2598000Y-6984361D1*
X2500854Y-6938968D2*
X2494817D1*
X2482604Y-6932931D1*
X2476567Y-6926895D1*
X2470531Y-6914681D1*
Y-6890395D1*
X2476567Y-6878322D1*
X2482604Y-6872285D1*
X2494817Y-6866108D1*
X2506890D1*
X2519104Y-6872285D1*
X2537213Y-6884358D1*
X2598000Y-6945145D1*
Y-6860072D1*
X2512927Y-6741820D2*
X2531177Y-6747997D1*
X2543390Y-6760070D1*
X2549427Y-6778320D1*
Y-6784356D1*
X2543390Y-6802606D1*
X2531177Y-6814679D1*
X2512927Y-6820856D1*
X2506890D1*
X2488640Y-6814679D1*
X2476567Y-6802606D1*
X2470531Y-6784356D1*
Y-6778320D1*
X2476567Y-6760070D1*
X2488640Y-6747996D1*
X2512927Y-6741820D1*
X2543390D1*
X2573713Y-6747997D1*
X2591963Y-6760070D1*
X2598000Y-6778320D1*
Y-6790393D1*
X2591963Y-6808643D1*
X2579750Y-6814679D1*
X2785177Y-7072452D2*
Y-7017842D1*
X2779000Y-6999592D1*
X2772963Y-6993415D1*
X2760890Y-6987379D1*
X2748677D1*
X2736604Y-6993415D1*
X2730427Y-6999592D1*
X2724390Y-7017842D1*
Y-7072452D1*
X2852000D1*
X2785177Y-7029915D2*
X2852000Y-6987379D1*
X2724531Y-6935950D2*
Y-6869267D1*
X2773104Y-6905627D1*
Y-6887377D1*
X2779140Y-6875303D1*
X2785177Y-6869267D1*
X2803427Y-6863090D1*
X2815500D1*
X2833750Y-6869267D1*
X2845963Y-6881340D1*
X2852000Y-6899590D1*
Y-6917840D1*
X2845963Y-6935950D1*
X2839786Y-6941986D1*
X2827713Y-6948163D1*
X2724531Y-6787374D2*
X2730567Y-6805624D1*
X2748817Y-6817838D1*
X2779140Y-6823874D1*
X2797390D1*
X2827713Y-6817838D1*
X2845963Y-6805624D1*
X2852000Y-6787374D1*
Y-6775301D1*
X2845963Y-6757051D1*
X2827713Y-6744978D1*
X2797390Y-6738801D1*
X2779140D1*
X2748817Y-6744978D1*
X2730567Y-6757051D1*
X2724531Y-6775301D1*
Y-6787374D1*
X2748817Y-6744978D2*
X2827713Y-6817838D1*
X5183833Y-7603077D2*
X5238442D1*
X5256692Y-7596900D1*
X5262869Y-7590863D1*
X5268906Y-7578790D1*
Y-7566577D1*
X5262869Y-7554504D1*
X5256692Y-7548327D1*
X5238442Y-7542290D1*
X5183833D1*
Y-7669900D1*
X5226369Y-7603077D2*
X5268906Y-7669900D1*
X5320335Y-7542430D2*
X5387018D1*
X5350658Y-7591004D1*
X5368908D1*
X5380981Y-7597040D1*
X5387018Y-7603077D1*
X5393195Y-7621327D1*
Y-7633400D1*
X5387018Y-7651650D1*
X5374945Y-7663863D1*
X5356695Y-7669900D1*
X5338445D1*
X5320335Y-7663863D1*
X5314299Y-7657686D1*
X5308122Y-7645613D1*
X5432410Y-7566717D2*
X5444624Y-7560540D1*
X5462874Y-7542430D1*
Y-7669900D1*
X5997971Y-7587190D2*
X6052581D1*
X6070831Y-7581013D1*
X6077008Y-7574976D1*
X6083044Y-7562903D1*
Y-7550690D1*
X6077008Y-7538617D1*
X6070831Y-7532440D1*
X6052581Y-7526403D1*
X5997971D1*
Y-7654013D1*
X6040508Y-7587190D2*
X6083044Y-7654013D1*
X6134474Y-7526544D2*
X6201156D1*
X6164797Y-7575117D1*
X6183047D1*
X6195120Y-7581153D1*
X6201156Y-7587190D1*
X6207333Y-7605440D1*
Y-7617513D1*
X6201156Y-7635763D1*
X6189083Y-7647976D1*
X6170833Y-7654013D1*
X6152583D1*
X6134474Y-7647976D1*
X6128437Y-7641800D1*
X6122260Y-7629726D1*
X6252726Y-7556867D2*
Y-7550830D1*
X6258762Y-7538617D1*
X6264799Y-7532580D1*
X6277012Y-7526544D1*
X6301299D1*
X6313372Y-7532580D1*
X6319409Y-7538617D1*
X6325585Y-7550830D1*
Y-7562903D1*
X6319409Y-7575117D1*
X6307335Y-7593226D1*
X6246549Y-7654013D1*
X6331622D1*
X2315195Y-7561997D2*
X2369804D1*
X2388054Y-7555820D1*
X2394231Y-7549783D1*
X2400268Y-7537710D1*
Y-7525497D1*
X2394231Y-7513424D1*
X2388054Y-7507247D1*
X2369804Y-7501210D1*
X2315195D1*
Y-7628820D1*
X2357731Y-7561997D2*
X2400268Y-7628820D1*
X2451697Y-7501350D2*
X2518380D1*
X2482020Y-7549924D1*
X2500270D1*
X2512343Y-7555960D1*
X2518380Y-7561997D1*
X2524557Y-7580247D1*
Y-7592320D1*
X2518380Y-7610570D1*
X2506307Y-7622783D1*
X2488057Y-7628820D1*
X2469807D1*
X2451697Y-7622783D1*
X2445660Y-7616606D1*
X2439483Y-7604533D1*
X2575986Y-7501350D2*
X2642668D1*
X2606309Y-7549924D1*
X2624559D1*
X2636632Y-7555960D1*
X2642668Y-7561997D1*
X2648845Y-7580247D1*
Y-7592320D1*
X2642668Y-7610570D1*
X2630595Y-7622783D1*
X2612345Y-7628820D1*
X2594095D1*
X2575986Y-7622783D1*
X2569949Y-7616606D1*
X2563772Y-7604533D1*
X3261886Y-7559107D2*
X3316496D1*
X3334746Y-7552930D1*
X3340923Y-7546893D1*
X3346960Y-7534820D1*
Y-7522607D1*
X3340923Y-7510534D1*
X3334746Y-7504357D1*
X3316496Y-7498320D1*
X3261886D1*
Y-7625930D1*
X3304423Y-7559107D2*
X3346960Y-7625930D1*
X3398389Y-7498460D2*
X3465071D1*
X3428712Y-7547034D1*
X3446962D1*
X3459035Y-7553070D1*
X3465071Y-7559107D1*
X3471248Y-7577357D1*
Y-7589430D1*
X3465071Y-7607680D1*
X3452998Y-7619893D1*
X3434748Y-7625930D1*
X3416498D1*
X3398389Y-7619893D1*
X3392352Y-7613716D1*
X3386175Y-7601643D1*
X3571250Y-7625930D2*
Y-7498460D1*
X3510464Y-7583393D1*
X3601574D1*
X5262995Y-8104077D2*
X5317604D1*
X5335854Y-8097900D1*
X5342031Y-8091863D1*
X5348068Y-8079790D1*
Y-8067577D1*
X5342031Y-8055504D1*
X5335854Y-8049327D1*
X5317604Y-8043290D1*
X5262995D1*
Y-8170900D1*
X5305531Y-8104077D2*
X5348068Y-8170900D1*
X5399497Y-8043430D2*
X5466180D1*
X5429820Y-8092004D1*
X5448070D1*
X5460143Y-8098040D1*
X5466180Y-8104077D1*
X5472357Y-8122327D1*
Y-8134400D1*
X5466180Y-8152650D1*
X5454107Y-8164863D1*
X5435857Y-8170900D1*
X5417607D1*
X5399497Y-8164863D1*
X5393460Y-8158686D1*
X5387283Y-8146613D1*
X5584432Y-8043430D2*
X5523786D1*
X5517749Y-8098040D1*
X5523786Y-8092004D1*
X5542036Y-8085827D1*
X5560145D1*
X5578395Y-8092004D1*
X5590609Y-8104077D1*
X5596645Y-8122327D1*
Y-8134400D1*
X5590609Y-8152650D1*
X5578395Y-8164863D1*
X5560145Y-8170900D1*
X5542036D1*
X5523786Y-8164863D1*
X5517749Y-8158686D1*
X5511572Y-8146613D1*
X1514836Y-3358512D2*
Y-3449621D1*
X1520872Y-3467871D1*
X1533086Y-3479944D1*
X1551336Y-3486121D1*
X1563409D1*
X1581659Y-3479944D1*
X1593872Y-3467871D1*
X1599909Y-3449621D1*
Y-3358512D1*
X1645301Y-3388975D2*
Y-3382939D1*
X1651338Y-3370725D1*
X1657375Y-3364689D1*
X1669588Y-3358652D1*
X1693875D1*
X1705948Y-3364689D1*
X1711984Y-3370725D1*
X1718161Y-3382939D1*
Y-3395012D1*
X1711984Y-3407225D1*
X1699911Y-3425335D1*
X1639125Y-3486121D1*
X1724198D1*
X1737410Y-1173887D2*
X1785983Y-1301496D1*
X1834556Y-1173887D1*
X1873771D2*
Y-1301496D1*
X1916308D1*
X1934558Y-1295319D1*
X1946771Y-1283246D1*
X1952808Y-1271033D1*
X1958845Y-1252923D1*
Y-1222460D1*
X1952808Y-1204210D1*
X1946771Y-1192137D1*
X1934558Y-1179923D1*
X1916308Y-1173887D1*
X1873771D1*
X1998060Y-1198314D2*
X2010274Y-1192137D1*
X2028524Y-1174027D1*
Y-1301496D1*
X360588Y-2455060D2*
X409161Y-2582670D1*
X457734Y-2455060D1*
X496950D2*
Y-2582670D1*
X539487D1*
X557737Y-2576493D1*
X569950Y-2564420D1*
X575987Y-2552206D1*
X582023Y-2534097D1*
Y-2503633D1*
X575987Y-2485383D1*
X569950Y-2473310D1*
X557737Y-2461097D1*
X539487Y-2455060D1*
X496950D1*
X627416Y-2485524D2*
Y-2479487D1*
X633452Y-2467274D1*
X639489Y-2461237D1*
X651702Y-2455200D1*
X675989D1*
X688062Y-2461237D1*
X694098Y-2467274D1*
X700275Y-2479487D1*
Y-2491560D1*
X694098Y-2503774D1*
X682025Y-2521883D1*
X621239Y-2582670D1*
X706312D1*
X4194353Y-349913D2*
X4279426Y-477523D1*
Y-349913D2*
X4194353Y-477523D1*
X4318642Y-416736D2*
X4373392D1*
X4391501Y-410700D1*
X4397678Y-404523D1*
X4403715Y-392450D1*
Y-374200D1*
X4397678Y-362127D1*
X4391501Y-355950D1*
X4373392Y-349913D1*
X4318642D1*
Y-477523D1*
X4442930Y-374340D2*
X4455144Y-368163D1*
X4473394Y-350054D1*
Y-477523D1*
X2242887Y-2944948D2*
X2370496Y-2859875D1*
X2242887D2*
X2370496Y-2944948D1*
X2309710Y-2820660D2*
Y-2765910D1*
X2303673Y-2747800D1*
X2297496Y-2741623D1*
X2285423Y-2735587D1*
X2267173D1*
X2255100Y-2741623D1*
X2248923Y-2747800D1*
X2242887Y-2765910D1*
Y-2820660D1*
X2370496D1*
X2273350Y-2690194D2*
X2267314D1*
X2255100Y-2684158D1*
X2249064Y-2678121D1*
X2243027Y-2665908D1*
Y-2641621D1*
X2249064Y-2629548D1*
X2255100Y-2623511D1*
X2267314Y-2617335D1*
X2279387D1*
X2291600Y-2623511D1*
X2309710Y-2635585D1*
X2370496Y-2696371D1*
Y-2611298D1*
X3675355Y-8054017D2*
X3760428Y-8181626D1*
Y-8054017D2*
X3675355Y-8181626D1*
X3799643Y-8120840D2*
X3854393D1*
X3872503Y-8114803D1*
X3878680Y-8108626D1*
X3884717Y-8096553D1*
Y-8078303D1*
X3878680Y-8066230D1*
X3872503Y-8060053D1*
X3854393Y-8054017D1*
X3799643D1*
Y-8181626D1*
X3936146Y-8054157D2*
X4002828D1*
X3966469Y-8102730D1*
X3984719D1*
X3996792Y-8108767D1*
X4002828Y-8114803D1*
X4009005Y-8133053D1*
Y-8145126D1*
X4002828Y-8163376D1*
X3990755Y-8175590D1*
X3972505Y-8181626D1*
X3954255D1*
X3936146Y-8175590D1*
X3930109Y-8169413D1*
X3923932Y-8157340D1*
X4688390Y-8054017D2*
X4773463Y-8181626D1*
Y-8054017D2*
X4688390Y-8181626D1*
X4812679Y-8120840D2*
X4867429D1*
X4885538Y-8114803D1*
X4891715Y-8108626D1*
X4897752Y-8096553D1*
Y-8078303D1*
X4891715Y-8066230D1*
X4885538Y-8060053D1*
X4867429Y-8054017D1*
X4812679D1*
Y-8181626D1*
X4997754D2*
Y-8054157D1*
X4936967Y-8139090D1*
X5028077D1*
X5850515Y-8054017D2*
X5935588Y-8181626D1*
Y-8054017D2*
X5850515Y-8181626D1*
X5974803Y-8120840D2*
X6029553D1*
X6047663Y-8114803D1*
X6053840Y-8108626D1*
X6059877Y-8096553D1*
Y-8078303D1*
X6053840Y-8066230D1*
X6047663Y-8060053D1*
X6029553Y-8054017D1*
X5974803D1*
Y-8181626D1*
X6171952Y-8054157D2*
X6111306D1*
X6105269Y-8108767D1*
X6111306Y-8102730D1*
X6129556Y-8096553D1*
X6147665D1*
X6165915Y-8102730D1*
X6178129Y-8114803D1*
X6184165Y-8133053D1*
Y-8145126D1*
X6178129Y-8163376D1*
X6165915Y-8175590D1*
X6147665Y-8181626D1*
X6129556D1*
X6111306Y-8175590D1*
X6105269Y-8169413D1*
X6099092Y-8157340D1*
X397390Y-1026987D2*
X525000Y-941914D1*
X397390Y-941913D2*
X525000Y-1026987D1*
X464213Y-902698D2*
Y-847948D1*
X458177Y-829838D1*
X452000Y-823661D1*
X439927Y-817625D1*
X421677D1*
X409604Y-823661D1*
X403427Y-829838D1*
X397390Y-847948D1*
Y-902698D1*
X525000D1*
X415640Y-705550D2*
X403567Y-711586D1*
X397531Y-729836D1*
Y-741909D1*
X403567Y-760159D1*
X421817Y-772373D1*
X452140Y-778409D1*
X482463D1*
X506750Y-772373D1*
X518963Y-760159D1*
X525000Y-741909D1*
Y-735873D1*
X518963Y-717763D1*
X506750Y-705550D1*
X488500Y-699513D1*
X482463D1*
X464213Y-705550D1*
X452140Y-717763D1*
X446104Y-735873D1*
Y-741909D1*
X452140Y-760159D1*
X464213Y-772373D1*
X482463Y-778409D1*
X5620847Y-6926007D2*
X5669420Y-6986793D1*
Y-7053616D1*
X5717994Y-6926007D2*
X5669420Y-6986793D1*
X5757209Y-6950434D2*
X5769423Y-6944257D1*
X5787673Y-6926147D1*
Y-7053616D1*
M02*
