G04 DipTrace 3.0.0.1*
G04 Top Paste.gbr*
%MOMM*%
G04 #@! TF.FileFunction,Paste,Top*
G04 #@! TF.Part,Single*
%ADD58R,5.3X1.8*%
%ADD69R,2.0X2.1*%
%ADD71R,1.8X0.4*%
%ADD73R,1.35X0.8*%
%ADD75R,5.2X2.6*%
%ADD84R,0.4X1.8*%
%ADD86R,0.3X1.5*%
%ADD88R,1.5X0.3*%
%ADD90R,4.2X1.6*%
%ADD92R,3.2X1.7*%
%ADD94R,1.6X1.4*%
%ADD96R,1.4X2.75*%
%FSLAX35Y35*%
G04*
G71*
G90*
G75*
G01*
G04 TopPaste*
%LPD*%
D96*
X936723Y-2016337D3*
Y-1566337D3*
D94*
X1397197Y-1905157D3*
Y-1625157D3*
X746203Y-3175333D3*
Y-3455333D3*
X3651250Y-3841750D3*
Y-3561750D3*
X5349877Y-3981750D3*
Y-3701750D3*
D92*
X5778500Y-5476877D3*
Y-5086877D3*
D94*
X1698803Y-5382190D3*
Y-5662190D3*
D90*
X682697Y-5191670D3*
X1422697D3*
D94*
X5730877Y-6000750D3*
Y-5720750D3*
X3048000Y-5765500D3*
Y-6045500D3*
Y-6598250D3*
Y-6318250D3*
X3492500Y-6858000D3*
Y-7138000D3*
X4731247Y-7890703D3*
Y-7610703D3*
X4985247Y-7890703D3*
Y-7610703D3*
D88*
X4048123Y-3413127D3*
Y-3493127D3*
Y-3573127D3*
Y-3653127D3*
Y-3733127D3*
Y-3813127D3*
Y-3893127D3*
Y-3973127D3*
D86*
X4188123Y-4113127D3*
X4268123D3*
X4348123D3*
X4428123D3*
X4508123D3*
X4588123D3*
X4668123D3*
X4748123D3*
D88*
X4888123Y-3973127D3*
Y-3893127D3*
Y-3813127D3*
Y-3733127D3*
Y-3653127D3*
Y-3573127D3*
Y-3493127D3*
Y-3413127D3*
D86*
X4748123Y-3273127D3*
X4668123D3*
X4588123D3*
X4508123D3*
X4428123D3*
X4348123D3*
X4268123D3*
X4188123D3*
D84*
X5334000Y-5746750D3*
X5207000D3*
X5080000D3*
X4953000D3*
X4826000D3*
X4699000D3*
X4572000D3*
X4445000D3*
X4318000D3*
X4191000D3*
X4064000D3*
X3937000D3*
X3810000D3*
X3683000D3*
Y-6686750D3*
X3810000D3*
X3937000D3*
X4064000D3*
X4191000D3*
X4318000D3*
X4445000D3*
X4572000D3*
X4699000D3*
X4826000D3*
X4953000D3*
X5080000D3*
X5207000D3*
X5334000D3*
D75*
X1301887Y-3588127D3*
Y-4568127D3*
D73*
X3302000Y-6440873D3*
Y-6290873D3*
D94*
X2555877Y-2000250D3*
Y-1720250D3*
X2809877Y-2000250D3*
Y-1720250D3*
X3063877Y-2000250D3*
Y-1720250D3*
X3317877Y-2000250D3*
Y-1720250D3*
X3571877Y-2000250D3*
Y-1720250D3*
X3825877Y-2000250D3*
Y-1720250D3*
X4079877Y-2000250D3*
Y-1720250D3*
X4333877Y-2000250D3*
Y-1720250D3*
X4587877Y-2000250D3*
Y-1720250D3*
X4841877Y-2000250D3*
Y-1720250D3*
X5095873Y-2000250D3*
Y-1720250D3*
X5349877Y-2000250D3*
Y-1720250D3*
X5603877Y-2000250D3*
Y-1720250D3*
X5857877Y-2000250D3*
Y-1720250D3*
X6111877Y-2000250D3*
Y-1720250D3*
X6365877Y-2000250D3*
Y-1720250D3*
X1333697Y-2524390D3*
Y-2244390D3*
X1600693Y-2521513D3*
Y-2241513D3*
X1857570Y-2524390D3*
Y-2244390D3*
X2555873Y-3746500D3*
Y-3466500D3*
X2016127Y-4159250D3*
Y-3879250D3*
Y-4826000D3*
Y-4546000D3*
X3905250Y-5003500D3*
Y-5283500D3*
X4143373D3*
Y-5003500D3*
X4778373Y-5461000D3*
Y-5181000D3*
X2540000Y-5765500D3*
Y-6045500D3*
X2794000Y-5765500D3*
Y-6045500D3*
X3302000D3*
Y-5765500D3*
X2540000Y-6601127D3*
Y-6321127D3*
X2794000Y-6601127D3*
Y-6321127D3*
X5619750Y-7604127D3*
Y-7884127D3*
X5857877Y-7604127D3*
Y-7884127D3*
X2810170Y-7700183D3*
Y-7420183D3*
X3108937Y-7697293D3*
Y-7417293D3*
X5429820Y-8589277D3*
Y-8309277D3*
D71*
X1333640Y-2826047D3*
Y-2953047D3*
Y-3080047D3*
Y-3207047D3*
X1873640D3*
Y-3080047D3*
Y-2953047D3*
Y-2826047D3*
D69*
X1873447Y-1460653D3*
Y-1910653D3*
X936723Y-2810170D3*
Y-2360170D3*
D58*
X5334000Y-7175500D3*
X4384000D3*
M02*
